<svg width="234.33" height="157.74" fill-rule="evenodd" version="1.1" xmlns="http://www.w3.org/2000/svg">
 <rect y="-.13559" width="234.33" height="157.74" rx="0" fill="#fff" style="paint-order:normal"/>
 <g transform="matrix(.9394 0 0 .99629 -3.876 -49.93)" fill-rule="evenodd">
  <path d="m4.7302 50.225h248.24v157.27h-248.24v-157.27" fill="#fff" stroke-width=".76879"/>
  <path d="m156.31 134.97v-76.981h-144.54v59.583l5.432-12.221h9.166l3.056 7.215v-7.215h11.204l3.395 7.215 3.311-7.215h39.551c1.528 0 3.649 0.509 4.584 2.207v-2.207h8.317v2.631c1.018-1.443 2.632-2.631 5.856-2.631h16.891l3.055 7.044v-7.044h10.015l3.481 6.111v-6.111h9.167v22.576h-9.847l-4.075-6.706v6.706h-12.476l-1.951-4.414h-3.99l-1.868 4.414h-7.808c-1.697-0.17-5.602-0.848-6.451-3.479v3.479h-15.022v-5.007c0-0.679-0.68-1.528-1.528-1.528h-1.613v6.535h-31.913v-5.093l-2.461 5.093h-6.451l-2.461-5.178v5.178h-12.817l-1.697-4.074h-4.075l-1.782 4.074h-6.196v72.738h144.54v-44.559c-0.764 0.848-2.037 1.528-3.905 1.528h-12.052v-1.698c-0.933 1.019-2.205 1.698-4.329 1.698h-34.034v-4.753c-0.085-0.594 0.255-1.868-1.443-1.868h-1.443v6.621h-8.997v-7.639c-0.934 1.528-2.971 1.613-4.329 1.697h-4.753v5.941h-12.051l-3.48-4.244-3.734 4.244h-20.54v-22.662h20.879l3.565 4.159 3.734-4.159h16.467c1.187 0.085 3.395 0.679 4.244 1.867v-1.867h14.005c1.273 0 3.649 0.594 4.668 2.207v-2.207h17.654v2.037c0.934-1.273 2.376-2.037 4.668-2.037h11.289v1.953c0.849-1.273 3.056-1.953 4.413-1.953h9.507" fill="#00adef"/>
  <path d="m245.09 148.72-52.115 51.944h7.385l44.729-44.559v-7.384" fill="#2e3192"/>
  <path d="m245.09 163.23-37.515 37.43h7.384l30.131-30.046v-7.384" fill="#00adef"/>
  <path d="m245.09 177.74-23.001 22.916h7.469l15.532-15.532v-7.384" fill="#00a650"/>
  <g fill="#00adef">
   <path d="m128.98 50.261h-124.85v158.29h249.45v-158.29zm121.97 155.49h-243.93v-152.61h243.93v152.6m-81.055-18.417c-3.649 0-6.62 2.886-6.62 6.536 0 3.565 2.971 6.535 6.62 6.535 3.564 0 6.535-2.971 6.535-6.535a6.54 6.54 0 0 0-6.535-6.536zm0 12.307c-3.225-0.085-5.772-2.632-5.772-5.771a5.72 5.72 0 0 1 5.772-5.772c3.14 0 5.687 2.546 5.687 5.772 0 3.14-2.547 5.771-5.687 5.771"/>
   <path d="m173.2 192.09c0-0.594-0.253-1.188-0.763-1.528-0.595-0.34-1.189-0.34-1.783-0.34h-3.225v7.299h0.933v-3.395h1.613l2.121 3.395h1.019l-2.207-3.395c1.272 0 2.291-0.594 2.291-2.037zm-3.309 1.358h-1.528v-2.632h2.037c0.933 0 1.952 0.17 1.952 1.273 0 1.443-1.443 1.358-2.461 1.358m-125.96-73.841-5.177-11.628h-6.705v16.636l-7.47-16.636h-5.601l-7.553 17.315h4.498l1.613-3.904h8.487l1.698 3.904h8.572v-12.901l5.687 12.901h3.904l5.772-12.647v12.647h4.243v-17.315h-6.79zm-22.152-1.952h-2.546l2.546-6.025v0.169l2.632 5.856h-2.632"/>
   <path d="m91.293 112.56c0-3.651-2.971-4.584-5.093-4.584h-11.034v17.315h4.244v-6.111h5.517c1.528 0 2.121 1.443 2.121 2.885l0.085 3.225h4.159l-0.17-3.564c0-2.801-0.763-4.075-2.716-4.329 2.292-1.188 2.886-2.716 2.886-4.837zm-6.621 3.055h-5.262v-3.904h5.262c1.783 0 2.377 1.104 2.377 1.952 0 1.188-0.594 1.952-2.377 1.952m8.828 9.676h4.244v-17.315h-4.244v17.315"/>
   <path d="m141.54 107.98v11.967l-7.216-11.967h-6.28v16.212l-7.299-16.212h-5.602l-5.856 13.411s-2.122 0-2.377-0.084c-1.358-0.171-2.97-1.529-2.97-4.584 0-4.075 2.207-5.008 5.007-5.008h2.631v-3.735h-5.517c-1.952 0-6.196 1.443-6.281 8.572-0.169 4.755 1.952 8.743 6.705 8.743h5.602l1.612-3.904h8.488l1.697 3.904h8.403v-12.647l7.639 12.647h5.857v-17.315zm-23.511 9.676h-2.631l2.546-6.025 0.085 0.169 2.546 5.856h-2.546m-59.244 7.639h13.92v-3.649h-9.675v-3.396h9.421v-3.309h-9.421v-3.225h9.675v-3.735h-13.92v17.315m76.643 19.096c-0.255 0-2.631-0.085-2.97-0.085-1.018-0.085-1.782-0.34-1.782-1.358 0-1.697 1.613-1.528 3.141-1.528h6.535v-3.734h-8.997c-2.716 0-5.007 1.782-5.007 5.008 0 2.885 1.103 5.262 5.771 5.347 0.34 0 2.377 0.085 2.97 0.17 1.273 0.17 1.528 0.679 1.528 1.443 0 1.698-1.697 1.698-2.885 1.698h-6.959v3.65h8.911c2.801 0 5.432-1.697 5.432-4.923 0-2.801-0.424-5.432-5.687-5.687m15.956-1e-3c-0.255 0-2.632-0.085-2.971-0.085-1.02-0.085-1.783-0.34-1.783-1.358 0-1.697 1.613-1.528 3.056-1.528h6.535v-3.734h-8.912c-2.801 0-5.092 1.782-5.092 5.008 0 2.885 1.103 5.262 5.856 5.347 0.34 0 2.377 0.085 2.971 0.17 1.188 0.17 1.528 0.679 1.528 1.443 0 1.698-1.783 1.698-2.971 1.698h-6.96v3.65h8.997c2.8 0 5.432-1.697 5.432-4.923 0-2.801-0.425-5.432-5.687-5.687m-66.032-6.706h-14.938l-4.838 5.347-4.753-5.347h-16.806v17.23h16.296l5.093-5.687 5.008 5.772h8.148v-5.857h5.686c2.207 0 6.281-0.085 6.281-6.196 0-4.244-3.056-5.262-5.177-5.262zm-27.33 13.665h-9.675v-3.48h9.336v-3.226h-9.337v-3.225h9.675l4.753 4.668zm16.296 1.953-3.056-3.565-3.055-3.65 3.055-3.31 3.056-3.395zm9.506-7.725h-5.262v-4.159h5.262c1.783 0 2.377 1.104 2.377 1.952 0 1.189-0.594 2.207-2.377 2.207m24.868-3.226c0-3.734-3.056-4.668-5.093-4.668h-11.119v17.315h4.244v-6.111h5.601c1.443 0 2.037 1.443 2.122 2.97l0.085 3.141h4.159l-0.17-3.565c0-2.801-0.764-4.074-2.801-4.329 2.377-1.103 2.971-2.716 2.971-4.753zm-6.62 2.971h-5.347v-3.904h5.347c1.782 0 2.377 1.104 2.377 1.952 0 1.189-0.679 1.952-2.377 1.952m8.743 9.591h13.834v-3.565h-9.591v-3.48h9.337v-3.226h-9.337v-3.225h9.591v-3.734h-13.834v17.23m63.657-15.617c-3.565 0-4.245-2.801-4.245-5.771 0-4.073 1.528-6.195 3.904-6.195 2.208 0 3.651 1.273 3.82 3.48h6.621c-0.511-5.431-4.16-8.658-10.695-8.658-5.941 0-10.609 4.245-10.609 11.119 0 6.959 4.244 11.204 11.288 11.204 5.601 0 9.592-3.31 10.185-8.743h-6.705c-0.255 2.037-1.357 3.565-3.564 3.565m27.753-4.838c0-3.65-0.425-6.366-7.808-6.366h-0.849c-5.432 0.17-7.553 2.037-7.553 5.177h5.856c0.169-1.104 0.933-1.443 1.697-1.443 0.169-0.084 0.339-0.084 0.509-0.084 0.595 0 2.037 0.17 2.037 1.273 0 0.933-1.104 1.188-2.547 1.443-3.225 0.509-8.487 0.424-8.487 5.262 0 3.225 2.545 4.668 5.516 4.668 1.103 0 2.037-0.085 2.971-0.34 1.019-0.34 1.952-0.849 2.801-1.698l0.679 1.613h5.517c-0.256-0.594-0.34-1.358-0.34-2.291zm-8.657 6.45h-0.509c-1.273 0-1.952-0.509-1.952-1.273 0-1.273 1.103-1.528 2.461-1.782 0.849-0.17 1.783-0.34 2.547-0.679 0 2.631-0.764 3.565-2.547 3.734m15.531-9.251v-3.14h-5.601v15.446h6.112v-6.11c0-3.311 1.272-4.499 3.819-4.499h1.273v-5.176c-0.255-0.085-0.595-0.085-0.849-0.085-2.376 0-3.904 1.103-4.753 3.565m17.23-8.914v7.3c-0.764-0.849-1.529-1.358-2.461-1.697-0.595-0.17-1.359-0.255-2.208-0.255-3.649 0-6.535 3.309-6.535 8.402 0 4.414 2.376 7.894 7.044 7.894 0.595 0 1.189 0 1.699-0.17 1.188-0.34 2.036-1.019 3.055-2.291v2.036h5.517v-21.218zm-2.461 17.23h-0.171c-2.037 0-2.376-1.868-2.376-3.48 0-1.697 0.509-3.649 2.547-3.649s2.631 1.867 2.631 3.565-0.595 3.48-2.631 3.565"/>
  </g>
 </g>
</svg>
