<?xml version="1.0" encoding="utf-8"?>
<!-- Generator: Adobe Illustrator 26.4.1, SVG Export Plug-In . SVG Version: 6.00 Build 0)  -->
<svg version="1.1" id="Слой_1" xmlns="http://www.w3.org/2000/svg" xmlns:xlink="http://www.w3.org/1999/xlink" x="0px" y="0px"
	 viewBox="0 0 780 500" style="enable-background:new 0 0 780 500;" xml:space="preserve">
<style type="text/css">
	.st0{fill:#0079BE;}
	.st1{fill:#FFFFFF;}
</style>
<rect class="st0" width="780" height="500"/>
<path class="st1" d="M599.9,251.4c0-99.4-83-168.1-173.9-168.1h-78.2c-92,0-167.7,68.7-167.7,168.1c0,90.9,75.7,165.6,167.7,165.2
	H426C516.9,417.1,599.9,342.4,599.9,251.4z"/>
<path class="st0" d="M348.3,97.4c-84.1,0-152.2,68.3-152.2,152.6c0,84.3,68.1,152.5,152.2,152.6c84.1,0,152.2-68.3,152.2-152.6
	C500.5,165.7,432.4,97.5,348.3,97.4L348.3,97.4z"/>
<path class="st1" d="M252.1,249.6c0.1-41.2,25.7-76.3,61.9-90.2v180.5C277.8,325.9,252.1,290.8,252.1,249.6z M383.1,339.9V159.3
	c36.2,13.9,61.9,49.1,62,90.3C445,290.8,419.3,325.9,383.1,339.9L383.1,339.9z"/>
</svg>
