<svg width="234.33" height="157.74" version="1.1" viewBox="0 0 234.33 157.74" xmlns="http://www.w3.org/2000/svg">
 <defs>
  <clipPath id="clipPath26">
   <path d="m1954.2 1780.9c-152.06 0-275.43-118.79-275.43-265.4 0-155.87 118.01-272.39 275.43-272.39 153.49 0 274.68 118.06 274.68 269.33 0 150.37-120.38 268.46-274.68 268.46"/>
  </clipPath>
 </defs>
 <g transform="matrix(.62797 0 0 -.66091 0 157.74)">
  <g transform="scale(.1)">
   <g>
    <path d="m13.496 2373 3704.5 0.24 0.1-2359.6-3704.4-0.0508-0.1211 2359.4" fill="#fff"/>
    <path d="m3704.4 2359.7c0-26.53 0.11-2306 0.11-2332.6-26.79 0-3650.5-0.1015-3677.5-0.1015 0 26.582-0.0781 2305.9-0.0781 2332.5 26.84 0 3650.6 0.2 3677.4 0.2zm13.54 27.04-3718-0.26 0.10156-2386.5 3731.4 0.050781-0.15 2386.7h-13.45" fill="#231f20"/>
    <path d="m3704.3 1060.8s-1012.1-714.1-2865.8-1033.9h2865.8v1033.9" fill="#f47216"/>
   </g>
   <g clip-path="url(#clipPath26)">
    <g fill="#feefe0">
     <path d="m1953.8 1512"/>
     <g fill-rule="evenodd">
      <path d="m1953.8 1512h-1.06c0-0.59 0.47-1.06 1.06-1.06 0.58 0 1.06 0.47 1.06 1.06s-0.48 1.06-1.06 1.06c-0.59 0-1.06-0.47-1.06-1.06"/>
      <path d="m1952.8 1512c0 0.59 0.47 1.06 1.06 1.06 0.58 0 1.06-0.47 1.06-1.06s-0.48-1.06-1.06-1.06c-0.59 0-1.06 0.47-1.06 1.06h-1.06c0-1.17 0.95-2.13 2.12-2.13s2.12 0.96 2.12 2.13-0.95 2.12-2.12 2.12-2.12-0.95-2.12-2.12"/>
      <path d="m1951.7 1512c0 1.17 0.95 2.12 2.12 2.12s2.12-0.95 2.12-2.12-0.95-2.13-2.12-2.13-2.12 0.96-2.12 2.13h-1.07c0-1.76 1.43-3.19 3.19-3.19s3.19 1.43 3.19 3.19-1.43 3.19-3.19 3.19-3.19-1.43-3.19-3.19"/>
      <path d="m1950.6 1512c0 1.76 1.43 3.19 3.19 3.19s3.19-1.43 3.19-3.19-1.43-3.19-3.19-3.19-3.19 1.43-3.19 3.19h-1.06c0-2.34 1.9-4.25 4.25-4.25 2.34 0 4.25 1.91 4.25 4.25s-1.91 4.25-4.25 4.25c-2.35 0-4.25-1.91-4.25-4.25"/>
      <path d="m1949.6 1512c0 2.34 1.9 4.25 4.25 4.25 2.34 0 4.25-1.91 4.25-4.25s-1.91-4.25-4.25-4.25c-2.35 0-4.25 1.91-4.25 4.25h-1.06c0-2.93 2.37-5.31 5.31-5.31 2.93 0 5.31 2.38 5.31 5.31s-2.38 5.31-5.31 5.31c-2.94 0-5.31-2.38-5.31-5.31"/>
     </g>
    </g>
    <g fill-rule="evenodd">
     <path d="m1948.5 1512c0 2.93 2.37 5.31 5.31 5.31 2.93 0 5.31-2.38 5.31-5.31s-2.38-5.31-5.31-5.31c-2.94 0-5.31 2.38-5.31 5.31h-1.06c0-3.52 2.85-6.38 6.37-6.38s6.37 2.86 6.37 6.38-2.85 6.37-6.37 6.37-6.37-2.85-6.37-6.37" fill="#feefdf"/>
     <path d="m1947.5 1512c0 3.52 2.85 6.37 6.37 6.37s6.37-2.85 6.37-6.37-2.85-6.38-6.37-6.38-6.37 2.86-6.37 6.38h-1.07c0-4.11 3.33-7.44 7.44-7.44 4.1 0 7.44 3.33 7.44 7.44s-3.34 7.44-7.44 7.44c-4.11 0-7.44-3.33-7.44-7.44" fill="#feefdf"/>
     <path d="m1946.4 1512c0 4.11 3.33 7.44 7.44 7.44 4.1 0 7.44-3.33 7.44-7.44s-3.34-7.44-7.44-7.44c-4.11 0-7.44 3.33-7.44 7.44h-1.06c0-4.69 3.81-8.5 8.5-8.5s8.5 3.81 8.5 8.5-3.81 8.5-8.5 8.5-8.5-3.81-8.5-8.5" fill="#feeedf"/>
    </g>
    <g fill="#feeede" fill-rule="evenodd">
     <path d="m1945.3 1512c0 4.69 3.81 8.5 8.5 8.5s8.5-3.81 8.5-8.5-3.81-8.5-8.5-8.5-8.5 3.81-8.5 8.5h-1.06c0-5.28 4.28-9.56 9.56-9.56s9.56 4.28 9.56 9.56-4.28 9.56-9.56 9.56-9.56-4.28-9.56-9.56"/>
     <path d="m1944.3 1512c0 5.28 4.28 9.56 9.56 9.56s9.56-4.28 9.56-9.56-4.28-9.56-9.56-9.56-9.56 4.28-9.56 9.56h-1.06c0-5.87 4.75-10.63 10.62-10.63s10.62 4.76 10.62 10.63-4.75 10.62-10.62 10.62-10.62-4.75-10.62-10.62"/>
     <path d="m1943.2 1512c0 5.87 4.75 10.62 10.62 10.62s10.62-4.75 10.62-10.62-4.75-10.63-10.62-10.63-10.62 4.76-10.62 10.63h-1.07c0-6.45 5.24-11.69 11.69-11.69s11.69 5.24 11.69 11.69-5.24 11.69-11.69 11.69-11.69-5.24-11.69-11.69"/>
    </g>
    <g fill-rule="evenodd">
     <path d="m1942.1 1512c0 6.45 5.24 11.69 11.69 11.69s11.69-5.24 11.69-11.69-5.24-11.69-11.69-11.69-11.69 5.24-11.69 11.69h-1.06c0-7.04 5.71-12.75 12.75-12.75s12.75 5.71 12.75 12.75-5.71 12.75-12.75 12.75-12.75-5.71-12.75-12.75" fill="#feeedd"/>
     <path d="m1941.1 1512c0 7.04 5.71 12.75 12.75 12.75s12.75-5.71 12.75-12.75-5.71-12.75-12.75-12.75-12.75 5.71-12.75 12.75h-1.06c0-7.63 6.18-13.81 13.81-13.81 7.62 0 13.81 6.18 13.81 13.81 0 7.62-6.19 13.81-13.81 13.81-7.63 0-13.81-6.19-13.81-13.81" fill="#feeddc"/>
     <path d="m1940 1512c0 7.62 6.18 13.81 13.81 13.81 7.62 0 13.81-6.19 13.81-13.81 0-7.63-6.19-13.81-13.81-13.81-7.63 0-13.81 6.18-13.81 13.81h-1.06c0-8.22 6.65-14.88 14.87-14.88 8.21 0 14.87 6.66 14.87 14.88 0 8.21-6.66 14.87-14.87 14.87-8.22 0-14.87-6.66-14.87-14.87" fill="#feeddc"/>
     <path d="m1939 1512c0 8.21 6.65 14.87 14.87 14.87 8.21 0 14.87-6.66 14.87-14.87 0-8.22-6.66-14.88-14.87-14.88-8.22 0-14.87 6.66-14.87 14.88h-1.07c0-8.8 7.14-15.94 15.94-15.94s15.94 7.14 15.94 15.94-7.14 15.93-15.94 15.93-15.94-7.13-15.94-15.93" fill="#feeddb"/>
     <path d="m1937.9 1512c0 8.8 7.14 15.93 15.94 15.93s15.94-7.13 15.94-15.93-7.14-15.94-15.94-15.94-15.94 7.14-15.94 15.94h-1.06c0-9.39 7.61-17 17-17 9.38 0 17 7.61 17 17s-7.62 17-17 17c-9.39 0-17-7.61-17-17" fill="#feeddb"/>
     <path d="m1936.8 1512c0 9.39 7.61 17 17 17 9.38 0 17-7.61 17-17s-7.62-17-17-17c-9.39 0-17 7.61-17 17h-1.06c0-9.97 8.09-18.06 18.06-18.06s18.06 8.09 18.06 18.06-8.09 18.06-18.06 18.06-18.06-8.09-18.06-18.06" fill="#feecda"/>
     <path d="m1935.8 1512c0 9.97 8.09 18.06 18.06 18.06s18.06-8.09 18.06-18.06-8.09-18.06-18.06-18.06-18.06 8.09-18.06 18.06h-1.06c0-10.56 8.56-19.13 19.12-19.13s19.12 8.57 19.12 19.13-8.56 19.12-19.12 19.12-19.12-8.56-19.12-19.12" fill="#feecda"/>
     <path d="m1934.7 1512c0 10.56 8.56 19.12 19.12 19.12s19.12-8.56 19.12-19.12-8.56-19.13-19.12-19.13-19.12 8.57-19.12 19.13h-1.07c0-11.15 9.04-20.19 20.19-20.19s20.19 9.04 20.19 20.19-9.04 20.18-20.19 20.18-20.19-9.03-20.19-20.18" fill="#feecd9"/>
     <path d="m1933.6 1512c0 11.15 9.04 20.18 20.19 20.18s20.19-9.03 20.19-20.18-9.04-20.19-20.19-20.19-20.19 9.04-20.19 20.19h-1.06c0-11.73 9.51-21.25 21.25-21.25 11.73 0 21.25 9.52 21.25 21.25s-9.52 21.25-21.25 21.25c-11.74 0-21.25-9.52-21.25-21.25" fill="#feecd9"/>
     <path d="m1932.6 1512c0 11.73 9.51 21.25 21.25 21.25 11.73 0 21.25-9.52 21.25-21.25s-9.52-21.25-21.25-21.25c-11.74 0-21.25 9.52-21.25 21.25h-1.06c0-12.32 9.99-22.31 22.31-22.31s22.31 9.99 22.31 22.31-9.99 22.31-22.31 22.31-22.31-9.99-22.31-22.31" fill="#feebd8"/>
     <path d="m1931.5 1512c0 12.32 9.99 22.31 22.31 22.31s22.31-9.99 22.31-22.31-9.99-22.31-22.31-22.31-22.31 9.99-22.31 22.31h-1.06c0-12.91 10.46-23.38 23.37-23.38 12.9 0 23.37 10.47 23.37 23.38s-10.47 23.37-23.37 23.37c-12.91 0-23.37-10.46-23.37-23.37" fill="#feebd8"/>
     <path d="m1930.5 1512c0 12.91 10.46 23.37 23.37 23.37 12.9 0 23.37-10.46 23.37-23.37s-10.47-23.38-23.37-23.38c-12.91 0-23.37 10.47-23.37 23.38h-1.07c0-13.49 10.95-24.44 24.44-24.44s24.44 10.95 24.44 24.44-10.95 24.43-24.44 24.43-24.44-10.94-24.44-24.43" fill="#feebd7"/>
     <path d="m1929.4 1512c0 13.49 10.95 24.43 24.44 24.43s24.44-10.94 24.44-24.43-10.95-24.44-24.44-24.44-24.44 10.95-24.44 24.44h-1.06c0-14.08 11.42-25.5 25.5-25.5s25.5 11.42 25.5 25.5-11.42 25.5-25.5 25.5-25.5-11.42-25.5-25.5" fill="#feead7"/>
     <path d="m1928.3 1512c0 14.08 11.42 25.5 25.5 25.5s25.5-11.42 25.5-25.5-11.42-25.5-25.5-25.5-25.5 11.42-25.5 25.5h-1.06c0-14.67 11.89-26.56 26.56-26.56s26.56 11.89 26.56 26.56-11.89 26.56-26.56 26.56-26.56-11.89-26.56-26.56" fill="#feead6"/>
     <path d="m1927.3 1512c0 14.67 11.89 26.56 26.56 26.56s26.56-11.89 26.56-26.56-11.89-26.56-26.56-26.56-26.56 11.89-26.56 26.56h-1.06c0-15.25 12.36-27.63 27.62-27.63 15.25 0 27.62 12.38 27.62 27.63s-12.37 27.62-27.62 27.62c-15.26 0-27.62-12.37-27.62-27.62" fill="#feead6"/>
     <path d="m1926.2 1512c0 15.25 12.36 27.62 27.62 27.62 15.25 0 27.62-12.37 27.62-27.62s-12.37-27.63-27.62-27.63c-15.26 0-27.62 12.38-27.62 27.63h-1.07c0-15.84 12.85-28.69 28.69-28.69s28.69 12.85 28.69 28.69-12.85 28.68-28.69 28.68-28.69-12.84-28.69-28.68" fill="#fde9d4"/>
     <path d="m1925.1 1512c0 15.84 12.85 28.68 28.69 28.68s28.69-12.84 28.69-28.68-12.85-28.69-28.69-28.69-28.69 12.85-28.69 28.69h-1.06c0-16.43 13.32-29.75 29.75-29.75s29.75 13.32 29.75 29.75-13.32 29.75-29.75 29.75-29.75-13.32-29.75-29.75" fill="#fde9d4"/>
     <path d="m1924.1 1512c0 16.43 13.32 29.75 29.75 29.75s29.75-13.32 29.75-29.75-13.32-29.75-29.75-29.75-29.75 13.32-29.75 29.75h-1.06c0-17.02 13.79-30.81 30.81-30.81 17.01 0 30.81 13.79 30.81 30.81s-13.8 30.81-30.81 30.81c-17.02 0-30.81-13.79-30.81-30.81" fill="#fde9d3"/>
     <path d="m1923 1512c0 17.02 13.79 30.81 30.81 30.81 17.01 0 30.81-13.79 30.81-30.81s-13.8-30.81-30.81-30.81c-17.02 0-30.81 13.79-30.81 30.81h-1.06c0-17.6 14.27-31.88 31.87-31.88s31.87 14.28 31.87 31.88-14.27 31.87-31.87 31.87-31.87-14.27-31.87-31.87" fill="#fde8d3"/>
     <path d="m1922 1512c0 17.6 14.27 31.87 31.87 31.87s31.87-14.27 31.87-31.87-14.27-31.88-31.87-31.88-31.87 14.28-31.87 31.88h-1.07c0-18.19 14.75-32.94 32.94-32.94s32.94 14.75 32.94 32.94-14.75 32.93-32.94 32.93-32.94-14.74-32.94-32.93" fill="#fde8d2"/>
     <path d="m1920.9 1512c0 18.19 14.75 32.93 32.94 32.93s32.94-14.74 32.94-32.93-14.75-32.94-32.94-32.94-32.94 14.75-32.94 32.94h-1.06c0-18.77 15.22-34 34-34 18.77 0 34 15.23 34 34s-15.23 34-34 34c-18.78 0-34-15.23-34-34" fill="#fde8d2"/>
     <path d="m1919.8 1512c0 18.77 15.22 34 34 34 18.77 0 34-15.23 34-34s-15.23-34-34-34c-18.78 0-34 15.23-34 34h-1.06c0-19.36 15.69-35.06 35.06-35.06 19.36 0 35.06 15.7 35.06 35.06s-15.7 35.06-35.06 35.06c-19.37 0-35.06-15.7-35.06-35.06" fill="#fde7d1"/>
     <path d="m1918.8 1512c0 19.36 15.69 35.06 35.06 35.06 19.36 0 35.06-15.7 35.06-35.06s-15.7-35.06-35.06-35.06c-19.37 0-35.06 15.7-35.06 35.06h-1.06c0-19.95 16.17-36.13 36.12-36.13s36.12 16.18 36.12 36.13-16.17 36.12-36.12 36.12-36.12-16.17-36.12-36.12" fill="#fde7d0"/>
     <path d="m1917.7 1512c0 19.95 16.17 36.12 36.12 36.12s36.12-16.17 36.12-36.12-16.17-36.13-36.12-36.13-36.12 16.18-36.12 36.13h-1.07c0-20.54 16.65-37.19 37.19-37.19 20.53 0 37.19 16.65 37.19 37.19 0 20.53-16.66 37.18-37.19 37.18-20.54 0-37.19-16.65-37.19-37.18" fill="#fde7d0"/>
     <path d="m1916.6 1512c0 20.53 16.65 37.18 37.19 37.18 20.53 0 37.19-16.65 37.19-37.18 0-20.54-16.66-37.19-37.19-37.19-20.54 0-37.19 16.65-37.19 37.19h-1.06c0-21.12 17.13-38.25 38.25-38.25s38.25 17.13 38.25 38.25-17.13 38.25-38.25 38.25-38.25-17.13-38.25-38.25" fill="#fde6ce"/>
     <path d="m1915.6 1512c0 21.12 17.13 38.25 38.25 38.25s38.25-17.13 38.25-38.25-17.13-38.25-38.25-38.25-38.25 17.13-38.25 38.25h-1.06c0-21.71 17.6-39.31 39.31-39.31s39.31 17.6 39.31 39.31-17.6 39.31-39.31 39.31-39.31-17.6-39.31-39.31" fill="#fde6ce"/>
     <path d="m1914.5 1512c0 21.71 17.6 39.31 39.31 39.31s39.31-17.6 39.31-39.31-17.6-39.31-39.31-39.31-39.31 17.6-39.31 39.31h-1.06c0-22.3 18.07-40.38 40.37-40.38s40.37 18.08 40.37 40.38-18.07 40.37-40.37 40.37-40.37-18.07-40.37-40.37" fill="#fde6cd"/>
     <path d="m1913.5 1512c0 22.3 18.07 40.37 40.37 40.37s40.37-18.07 40.37-40.37-18.07-40.38-40.37-40.38-40.37 18.08-40.37 40.38h-1.07c0-22.88 18.56-41.44 41.44-41.44s41.44 18.56 41.44 41.44-18.56 41.43-41.44 41.43-41.44-18.55-41.44-41.43" fill="#fde5cd"/>
     <path d="m1912.4 1512c0 22.88 18.56 41.43 41.44 41.43s41.44-18.55 41.44-41.43-18.56-41.44-41.44-41.44-41.44 18.56-41.44 41.44h-1.06c0-23.47 19.03-42.5 42.5-42.5s42.5 19.03 42.5 42.5-19.03 42.5-42.5 42.5-42.5-19.03-42.5-42.5" fill="#fde4cc"/>
     <path d="m1911.3 1512c0 23.47 19.03 42.5 42.5 42.5s42.5-19.03 42.5-42.5-19.03-42.5-42.5-42.5-42.5 19.03-42.5 42.5h-1.06c0-24.06 19.5-43.56 43.56-43.56 24.05 0 43.56 19.5 43.56 43.56 0 24.05-19.51 43.56-43.56 43.56-24.06 0-43.56-19.51-43.56-43.56" fill="#fde4cb"/>
     <path d="m1910.3 1512c0 24.05 19.5 43.56 43.56 43.56 24.05 0 43.56-19.51 43.56-43.56 0-24.06-19.51-43.56-43.56-43.56-24.06 0-43.56 19.5-43.56 43.56h-1.06c0-24.64 19.97-44.63 44.62-44.63 24.64 0 44.62 19.99 44.62 44.63s-19.98 44.62-44.62 44.62c-24.65 0-44.62-19.98-44.62-44.62" fill="#fde3cb"/>
     <path d="m1909.2 1512c0 24.64 19.97 44.62 44.62 44.62 24.64 0 44.62-19.98 44.62-44.62s-19.98-44.63-44.62-44.63c-24.65 0-44.62 19.99-44.62 44.63h-1.07c0-25.23 20.46-45.69 45.69-45.69s45.69 20.46 45.69 45.69-20.46 45.68-45.69 45.68-45.69-20.45-45.69-45.68" fill="#fde3ca"/>
     <path d="m1908.1 1512c0 25.23 20.46 45.68 45.69 45.68s45.69-20.45 45.69-45.68-20.46-45.69-45.69-45.69-45.69 20.46-45.69 45.69h-1.06c0-25.82 20.93-46.75 46.75-46.75 25.81 0 46.75 20.93 46.75 46.75s-20.94 46.75-46.75 46.75c-25.82 0-46.75-20.93-46.75-46.75" fill="#fde2c9"/>
     <path d="m1907.1 1512c0 25.82 20.93 46.75 46.75 46.75 25.81 0 46.75-20.93 46.75-46.75s-20.94-46.75-46.75-46.75c-25.82 0-46.75 20.93-46.75 46.75h-1.06c0-26.4 21.41-47.81 47.81-47.81s47.81 21.41 47.81 47.81-21.41 47.81-47.81 47.81-47.81-21.41-47.81-47.81" fill="#fde2c9"/>
     <path d="m1906 1512c0 26.4 21.41 47.81 47.81 47.81s47.81-21.41 47.81-47.81-21.41-47.81-47.81-47.81-47.81 21.41-47.81 47.81h-1.06c0-26.99 21.88-48.88 48.87-48.88s48.87 21.89 48.87 48.88-21.88 48.87-48.87 48.87-48.87-21.88-48.87-48.87" fill="#fde2c8"/>
     <path d="m1905 1512c0 26.99 21.88 48.87 48.87 48.87s48.87-21.88 48.87-48.87-21.88-48.88-48.87-48.88-48.87 21.89-48.87 48.88h-1.07c0-27.58 22.36-49.94 49.94-49.94s49.94 22.36 49.94 49.94-22.36 49.93-49.94 49.93-49.94-22.35-49.94-49.93" fill="#fde1c6"/>
     <path d="m1903.9 1512c0 27.58 22.36 49.93 49.94 49.93s49.94-22.35 49.94-49.93-22.36-49.94-49.94-49.94-49.94 22.36-49.94 49.94h-1.06c0-28.16 22.83-51 51-51 28.16 0 51 22.84 51 51s-22.84 51-51 51c-28.17 0-51-22.84-51-51" fill="#fde1c6"/>
     <path d="m1902.8 1512c0 28.16 22.83 51 51 51 28.16 0 51-22.84 51-51s-22.84-51-51-51c-28.17 0-51 22.84-51 51h-1.06c0-28.75 23.31-52.06 52.06-52.06s52.06 23.31 52.06 52.06-23.31 52.06-52.06 52.06-52.06-23.31-52.06-52.06" fill="#fde0c5"/>
     <path d="m1901.8 1512c0 28.75 23.31 52.06 52.06 52.06s52.06-23.31 52.06-52.06-23.31-52.06-52.06-52.06-52.06 23.31-52.06 52.06h-1.06c0-29.34 23.78-53.13 53.12-53.13 29.33 0 53.12 23.79 53.12 53.13s-23.79 53.12-53.12 53.12c-29.34 0-53.12-23.78-53.12-53.12" fill="#fde0c4"/>
     <path d="m1900.7 1512c0 29.34 23.78 53.12 53.12 53.12 29.33 0 53.12-23.78 53.12-53.12s-23.79-53.13-53.12-53.13c-29.34 0-53.12 23.79-53.12 53.13h-1.07c0-29.92 24.27-54.19 54.19-54.19s54.19 24.27 54.19 54.19-24.27 54.18-54.19 54.18-54.19-24.26-54.19-54.18" fill="#fde0c4"/>
     <path d="m1899.6 1512c0 29.92 24.27 54.18 54.19 54.18s54.19-24.26 54.19-54.18-24.27-54.19-54.19-54.19-54.19 24.27-54.19 54.19h-1.06c0-30.51 24.74-55.25 55.25-55.25s55.25 24.74 55.25 55.25-24.74 55.25-55.25 55.25-55.25-24.74-55.25-55.25" fill="#fddfc3"/>
     <path d="m1898.6 1512c0 30.51 24.74 55.25 55.25 55.25s55.25-24.74 55.25-55.25-24.74-55.25-55.25-55.25-55.25 24.74-55.25 55.25h-1.06c0-31.1 25.21-56.31 56.31-56.31s56.31 25.21 56.31 56.31-25.21 56.31-56.31 56.31-56.31-25.21-56.31-56.31" fill="#fddfc2"/>
     <path d="m1897.5 1512c0 31.1 25.21 56.31 56.31 56.31s56.31-25.21 56.31-56.31-25.21-56.31-56.31-56.31-56.31 25.21-56.31 56.31h-1.06c0-31.68 25.68-57.38 57.37-57.38 31.68 0 57.37 25.7 57.37 57.38s-25.69 57.37-57.37 57.37c-31.69 0-57.37-25.69-57.37-57.37" fill="#fddec2"/>
     <path d="m1896.5 1512c0 31.68 25.68 57.37 57.37 57.37 31.68 0 57.37-25.69 57.37-57.37s-25.69-57.38-57.37-57.38c-31.69 0-57.37 25.7-57.37 57.38h-1.07c0-32.27 26.17-58.44 58.44-58.44s58.44 26.17 58.44 58.44-26.17 58.43-58.44 58.43-58.44-26.16-58.44-58.43" fill="#fddec1"/>
     <path d="m1895.4 1512c0 32.27 26.17 58.43 58.44 58.43s58.44-26.16 58.44-58.43-26.17-58.44-58.44-58.44-58.44 26.17-58.44 58.44h-1.06c0-32.86 26.64-59.5 59.5-59.5s59.5 26.64 59.5 59.5-26.64 59.5-59.5 59.5-59.5-26.64-59.5-59.5" fill="#fddec0"/>
     <path d="m1894.3 1512c0 32.86 26.64 59.5 59.5 59.5s59.5-26.64 59.5-59.5-26.64-59.5-59.5-59.5-59.5 26.64-59.5 59.5h-1.06c0-33.45 27.11-60.56 60.56-60.56 33.44 0 60.56 27.11 60.56 60.56 0 33.44-27.12 60.56-60.56 60.56-33.45 0-60.56-27.12-60.56-60.56" fill="#fdddc0"/>
     <path d="m1893.3 1512c0 33.44 27.11 60.56 60.56 60.56 33.44 0 60.56-27.12 60.56-60.56 0-33.45-27.12-60.56-60.56-60.56-33.45 0-60.56 27.11-60.56 60.56h-1.06c0-34.03 27.59-61.63 61.62-61.63s61.62 27.6 61.62 61.63-27.59 61.62-61.62 61.62-61.62-27.59-61.62-61.62" fill="#fdddbf"/>
     <path d="m1892.2 1512c0 34.03 27.59 61.62 61.62 61.62s61.62-27.59 61.62-61.62-27.59-61.63-61.62-61.63-61.62 27.6-61.62 61.63h-1.07c0-34.62 28.07-62.69 62.69-62.69s62.69 28.07 62.69 62.69-28.07 62.68-62.69 62.68-62.69-28.06-62.69-62.68" fill="#fddcbd"/>
     <path d="m1891.1 1512c0 34.62 28.07 62.68 62.69 62.68s62.69-28.06 62.69-62.68-28.07-62.69-62.69-62.69-62.69 28.07-62.69 62.69h-1.06c0-35.2 28.55-63.75 63.75-63.75s63.75 28.55 63.75 63.75-28.55 63.75-63.75 63.75-63.75-28.55-63.75-63.75" fill="#fddcbc"/>
     <path d="m1890.1 1512c0 35.2 28.55 63.75 63.75 63.75s63.75-28.55 63.75-63.75-28.55-63.75-63.75-63.75-63.75 28.55-63.75 63.75h-1.06c0-35.79 29.02-64.81 64.81-64.81s64.81 29.02 64.81 64.81-29.02 64.81-64.81 64.81-64.81-29.02-64.81-64.81" fill="#fcdbbc"/>
     <path d="m1889 1512c0 35.79 29.02 64.81 64.81 64.81s64.81-29.02 64.81-64.81-29.02-64.81-64.81-64.81-64.81 29.02-64.81 64.81h-1.06c0-36.38 29.49-65.88 65.87-65.88s65.87 29.5 65.87 65.88-29.49 65.87-65.87 65.87-65.87-29.49-65.87-65.87" fill="#fcdbbb"/>
     <path d="m1888 1512c0 36.38 29.49 65.87 65.87 65.87s65.87-29.49 65.87-65.87-29.49-65.88-65.87-65.88-65.87 29.5-65.87 65.88h-1.07c0-36.97 29.97-66.94 66.94-66.94 36.96 0 66.94 29.97 66.94 66.94 0 36.96-29.98 66.93-66.94 66.93-36.97 0-66.94-29.97-66.94-66.93" fill="#fcdbba"/>
     <path d="m1886.9 1512c0 36.96 29.97 66.93 66.94 66.93 36.96 0 66.94-29.97 66.94-66.93 0-36.97-29.98-66.94-66.94-66.94-36.97 0-66.94 29.97-66.94 66.94h-1.06c0-37.55 30.45-68 68-68s68 30.45 68 68-30.45 68-68 68-68-30.45-68-68" fill="#fcdaba"/>
     <path d="m1885.8 1512c0 37.55 30.45 68 68 68s68-30.45 68-68-30.45-68-68-68-68 30.45-68 68h-1.06c0-38.14 30.92-69.06 69.06-69.06 38.13 0 69.06 30.92 69.06 69.06s-30.93 69.06-69.06 69.06c-38.14 0-69.06-30.92-69.06-69.06" fill="#fcdab9"/>
     <path d="m1884.8 1512c0 38.14 30.92 69.06 69.06 69.06 38.13 0 69.06-30.92 69.06-69.06s-30.93-69.06-69.06-69.06c-38.14 0-69.06 30.92-69.06 69.06h-1.06c0-38.73 31.39-70.13 70.12-70.13 38.72 0 70.12 31.4 70.12 70.13s-31.4 70.12-70.12 70.12c-38.73 0-70.12-31.39-70.12-70.12" fill="#fcd9b8"/>
     <path d="m1883.7 1512c0 38.73 31.39 70.12 70.12 70.12 38.72 0 70.12-31.39 70.12-70.12s-31.4-70.13-70.12-70.13c-38.73 0-70.12 31.4-70.12 70.13h-1.07c0-39.31 31.88-71.19 71.19-71.19s71.19 31.88 71.19 71.19-31.88 71.18-71.19 71.18-71.19-31.87-71.19-71.18" fill="#fcd9b7"/>
     <path d="m1882.6 1512c0 39.31 31.88 71.18 71.19 71.18s71.19-31.87 71.19-71.18-31.88-71.19-71.19-71.19-71.19 31.88-71.19 71.19h-1.06c0-39.9 32.35-72.25 72.25-72.25s72.25 32.35 72.25 72.25-32.35 72.25-72.25 72.25-72.25-32.35-72.25-72.25" fill="#fcd8b7"/>
     <path d="m1881.6 1512c0 39.9 32.35 72.25 72.25 72.25s72.25-32.35 72.25-72.25-32.35-72.25-72.25-72.25-72.25 32.35-72.25 72.25h-1.06c0-40.48 32.82-73.31 73.31-73.31 40.48 0 73.31 32.83 73.31 73.31s-32.83 73.31-73.31 73.31c-40.49 0-73.31-32.83-73.31-73.31" fill="#fcd8b6"/>
    </g>
    <g fill="#fcd7b4" fill-rule="evenodd">
     <path d="m1880.5 1512c0 40.48 32.82 73.31 73.31 73.31 40.48 0 73.31-32.83 73.31-73.31s-32.83-73.31-73.31-73.31c-40.49 0-73.31 32.83-73.31 73.31h-1.06c0-41.07 33.29-74.38 74.37-74.38 41.07 0 74.37 33.31 74.37 74.38s-33.3 74.37-74.37 74.37c-41.08 0-74.37-33.3-74.37-74.37"/>
     <path d="m1879.5 1512c0 41.07 33.29 74.37 74.37 74.37 41.07 0 74.37-33.3 74.37-74.37s-33.3-74.38-74.37-74.38c-41.08 0-74.37 33.31-74.37 74.38h-1.07c0-41.66 33.78-75.44 75.44-75.44s75.44 33.78 75.44 75.44-33.78 75.43-75.44 75.43-75.44-33.77-75.44-75.43"/>
     <path d="m1878.4 1512c0 41.66 33.78 75.43 75.44 75.43s75.44-33.77 75.44-75.43-33.78-75.44-75.44-75.44-75.44 33.78-75.44 75.44h-1.06c0-42.25 34.25-76.5 76.5-76.5 42.24 0 76.5 34.25 76.5 76.5s-34.26 76.5-76.5 76.5c-42.25 0-76.5-34.25-76.5-76.5"/>
    </g>
    <g fill-rule="evenodd">
     <path d="m1877.3 1512c0 42.25 34.25 76.5 76.5 76.5 42.24 0 76.5-34.25 76.5-76.5s-34.26-76.5-76.5-76.5c-42.25 0-76.5 34.25-76.5 76.5h-1.06c0-42.83 34.73-77.56 77.56-77.56s77.56 34.73 77.56 77.56-34.73 77.56-77.56 77.56-77.56-34.73-77.56-77.56" fill="#fcd6b2"/>
     <path d="m1876.3 1512c0 42.83 34.73 77.56 77.56 77.56s77.56-34.73 77.56-77.56-34.73-77.56-77.56-77.56-77.56 34.73-77.56 77.56h-1.06c0-43.42 35.2-78.62 78.62-78.62s78.62 35.2 78.62 78.62-35.2 78.62-78.62 78.62-78.62-35.2-78.62-78.62" fill="#fcd6b1"/>
     <path d="m1875.2 1512c0 43.42 35.2 78.62 78.62 78.62s78.62-35.2 78.62-78.62-35.2-78.62-78.62-78.62-78.62 35.2-78.62 78.62h-1.07c0-44.01 35.68-79.68 79.69-79.68s79.69 35.67 79.69 79.68-35.68 79.68-79.69 79.68-79.69-35.67-79.69-79.68" fill="#fcd5b0"/>
     <path d="m1874.1 1512c0 44.01 35.68 79.68 79.69 79.68s79.69-35.67 79.69-79.68-35.68-79.68-79.69-79.68-79.69 35.67-79.69 79.68h-1.06c0-44.59 36.15-80.75 80.75-80.75 44.59 0 80.75 36.16 80.75 80.75s-36.16 80.75-80.75 80.75c-44.6 0-80.75-36.16-80.75-80.75" fill="#fcd5af"/>
     <path d="m1873.1 1512c0 44.59 36.15 80.75 80.75 80.75 44.59 0 80.75-36.16 80.75-80.75s-36.16-80.75-80.75-80.75c-44.6 0-80.75 36.16-80.75 80.75h-1.06c0-45.18 36.63-81.81 81.81-81.81s81.81 36.63 81.81 81.81-36.63 81.81-81.81 81.81-81.81-36.63-81.81-81.81" fill="#fcd4af"/>
     <path d="m1872 1512c0 45.18 36.63 81.81 81.81 81.81s81.81-36.63 81.81-81.81-36.63-81.81-81.81-81.81-81.81 36.63-81.81 81.81h-1.06c0-45.77 37.1-82.87 82.87-82.87 45.76 0 82.87 37.1 82.87 82.87s-37.11 82.87-82.87 82.87c-45.77 0-82.87-37.1-82.87-82.87" fill="#fcd4ae"/>
     <path d="m1871 1512c0 45.77 37.1 82.87 82.87 82.87 45.76 0 82.87-37.1 82.87-82.87s-37.11-82.87-82.87-82.87c-45.77 0-82.87 37.1-82.87 82.87h-1.07c0-46.35 37.59-83.93 83.94-83.93s83.94 37.58 83.94 83.93-37.59 83.93-83.94 83.93-83.94-37.58-83.94-83.93" fill="#fcd3ad"/>
     <path d="m1869.9 1512c0 46.35 37.59 83.93 83.94 83.93s83.94-37.58 83.94-83.93-37.59-83.93-83.94-83.93-83.94 37.58-83.94 83.93h-1.06c0-46.94 38.06-85 85-85s85 38.06 85 85-38.06 85-85 85-85-38.06-85-85" fill="#fcd3ac"/>
     <path d="m1868.8 1512c0 46.94 38.06 85 85 85s85-38.06 85-85-38.06-85-85-85-85 38.06-85 85h-1.06c0-47.53 38.53-86.06 86.06-86.06s86.06 38.53 86.06 86.06-38.53 86.06-86.06 86.06-86.06-38.53-86.06-86.06" fill="#fcd2ab"/>
     <path d="m1867.8 1512c0 47.53 38.53 86.06 86.06 86.06s86.06-38.53 86.06-86.06-38.53-86.06-86.06-86.06-86.06 38.53-86.06 86.06h-1.06c0-48.11 39-87.12 87.12-87.12 48.11 0 87.12 39.01 87.12 87.12s-39.01 87.12-87.12 87.12c-48.12 0-87.12-39.01-87.12-87.12" fill="#fcd2ab"/>
     <path d="m1866.7 1512c0 48.11 39 87.12 87.12 87.12 48.11 0 87.12-39.01 87.12-87.12s-39.01-87.12-87.12-87.12c-48.12 0-87.12 39.01-87.12 87.12h-1.07c0-48.7 39.49-88.18 88.19-88.18s88.18 39.48 88.18 88.18-39.48 88.18-88.18 88.18-88.19-39.48-88.19-88.18" fill="#fcd1aa"/>
     <path d="m1865.6 1512c0 48.7 39.49 88.18 88.19 88.18s88.18-39.48 88.18-88.18-39.48-88.18-88.18-88.18-88.19 39.48-88.19 88.18h-1.06c0-49.29 39.96-89.25 89.25-89.25s89.24 39.96 89.24 89.25-39.95 89.25-89.24 89.25-89.25-39.96-89.25-89.25" fill="#fcd1a9"/>
     <path d="m1864.6 1512c0 49.29 39.96 89.25 89.25 89.25s89.24-39.96 89.24-89.25-39.95-89.25-89.24-89.25-89.25 39.96-89.25 89.25h-1.06c0-49.88 40.43-90.31 90.31-90.31 49.87 0 90.31 40.43 90.31 90.31 0 49.87-40.44 90.31-90.31 90.31-49.88 0-90.31-40.44-90.31-90.31" fill="#fcd0a8"/>
     <path d="m1863.5 1512c0 49.87 40.43 90.31 90.31 90.31 49.87 0 90.31-40.44 90.31-90.31 0-49.88-40.44-90.31-90.31-90.31-49.88 0-90.31 40.43-90.31 90.31h-1.06c0-50.46 40.91-91.37 91.37-91.37s91.37 40.91 91.37 91.37-40.91 91.37-91.37 91.37-91.37-40.91-91.37-91.37" fill="#fcd0a7"/>
     <path d="m1862.5 1512c0 50.46 40.91 91.37 91.37 91.37s91.37-40.91 91.37-91.37-40.91-91.37-91.37-91.37-91.37 40.91-91.37 91.37h-1.06c0-51.05 41.38-92.43 92.43-92.43s92.43 41.38 92.43 92.43-41.38 92.43-92.43 92.43-92.43-41.38-92.43-92.43" fill="#fccfa6"/>
     <path d="m1861.4 1512c0 51.05 41.38 92.43 92.43 92.43s92.43-41.38 92.43-92.43-41.38-92.43-92.43-92.43-92.43 41.38-92.43 92.43h-1.06c0-51.63 41.86-93.5 93.49-93.5s93.49 41.87 93.49 93.5-41.86 93.5-93.49 93.5-93.49-41.87-93.49-93.5" fill="#fccfa5"/>
     <path d="m1860.3 1512c0 51.63 41.86 93.5 93.49 93.5s93.49-41.87 93.49-93.5-41.86-93.5-93.49-93.5-93.49 41.87-93.49 93.5h-1.07c0-52.22 42.34-94.56 94.56-94.56s94.56 42.34 94.56 94.56-42.34 94.56-94.56 94.56-94.56-42.34-94.56-94.56" fill="#fccea4"/>
     <path d="m1859.3 1512c0 52.22 42.34 94.56 94.56 94.56s94.56-42.34 94.56-94.56-42.34-94.56-94.56-94.56-94.56 42.34-94.56 94.56h-1.06c0-52.81 42.81-95.62 95.62-95.62s95.62 42.81 95.62 95.62-42.81 95.62-95.62 95.62-95.62-42.81-95.62-95.62" fill="#fccea3"/>
     <path d="m1858.2 1512c0 52.81 42.81 95.62 95.62 95.62s95.62-42.81 95.62-95.62-42.81-95.62-95.62-95.62-95.62 42.81-95.62 95.62h-1.06c0-53.39 43.28-96.68 96.68-96.68 53.39 0 96.68 43.29 96.68 96.68s-43.29 96.68-96.68 96.68c-53.4 0-96.68-43.29-96.68-96.68" fill="#fbcda2"/>
     <path d="m1857.2 1512c0 53.39 43.28 96.68 96.68 96.68 53.39 0 96.68-43.29 96.68-96.68s-43.29-96.68-96.68-96.68c-53.4 0-96.68 43.29-96.68 96.68h-1.06c0-53.98 43.76-97.75 97.74-97.75s97.74 43.77 97.74 97.75-43.76 97.75-97.74 97.75-97.74-43.77-97.74-97.75" fill="#fbcda1"/>
     <path d="m1856.1 1512c0 53.98 43.76 97.75 97.74 97.75s97.74-43.77 97.74-97.75-43.76-97.75-97.74-97.75-97.74 43.77-97.74 97.75h-1.07c0-54.57 44.24-98.81 98.81-98.81 54.56 0 98.81 44.24 98.81 98.81s-44.25 98.81-98.81 98.81c-54.57 0-98.81-44.24-98.81-98.81" fill="#fbcca1"/>
     <path d="m1855 1512c0 54.57 44.24 98.81 98.81 98.81 54.56 0 98.81-44.24 98.81-98.81s-44.25-98.81-98.81-98.81c-54.57 0-98.81 44.24-98.81 98.81h-1.06c0-55.16 44.71-99.87 99.87-99.87 55.15 0 99.87 44.71 99.87 99.87s-44.72 99.87-99.87 99.87c-55.16 0-99.87-44.71-99.87-99.87" fill="#fbcca0"/>
     <path d="m1854 1512c0 55.16 44.71 99.87 99.87 99.87 55.15 0 99.87-44.71 99.87-99.87s-44.72-99.87-99.87-99.87c-55.16 0-99.87 44.71-99.87 99.87h-1.06c0-55.74 45.19-100.93 100.93-100.93s100.93 45.19 100.93 100.93-45.19 100.93-100.93 100.93-100.93-45.19-100.93-100.93" fill="#fbcb9f"/>
     <path d="m1852.9 1512c0 55.74 45.19 100.93 100.93 100.93s100.93-45.19 100.93-100.93-45.19-100.93-100.93-100.93-100.93 45.19-100.93 100.93h-1.06c0-56.33 45.66-102 101.99-102s101.99 45.67 101.99 102-45.66 101.99-101.99 101.99-101.99-45.66-101.99-101.99" fill="#fbcb9e"/>
     <path d="m1851.8 1512c0 56.33 45.66 101.99 101.99 101.99s101.99-45.66 101.99-101.99-45.66-102-101.99-102-101.99 45.67-101.99 102h-1.07c0-56.91 46.14-103.06 103.06-103.06 56.91 0 103.06 46.15 103.06 103.06s-46.15 103.05-103.06 103.05c-56.92 0-103.06-46.14-103.06-103.05" fill="#fbca9d"/>
     <path d="m1850.8 1512c0 56.91 46.14 103.05 103.06 103.05 56.91 0 103.06-46.14 103.06-103.05s-46.15-103.06-103.06-103.06c-56.92 0-103.06 46.15-103.06 103.06h-1.06c0-57.5 46.61-104.12 104.12-104.12 57.5 0 104.12 46.62 104.12 104.12s-46.62 104.12-104.12 104.12c-57.51 0-104.12-46.62-104.12-104.12" fill="#fbca9c"/>
     <path d="m1849.7 1512c0 57.5 46.61 104.12 104.12 104.12 57.5 0 104.12-46.62 104.12-104.12s-46.62-104.12-104.12-104.12c-57.51 0-104.12 46.62-104.12 104.12h-1.06c0-58.09 47.09-105.18 105.18-105.18s105.18 47.09 105.18 105.18-47.09 105.18-105.18 105.18-105.18-47.09-105.18-105.18" fill="#fbc99b"/>
     <path d="m1848.6 1512c0 58.09 47.09 105.18 105.18 105.18s105.18-47.09 105.18-105.18-47.09-105.18-105.18-105.18-105.18 47.09-105.18 105.18h-1.06c0-58.68 47.56-106.25 106.24-106.25 58.67 0 106.24 47.57 106.24 106.25s-47.57 106.24-106.24 106.24c-58.68 0-106.24-47.56-106.24-106.24" fill="#fbc99b"/>
     <path d="m1847.6 1512c0 58.68 47.56 106.24 106.24 106.24 58.67 0 106.24-47.56 106.24-106.24s-47.57-106.25-106.24-106.25c-58.68 0-106.24 47.57-106.24 106.25h-1.07c0-59.26 48.05-107.31 107.31-107.31s107.31 48.05 107.31 107.31-48.05 107.3-107.31 107.3-107.31-48.04-107.31-107.3" fill="#fbc89a"/>
     <path d="m1846.5 1512c0 59.26 48.05 107.3 107.31 107.3s107.31-48.04 107.31-107.3-48.05-107.31-107.31-107.31-107.31 48.05-107.31 107.31h-1.06c0-59.85 48.52-108.37 108.37-108.37s108.37 48.52 108.37 108.37-48.52 108.37-108.37 108.37-108.37-48.52-108.37-108.37" fill="#fbc899"/>
     <path d="m1845.5 1512c0 59.85 48.52 108.37 108.37 108.37s108.37-48.52 108.37-108.37-48.52-108.37-108.37-108.37-108.37 48.52-108.37 108.37h-1.06c0-60.44 48.99-109.43 109.43-109.43s109.43 48.99 109.43 109.43-48.99 109.43-109.43 109.43-109.43-48.99-109.43-109.43" fill="#fbc798"/>
     <path d="m1844.4 1512c0 60.44 48.99 109.43 109.43 109.43s109.43-48.99 109.43-109.43-48.99-109.43-109.43-109.43-109.43 48.99-109.43 109.43h-1.06c0-61.02 49.46-110.5 110.49-110.5 61.02 0 110.49 49.48 110.49 110.5s-49.47 110.49-110.49 110.49c-61.03 0-110.49-49.47-110.49-110.49" fill="#fbc797"/>
     <path d="m1843.3 1512c0 61.02 49.46 110.49 110.49 110.49 61.02 0 110.49-49.47 110.49-110.49s-49.47-110.5-110.49-110.5c-61.03 0-110.49 49.48-110.49 110.5h-1.07c0-61.61 49.95-111.56 111.56-111.56s111.56 49.95 111.56 111.56-49.95 111.55-111.56 111.55-111.56-49.94-111.56-111.55" fill="#fbc796"/>
     <path d="m1842.3 1512c0 61.61 49.95 111.55 111.56 111.55s111.56-49.94 111.56-111.55-49.95-111.56-111.56-111.56-111.56 49.95-111.56 111.56h-1.06c0-62.2 50.42-112.62 112.62-112.62 62.19 0 112.62 50.42 112.62 112.62 0 62.19-50.43 112.62-112.62 112.62-62.2 0-112.62-50.43-112.62-112.62" fill="#fbc795"/>
     <path d="m1841.2 1512c0 62.19 50.42 112.62 112.62 112.62 62.19 0 112.62-50.43 112.62-112.62 0-62.2-50.43-112.62-112.62-112.62-62.2 0-112.62 50.42-112.62 112.62h-1.06c0-62.78 50.9-113.68 113.68-113.68s113.68 50.9 113.68 113.68-50.9 113.68-113.68 113.68-113.68-50.9-113.68-113.68" fill="#fbc594"/>
     <path d="m1840.2 1512c0 62.78 50.9 113.68 113.68 113.68s113.68-50.9 113.68-113.68-50.9-113.68-113.68-113.68-113.68 50.9-113.68 113.68h-1.06c0-63.37 51.37-114.75 114.74-114.75s114.74 51.38 114.74 114.75-51.37 114.74-114.74 114.74-114.74-51.37-114.74-114.74" fill="#fbc593"/>
     <path d="m1839.1 1512c0 63.37 51.37 114.74 114.74 114.74s114.74-51.37 114.74-114.74-51.37-114.75-114.74-114.75-114.74 51.38-114.74 114.75h-1.07c0-63.96 51.85-115.81 115.81-115.81s115.81 51.85 115.81 115.81-51.85 115.8-115.81 115.8-115.81-51.84-115.81-115.8" fill="#fbc593"/>
     <path d="m1838 1512c0 63.96 51.85 115.8 115.81 115.8s115.81-51.84 115.81-115.8-51.85-115.81-115.81-115.81-115.81 51.85-115.81 115.81h-1.06c0-64.54 52.33-116.87 116.87-116.87s116.87 52.33 116.87 116.87-52.33 116.87-116.87 116.87-116.87-52.33-116.87-116.87" fill="#fbc492"/>
     <path d="m1837 1512c0 64.54 52.33 116.87 116.87 116.87s116.87-52.33 116.87-116.87-52.33-116.87-116.87-116.87-116.87 52.33-116.87 116.87h-1.06c0-65.13 52.8-117.93 117.93-117.93s117.93 52.8 117.93 117.93-52.8 117.93-117.93 117.93-117.93-52.8-117.93-117.93" fill="#fbc491"/>
     <path d="m1835.9 1512c0 65.13 52.8 117.93 117.93 117.93s117.93-52.8 117.93-117.93-52.8-117.93-117.93-117.93-117.93 52.8-117.93 117.93h-1.06c0-65.72 53.27-119 118.99-119s118.99 53.28 118.99 119-53.27 118.99-118.99 118.99-118.99-53.27-118.99-118.99" fill="#fbc390"/>
     <path d="m1834.8 1512c0 65.72 53.27 118.99 118.99 118.99s118.99-53.27 118.99-118.99-53.27-119-118.99-119-118.99 53.28-118.99 119h-1.07c0-66.31 53.75-120.06 120.06-120.06 66.3 0 120.06 53.75 120.06 120.06 0 66.3-53.76 120.05-120.06 120.05-66.31 0-120.06-53.75-120.06-120.05" fill="#fbc38f"/>
     <path d="m1833.8 1512c0 66.3 53.75 120.05 120.06 120.05 66.3 0 120.06-53.75 120.06-120.05 0-66.31-53.76-120.06-120.06-120.06-66.31 0-120.06 53.75-120.06 120.06h-1.06c0-66.89 54.23-121.12 121.12-121.12s121.12 54.23 121.12 121.12-54.23 121.12-121.12 121.12-121.12-54.23-121.12-121.12" fill="#fbc28e"/>
     <path d="m1832.7 1512c0 66.89 54.23 121.12 121.12 121.12s121.12-54.23 121.12-121.12-54.23-121.12-121.12-121.12-121.12 54.23-121.12 121.12h-1.06c0-67.48 54.7-122.18 122.18-122.18 67.47 0 122.18 54.7 122.18 122.18s-54.71 122.18-122.18 122.18c-67.48 0-122.18-54.7-122.18-122.18" fill="#fbc28d"/>
     <path d="m1831.6 1512c0 67.48 54.7 122.18 122.18 122.18 67.47 0 122.18-54.7 122.18-122.18s-54.71-122.18-122.18-122.18c-67.48 0-122.18 54.7-122.18 122.18h-1.06c0-68.06 55.18-123.25 123.24-123.25s123.24 55.19 123.24 123.25-55.18 123.24-123.24 123.24-123.24-55.18-123.24-123.24" fill="#fbc18c"/>
     <path d="m1830.6 1512c0 68.06 55.18 123.24 123.24 123.24s123.24-55.18 123.24-123.24-55.18-123.25-123.24-123.25-123.24 55.19-123.24 123.25h-1.07c0-68.65 55.66-124.31 124.31-124.31s124.31 55.66 124.31 124.31-55.66 124.3-124.31 124.3-124.31-55.65-124.31-124.3" fill="#fbc18b"/>
     <path d="m1829.5 1512c0 68.65 55.66 124.3 124.31 124.3s124.31-55.65 124.31-124.3-55.66-124.31-124.31-124.31-124.31 55.66-124.31 124.31h-1.06c0-69.24 56.13-125.37 125.37-125.37s125.37 56.13 125.37 125.37-56.13 125.37-125.37 125.37-125.37-56.13-125.37-125.37" fill="#fac08a"/>
     <path d="m1828.5 1512c0 69.24 56.13 125.37 125.37 125.37s125.37-56.13 125.37-125.37-56.13-125.37-125.37-125.37-125.37 56.13-125.37 125.37h-1.06c0-69.82 56.6-126.43 126.43-126.43 69.82 0 126.43 56.61 126.43 126.43s-56.61 126.43-126.43 126.43c-69.83 0-126.43-56.61-126.43-126.43" fill="#fabf89"/>
     <path d="m1827.4 1512c0 69.82 56.6 126.43 126.43 126.43 69.82 0 126.43-56.61 126.43-126.43s-56.61-126.43-126.43-126.43c-69.83 0-126.43 56.61-126.43 126.43h-1.06c0-70.41 57.08-127.5 127.49-127.5s127.49 57.09 127.49 127.5-57.08 127.49-127.49 127.49-127.49-57.08-127.49-127.49" fill="#fabf89"/>
     <path d="m1826.3 1512c0 70.41 57.08 127.49 127.49 127.49s127.49-57.08 127.49-127.49-57.08-127.5-127.49-127.5-127.49 57.09-127.49 127.5h-1.07c0-71 57.56-128.56 128.56-128.56 70.99 0 128.56 57.56 128.56 128.56s-57.57 128.55-128.56 128.55c-71 0-128.56-57.55-128.56-128.55" fill="#fabe88"/>
     <path d="m1825.3 1512c0 71 57.56 128.55 128.56 128.55 70.99 0 128.56-57.55 128.56-128.55s-57.57-128.56-128.56-128.56c-71 0-128.56 57.56-128.56 128.56h-1.06c0-71.59 58.03-129.62 129.62-129.62 71.58 0 129.62 58.03 129.62 129.62s-58.04 129.62-129.62 129.62c-71.59 0-129.62-58.03-129.62-129.62" fill="#fabe87"/>
     <path d="m1824.2 1512c0 71.59 58.03 129.62 129.62 129.62 71.58 0 129.62-58.03 129.62-129.62s-58.04-129.62-129.62-129.62c-71.59 0-129.62 58.03-129.62 129.62h-1.06c0-72.17 58.51-130.68 130.68-130.68s130.68 58.51 130.68 130.68-58.51 130.68-130.68 130.68-130.68-58.51-130.68-130.68" fill="#fabd86"/>
     <path d="m1823.2 1512c0 72.17 58.51 130.68 130.68 130.68s130.68-58.51 130.68-130.68-58.51-130.68-130.68-130.68-130.68 58.51-130.68 130.68h-1.06c0-72.76 58.98-131.75 131.74-131.75s131.74 58.99 131.74 131.75-58.98 131.74-131.74 131.74-131.74-58.98-131.74-131.74" fill="#fabd85"/>
     <path d="m1822.1 1512c0 72.76 58.98 131.74 131.74 131.74s131.74-58.98 131.74-131.74-58.98-131.75-131.74-131.75-131.74 58.99-131.74 131.75h-1.07c0-73.34 59.46-132.81 132.81-132.81 73.34 0 132.81 59.47 132.81 132.81s-59.47 132.8-132.81 132.8c-73.35 0-132.81-59.46-132.81-132.8" fill="#fabc84"/>
     <path d="m1821 1512c0 73.34 59.46 132.8 132.81 132.8 73.34 0 132.81-59.46 132.81-132.8s-59.47-132.81-132.81-132.81c-73.35 0-132.81 59.47-132.81 132.81h-1.06c0-73.93 59.93-133.87 133.87-133.87 73.93 0 133.87 59.94 133.87 133.87s-59.94 133.87-133.87 133.87c-73.94 0-133.87-59.94-133.87-133.87" fill="#fabc83"/>
     <path d="m1820 1512c0 73.93 59.93 133.87 133.87 133.87 73.93 0 133.87-59.94 133.87-133.87s-59.94-133.87-133.87-133.87c-73.94 0-133.87 59.94-133.87 133.87h-1.06c0-74.52 60.41-134.93 134.93-134.93s134.93 60.41 134.93 134.93-60.41 134.93-134.93 134.93-134.93-60.41-134.93-134.93" fill="#fabb82"/>
     <path d="m1818.9 1512c0 74.52 60.41 134.93 134.93 134.93s134.93-60.41 134.93-134.93-60.41-134.93-134.93-134.93-134.93 60.41-134.93 134.93h-1.06c0-75.11 60.88-136 135.99-136 75.1 0 135.99 60.89 135.99 136s-60.89 135.99-135.99 135.99c-75.11 0-135.99-60.88-135.99-135.99" fill="#faba81"/>
     <path d="m1817.8 1512c0 75.11 60.88 135.99 135.99 135.99 75.1 0 135.99-60.88 135.99-135.99s-60.89-136-135.99-136c-75.11 0-135.99 60.89-135.99 136h-1.07c0-75.69 61.37-137.06 137.06-137.06s137.06 61.37 137.06 137.06-61.37 137.05-137.06 137.05-137.06-61.36-137.06-137.05" fill="#faba80"/>
     <path d="m1816.8 1512c0 75.69 61.37 137.05 137.06 137.05s137.06-61.36 137.06-137.05-61.37-137.06-137.06-137.06-137.06 61.37-137.06 137.06h-1.06c0-76.28 61.84-138.12 138.12-138.12s138.12 61.84 138.12 138.12-61.84 138.12-138.12 138.12-138.12-61.84-138.12-138.12" fill="#fab97f"/>
     <path d="m1815.7 1512c0 76.28 61.84 138.12 138.12 138.12s138.12-61.84 138.12-138.12-61.84-138.12-138.12-138.12-138.12 61.84-138.12 138.12h-1.06c0-76.87 62.31-139.18 139.18-139.18s139.18 62.31 139.18 139.18-62.31 139.18-139.18 139.18-139.18-62.31-139.18-139.18" fill="#fab97e"/>
     <path d="m1814.6 1512c0 76.87 62.31 139.18 139.18 139.18s139.18-62.31 139.18-139.18-62.31-139.18-139.18-139.18-139.18 62.31-139.18 139.18h-1.06c0-77.45 62.79-140.25 140.24-140.25s140.24 62.8 140.24 140.25-62.79 140.24-140.24 140.24-140.24-62.79-140.24-140.24" fill="#fab87d"/>
     <path d="m1813.6 1512c0 77.45 62.79 140.24 140.24 140.24s140.24-62.79 140.24-140.24-62.79-140.25-140.24-140.25-140.24 62.8-140.24 140.25h-1.07c0-78.04 63.27-141.31 141.31-141.31s141.31 63.27 141.31 141.31-63.27 141.3-141.31 141.3-141.31-63.26-141.31-141.3" fill="#fab87d"/>
     <path d="m1812.5 1512c0 78.04 63.27 141.3 141.31 141.3s141.31-63.26 141.31-141.3-63.27-141.31-141.31-141.31-141.31 63.27-141.31 141.31h-1.06c0-78.63 63.74-142.37 142.37-142.37 78.62 0 142.37 63.74 142.37 142.37 0 78.62-63.75 142.37-142.37 142.37-78.63 0-142.37-63.75-142.37-142.37" fill="#fab77c"/>
     <path d="m1811.5 1512c0 78.62 63.74 142.37 142.37 142.37 78.62 0 142.37-63.75 142.37-142.37 0-78.63-63.75-142.37-142.37-142.37-78.63 0-142.37 63.74-142.37 142.37h-1.06c0-79.21 64.22-143.43 143.43-143.43s143.43 64.22 143.43 143.43-64.22 143.43-143.43 143.43-143.43-64.22-143.43-143.43" fill="#fab67b"/>
     <path d="m1810.4 1512c0 79.21 64.22 143.43 143.43 143.43s143.43-64.22 143.43-143.43-64.22-143.43-143.43-143.43-143.43 64.22-143.43 143.43h-1.06c0-79.8 64.69-144.5 144.49-144.5s144.49 64.7 144.49 144.5-64.69 144.49-144.49 144.49-144.49-64.69-144.49-144.49" fill="#fab67a"/>
     <path d="m1809.3 1512c0 79.8 64.69 144.49 144.49 144.49s144.49-64.69 144.49-144.49-64.69-144.5-144.49-144.5-144.49 64.7-144.49 144.5h-1.07c0-80.39 65.17-145.56 145.56-145.56 80.38 0 145.56 65.17 145.56 145.56s-65.18 145.55-145.56 145.55c-80.39 0-145.56-65.16-145.56-145.55" fill="#fab579"/>
     <path d="m1808.3 1512c0 80.39 65.17 145.55 145.56 145.55 80.38 0 145.56-65.16 145.56-145.55s-65.18-145.56-145.56-145.56c-80.39 0-145.56 65.17-145.56 145.56h-1.06c0-80.97 65.65-146.62 146.62-146.62s146.62 65.65 146.62 146.62-65.65 146.62-146.62 146.62-146.62-65.65-146.62-146.62" fill="#fab578"/>
     <path d="m1807.2 1512c0 80.97 65.65 146.62 146.62 146.62s146.62-65.65 146.62-146.62-65.65-146.62-146.62-146.62-146.62 65.65-146.62 146.62h-1.06c0-81.56 66.12-147.68 147.68-147.68s147.68 66.12 147.68 147.68-66.12 147.68-147.68 147.68-147.68-66.12-147.68-147.68" fill="#fab477"/>
     <path d="m1806.2 1512c0 81.56 66.12 147.68 147.68 147.68s147.68-66.12 147.68-147.68-66.12-147.68-147.68-147.68-147.68 66.12-147.68 147.68h-1.06c0-82.15 66.59-148.75 148.74-148.75s148.74 66.6 148.74 148.75-66.59 148.74-148.74 148.74-148.74-66.59-148.74-148.74" fill="#fab476"/>
     <path d="m1805.1 1512c0 82.15 66.59 148.74 148.74 148.74s148.74-66.59 148.74-148.74-66.59-148.75-148.74-148.75-148.74 66.6-148.74 148.75h-1.07c0-82.73 67.07-149.81 149.81-149.81 82.73 0 149.81 67.08 149.81 149.81s-67.08 149.8-149.81 149.8c-82.74 0-149.81-67.07-149.81-149.8" fill="#fab475"/>
     <path d="m1804 1512c0 82.73 67.07 149.8 149.81 149.8 82.73 0 149.81-67.07 149.81-149.8s-67.08-149.81-149.81-149.81c-82.74 0-149.81 67.08-149.81 149.81h-1.06c0-83.32 67.55-150.87 150.87-150.87s150.87 67.55 150.87 150.87-67.55 150.87-150.87 150.87-150.87-67.55-150.87-150.87" fill="#f9b374"/>
     <path d="m1803 1512c0 83.32 67.55 150.87 150.87 150.87s150.87-67.55 150.87-150.87-67.55-150.87-150.87-150.87-150.87 67.55-150.87 150.87h-1.06c0-83.91 68.02-151.93 151.93-151.93 83.9 0 151.93 68.02 151.93 151.93s-68.03 151.93-151.93 151.93c-83.91 0-151.93-68.02-151.93-151.93" fill="#f9b373"/>
     <path d="m1801.9 1512c0 83.91 68.02 151.93 151.93 151.93 83.9 0 151.93-68.02 151.93-151.93s-68.03-151.93-151.93-151.93c-83.91 0-151.93 68.02-151.93 151.93h-1.06c0-84.49 68.5-153 152.99-153s152.99 68.51 152.99 153-68.5 152.99-152.99 152.99-152.99-68.5-152.99-152.99" fill="#f9b272"/>
     <path d="m1800.8 1512c0 84.49 68.5 152.99 152.99 152.99s152.99-68.5 152.99-152.99-68.5-153-152.99-153-152.99 68.51-152.99 153h-1.07c0-85.08 68.98-154.06 154.06-154.06s154.06 68.98 154.06 154.06-68.98 154.05-154.06 154.05-154.06-68.97-154.06-154.05" fill="#f9b171"/>
     <path d="m1799.8 1512c0 85.08 68.98 154.05 154.06 154.05s154.06-68.97 154.06-154.05-68.98-154.06-154.06-154.06-154.06 68.98-154.06 154.06h-1.06c0-85.67 69.45-155.12 155.12-155.12s155.12 69.45 155.12 155.12-69.45 155.12-155.12 155.12-155.12-69.45-155.12-155.12" fill="#f9b171"/>
     <path d="m1798.7 1512c0 85.67 69.45 155.12 155.12 155.12s155.12-69.45 155.12-155.12-69.45-155.12-155.12-155.12-155.12 69.45-155.12 155.12h-1.06c0-86.25 69.92-156.18 156.18-156.18 86.25 0 156.18 69.93 156.18 156.18s-69.93 156.18-156.18 156.18c-86.26 0-156.18-69.93-156.18-156.18" fill="#f9b070"/>
     <path d="m1797.6 1512c0 86.25 69.92 156.18 156.18 156.18 86.25 0 156.18-69.93 156.18-156.18s-69.93-156.18-156.18-156.18c-86.26 0-156.18 69.93-156.18 156.18h-1.06c0-86.84 70.4-157.25 157.24-157.25s157.24 70.41 157.24 157.25-70.4 157.24-157.24 157.24-157.24-70.4-157.24-157.24" fill="#f9b070"/>
     <path d="m1796.6 1512c0 86.84 70.4 157.24 157.24 157.24s157.24-70.4 157.24-157.24-70.4-157.25-157.24-157.25-157.24 70.41-157.24 157.25h-1.07c0-87.43 70.88-158.31 158.31-158.31s158.31 70.88 158.31 158.31-70.88 158.3-158.31 158.3-158.31-70.87-158.31-158.3" fill="#f9af6e"/>
     <path d="m1795.5 1512c0 87.43 70.88 158.3 158.31 158.3s158.31-70.87 158.31-158.3-70.88-158.31-158.31-158.31-158.31 70.88-158.31 158.31h-1.06c0-88.02 71.35-159.37 159.37-159.37 88.01 0 159.37 71.35 159.37 159.37s-71.36 159.37-159.37 159.37c-88.02 0-159.37-71.35-159.37-159.37" fill="#f9ae6d"/>
     <path d="m1794.5 1512c0 88.02 71.35 159.37 159.37 159.37 88.01 0 159.37-71.35 159.37-159.37s-71.36-159.37-159.37-159.37c-88.02 0-159.37 71.35-159.37 159.37h-1.06c0-88.6 71.83-160.43 160.43-160.43s160.43 71.83 160.43 160.43-71.83 160.43-160.43 160.43-160.43-71.83-160.43-160.43" fill="#f9ae6c"/>
     <path d="m1793.4 1512c0 88.6 71.83 160.43 160.43 160.43s160.43-71.83 160.43-160.43-71.83-160.43-160.43-160.43-160.43 71.83-160.43 160.43h-1.06c0-89.19 72.3-161.5 161.49-161.5s161.49 72.31 161.49 161.5-72.3 161.49-161.49 161.49-161.49-72.3-161.49-161.49" fill="#f9ad6b"/>
     <path d="m1792.3 1512c0 89.19 72.3 161.49 161.49 161.49s161.49-72.3 161.49-161.49-72.3-161.5-161.49-161.5-161.49 72.31-161.49 161.5h-1.07c0-89.77 72.78-162.56 162.56-162.56 89.77 0 162.56 72.79 162.56 162.56s-72.79 162.55-162.56 162.55c-89.78 0-162.56-72.78-162.56-162.55" fill="#f9ad6a"/>
     <path d="m1791.3 1512c0 89.77 72.78 162.55 162.56 162.55 89.77 0 162.56-72.78 162.56-162.55s-72.79-162.56-162.56-162.56c-89.78 0-162.56 72.79-162.56 162.56h-1.06c0-90.36 73.25-163.62 163.62-163.62 90.36 0 163.62 73.26 163.62 163.62s-73.26 163.62-163.62 163.62c-90.37 0-163.62-73.26-163.62-163.62" fill="#f9ac69"/>
     <path d="m1790.2 1512c0 90.36 73.25 163.62 163.62 163.62 90.36 0 163.62-73.26 163.62-163.62s-73.26-163.62-163.62-163.62c-90.37 0-163.62 73.26-163.62 163.62h-1.06c0-90.95 73.73-164.68 164.68-164.68s164.68 73.73 164.68 164.68-73.73 164.68-164.68 164.68-164.68-73.73-164.68-164.68" fill="#f9ab68"/>
     <path d="m1789.2 1512c0 90.95 73.73 164.68 164.68 164.68s164.68-73.73 164.68-164.68-73.73-164.68-164.68-164.68-164.68 73.73-164.68 164.68h-1.06c0-91.54 74.2-165.74 165.74-165.74 91.53 0 165.74 74.2 165.74 165.74 0 91.53-74.21 165.74-165.74 165.74-91.54 0-165.74-74.21-165.74-165.74" fill="#f9ab68"/>
     <path d="m1788.1 1512c0 91.53 74.2 165.74 165.74 165.74 91.53 0 165.74-74.21 165.74-165.74 0-91.54-74.21-165.74-165.74-165.74-91.54 0-165.74 74.2-165.74 165.74h-1.07c0-92.12 74.69-166.81 166.81-166.81s166.81 74.69 166.81 166.81-74.69 166.8-166.81 166.8-166.81-74.68-166.81-166.8" fill="#f9aa67"/>
     <path d="m1787 1512c0 92.12 74.69 166.8 166.81 166.8s166.81-74.68 166.81-166.8-74.69-166.81-166.81-166.81-166.81 74.69-166.81 166.81h-1.06c0-92.71 75.16-167.87 167.87-167.87s167.87 75.16 167.87 167.87-75.16 167.87-167.87 167.87-167.87-75.16-167.87-167.87" fill="#f9aa66"/>
     <path d="m1786 1512c0 92.71 75.16 167.87 167.87 167.87s167.87-75.16 167.87-167.87-75.16-167.87-167.87-167.87-167.87 75.16-167.87 167.87h-1.06c0-93.3 75.63-168.93 168.93-168.93s168.93 75.63 168.93 168.93-75.63 168.93-168.93 168.93-168.93-75.63-168.93-168.93" fill="#f9a965"/>
     <path d="m1784.9 1512c0 93.3 75.63 168.93 168.93 168.93s168.93-75.63 168.93-168.93-75.63-168.93-168.93-168.93-168.93 75.63-168.93 168.93h-1.06c0-93.88 76.11-169.99 169.99-169.99s169.99 76.11 169.99 169.99-76.11 169.99-169.99 169.99-169.99-76.11-169.99-169.99" fill="#f9a964"/>
     <path d="m1783.8 1512c0 93.88 76.11 169.99 169.99 169.99s169.99-76.11 169.99-169.99-76.11-169.99-169.99-169.99-169.99 76.11-169.99 169.99h-1.07c0-94.47 76.59-171.06 171.06-171.06s171.06 76.59 171.06 171.06-76.59 171.05-171.06 171.05-171.06-76.58-171.06-171.05" fill="#f9a963"/>
     <path d="m1782.8 1512c0 94.47 76.59 171.05 171.06 171.05s171.06-76.58 171.06-171.05-76.59-171.06-171.06-171.06-171.06 76.59-171.06 171.06h-1.06c0-95.06 77.06-172.12 172.12-172.12 95.05 0 172.12 77.06 172.12 172.12 0 95.05-77.07 172.12-172.12 172.12-95.06 0-172.12-77.07-172.12-172.12" fill="#f9a862"/>
     <path d="m1781.7 1512c0 95.05 77.06 172.12 172.12 172.12 95.05 0 172.12-77.07 172.12-172.12 0-95.06-77.07-172.12-172.12-172.12-95.06 0-172.12 77.06-172.12 172.12h-1.06c0-95.64 77.53-173.18 173.18-173.18 95.64 0 173.18 77.54 173.18 173.18s-77.54 173.18-173.18 173.18c-95.65 0-173.18-77.54-173.18-173.18" fill="#f9a862"/>
     <path d="m1780.6 1512c0 95.64 77.53 173.18 173.18 173.18 95.64 0 173.18-77.54 173.18-173.18s-77.54-173.18-173.18-173.18c-95.65 0-173.18 77.54-173.18 173.18h-1.06c0-96.23 78.01-174.24 174.24-174.24s174.24 78.01 174.24 174.24-78.01 174.24-174.24 174.24-174.24-78.01-174.24-174.24" fill="#f9a761"/>
     <path d="m1779.6 1512c0 96.23 78.01 174.24 174.24 174.24s174.24-78.01 174.24-174.24-78.01-174.24-174.24-174.24-174.24 78.01-174.24 174.24h-1.07c0-96.82 78.49-175.31 175.31-175.31 96.81 0 175.31 78.49 175.31 175.31s-78.5 175.3-175.31 175.3c-96.82 0-175.31-78.48-175.31-175.3" fill="#f9a660"/>
     <path d="m1778.5 1512c0 96.82 78.49 175.3 175.31 175.3 96.81 0 175.31-78.48 175.31-175.3s-78.5-175.31-175.31-175.31c-96.82 0-175.31 78.49-175.31 175.31h-1.06c0-97.4 78.97-176.37 176.37-176.37s176.37 78.97 176.37 176.37-78.97 176.37-176.37 176.37-176.37-78.97-176.37-176.37" fill="#f9a65f"/>
     <path d="m1777.5 1512c0 97.4 78.97 176.37 176.37 176.37s176.37-78.97 176.37-176.37-78.97-176.37-176.37-176.37-176.37 78.97-176.37 176.37h-1.06c0-97.99 79.44-177.43 177.43-177.43s177.43 79.44 177.43 177.43-79.44 177.43-177.43 177.43-177.43-79.44-177.43-177.43" fill="#f8a55e"/>
     <path d="m1776.4 1512c0 97.99 79.44 177.43 177.43 177.43s177.43-79.44 177.43-177.43-79.44-177.43-177.43-177.43-177.43 79.44-177.43 177.43h-1.06c0-98.58 79.91-178.49 178.49-178.49s178.49 79.91 178.49 178.49-79.91 178.49-178.49 178.49-178.49-79.91-178.49-178.49" fill="#f8a45d"/>
     <path d="m1775.3 1512c0 98.58 79.91 178.49 178.49 178.49s178.49-79.91 178.49-178.49-79.91-178.49-178.49-178.49-178.49 79.91-178.49 178.49h-1.06c0-99.16 80.38-179.56 179.55-179.56 99.16 0 179.55 80.4 179.55 179.56s-80.39 179.55-179.55 179.55c-99.17 0-179.55-80.39-179.55-179.55" fill="#f8a45c"/>
     <path d="m1774.3 1512c0 99.16 80.38 179.55 179.55 179.55 99.16 0 179.55-80.39 179.55-179.55s-80.39-179.56-179.55-179.56c-99.17 0-179.55 80.4-179.55 179.56h-1.07c0-99.75 80.87-180.62 180.62-180.62s180.62 80.87 180.62 180.62-80.87 180.62-180.62 180.62-180.62-80.87-180.62-180.62" fill="#f8a35c"/>
     <path d="m1773.2 1512c0 99.75 80.87 180.62 180.62 180.62s180.62-80.87 180.62-180.62-80.87-180.62-180.62-180.62-180.62 80.87-180.62 180.62h-1.06c0-100.34 81.34-181.68 181.68-181.68 100.33 0 181.68 81.34 181.68 181.68s-81.35 181.68-181.68 181.68c-100.34 0-181.68-81.34-181.68-181.68" fill="#f8a25b"/>
     <path d="m1772.2 1512c0 100.34 81.34 181.68 181.68 181.68 100.33 0 181.68-81.34 181.68-181.68s-81.35-181.68-181.68-181.68c-100.34 0-181.68 81.34-181.68 181.68h-1.06c0-100.92 81.82-182.74 182.74-182.74s182.74 81.82 182.74 182.74-81.82 182.74-182.74 182.74-182.74-81.82-182.74-182.74" fill="#f8a25a"/>
     <path d="m1771.1 1512c0 100.92 81.82 182.74 182.74 182.74s182.74-81.82 182.74-182.74-81.82-182.74-182.74-182.74-182.74 81.82-182.74 182.74h-1.06c0-101.51 82.29-183.81 183.8-183.81s183.8 82.3 183.8 183.81-82.29 183.8-183.8 183.8-183.8-82.29-183.8-183.8" fill="#f8a159"/>
     <path d="m1770 1512c0 101.51 82.29 183.8 183.8 183.8s183.8-82.29 183.8-183.8-82.29-183.81-183.8-183.81-183.8 82.3-183.8 183.81h-1.07c0-102.1 82.77-184.87 184.87-184.87s184.87 82.77 184.87 184.87-82.77 184.87-184.87 184.87-184.87-82.77-184.87-184.87" fill="#f8a158"/>
     <path d="m1769 1512c0 102.1 82.77 184.87 184.87 184.87s184.87-82.77 184.87-184.87-82.77-184.87-184.87-184.87-184.87 82.77-184.87 184.87h-1.06c0-102.68 83.24-185.93 185.93-185.93 102.68 0 185.93 83.25 185.93 185.93s-83.25 185.93-185.93 185.93c-102.69 0-185.93-83.25-185.93-185.93" fill="#f8a157"/>
     <path d="m1767.9 1512c0 102.68 83.24 185.93 185.93 185.93 102.68 0 185.93-83.25 185.93-185.93s-83.25-185.93-185.93-185.93c-102.69 0-185.93 83.25-185.93 185.93h-1.06c0-103.27 83.72-186.99 186.99-186.99s186.99 83.72 186.99 186.99-83.72 186.99-186.99 186.99-186.99-83.72-186.99-186.99" fill="#f8a057"/>
     <path d="m1766.8 1512c0 103.27 83.72 186.99 186.99 186.99s186.99-83.72 186.99-186.99-83.72-186.99-186.99-186.99-186.99 83.72-186.99 186.99h-1.06c0-103.86 84.19-188.06 188.05-188.06s188.05 84.2 188.05 188.06-84.19 188.05-188.05 188.05-188.05-84.19-188.05-188.05" fill="#f8a055"/>
     <path d="m1765.8 1512c0 103.86 84.19 188.05 188.05 188.05s188.05-84.19 188.05-188.05-84.19-188.06-188.05-188.06-188.05 84.2-188.05 188.06h-1.07c0-104.45 84.67-189.12 189.12-189.12 104.44 0 189.12 84.67 189.12 189.12 0 104.44-84.68 189.12-189.12 189.12-104.45 0-189.12-84.68-189.12-189.12" fill="#f89f54"/>
     <path d="m1764.7 1512c0 104.44 84.67 189.12 189.12 189.12 104.44 0 189.12-84.68 189.12-189.12 0-104.45-84.68-189.12-189.12-189.12-104.45 0-189.12 84.67-189.12 189.12h-1.06c0-105.03 85.15-190.18 190.18-190.18s190.18 85.15 190.18 190.18-85.15 190.18-190.18 190.18-190.18-85.15-190.18-190.18" fill="#f89e53"/>
     <path d="m1763.6 1512c0 105.03 85.15 190.18 190.18 190.18s190.18-85.15 190.18-190.18-85.15-190.18-190.18-190.18-190.18 85.15-190.18 190.18h-1.06c0-105.62 85.62-191.24 191.24-191.24s191.24 85.62 191.24 191.24-85.62 191.24-191.24 191.24-191.24-85.62-191.24-191.24" fill="#f89e53"/>
     <path d="m1762.6 1512c0 105.62 85.62 191.24 191.24 191.24s191.24-85.62 191.24-191.24-85.62-191.24-191.24-191.24-191.24 85.62-191.24 191.24h-1.06c0-106.2 86.1-192.31 192.3-192.31s192.3 86.11 192.3 192.31-86.1 192.3-192.3 192.3-192.3-86.1-192.3-192.3" fill="#f89d52"/>
     <path d="m1761.5 1512c0 106.2 86.1 192.3 192.3 192.3s192.3-86.1 192.3-192.3-86.1-192.31-192.3-192.31-192.3 86.11-192.3 192.31h-1.07c0-106.79 86.58-193.37 193.37-193.37s193.37 86.58 193.37 193.37-86.58 193.36-193.37 193.36-193.37-86.57-193.37-193.36" fill="#f89c51"/>
     <path d="m1760.5 1512c0 106.79 86.58 193.36 193.37 193.36s193.37-86.57 193.37-193.36-86.58-193.37-193.37-193.37-193.37 86.58-193.37 193.37h-1.06c0-107.38 87.05-194.43 194.43-194.43s194.43 87.05 194.43 194.43-87.05 194.43-194.43 194.43-194.43-87.05-194.43-194.43" fill="#f89c50"/>
     <path d="m1759.4 1512c0 107.38 87.05 194.43 194.43 194.43s194.43-87.05 194.43-194.43-87.05-194.43-194.43-194.43-194.43 87.05-194.43 194.43h-1.06c0-107.97 87.52-195.49 195.49-195.49 107.96 0 195.49 87.52 195.49 195.49 0 107.96-87.53 195.49-195.49 195.49-107.97 0-195.49-87.53-195.49-195.49" fill="#f89b4f"/>
     <path d="m1758.3 1512c0 107.96 87.52 195.49 195.49 195.49 107.96 0 195.49-87.53 195.49-195.49 0-107.97-87.53-195.49-195.49-195.49-107.97 0-195.49 87.52-195.49 195.49h-1.06c0-108.55 88-196.56 196.55-196.56s196.55 88.01 196.55 196.56-88 196.55-196.55 196.55-196.55-88-196.55-196.55" fill="#f89a4f"/>
     <path d="m1757.3 1512c0 108.55 88 196.55 196.55 196.55s196.55-88 196.55-196.55-88-196.56-196.55-196.56-196.55 88.01-196.55 196.56h-1.07c0-109.14 88.48-197.62 197.62-197.62 109.13 0 197.62 88.48 197.62 197.62s-88.49 197.61-197.62 197.61c-109.14 0-197.62-88.47-197.62-197.61" fill="#f89a4e"/>
     <path d="m1756.2 1512c0 109.14 88.48 197.61 197.62 197.61 109.13 0 197.62-88.47 197.62-197.61s-88.49-197.62-197.62-197.62c-109.14 0-197.62 88.48-197.62 197.62h-1.06c0-109.73 88.95-198.68 198.68-198.68 109.72 0 198.68 88.95 198.68 198.68s-88.96 198.68-198.68 198.68c-109.73 0-198.68-88.95-198.68-198.68" fill="#f8994d"/>
     <path d="m1755.2 1512c0 109.73 88.95 198.68 198.68 198.68 109.72 0 198.68-88.95 198.68-198.68s-88.96-198.68-198.68-198.68c-109.73 0-198.68 88.95-198.68 198.68h-1.06c0-110.31 89.43-199.74 199.74-199.74s199.74 89.43 199.74 199.74-89.43 199.74-199.74 199.74-199.74-89.43-199.74-199.74" fill="#f89a4c"/>
     <path d="m1754.1 1512c0 110.31 89.43 199.74 199.74 199.74s199.74-89.43 199.74-199.74-89.43-199.74-199.74-199.74-199.74 89.43-199.74 199.74h-1.06c0-110.9 89.9-200.81 200.8-200.81s200.8 89.91 200.8 200.81-89.9 200.8-200.8 200.8-200.8-89.9-200.8-200.8" fill="#f7994b"/>
     <path d="m1753 1512c0 110.9 89.9 200.8 200.8 200.8s200.8-89.9 200.8-200.8-89.9-200.81-200.8-200.81-200.8 89.91-200.8 200.81h-1.07c0-111.48 90.38-201.87 201.87-201.87 111.48 0 201.87 90.39 201.87 201.87s-90.39 201.86-201.87 201.86c-111.49 0-201.87-90.38-201.87-201.86" fill="#f7984a"/>
     <path d="m1752 1512c0 111.48 90.38 201.86 201.87 201.86 111.48 0 201.87-90.38 201.87-201.86s-90.39-201.87-201.87-201.87c-111.49 0-201.87 90.39-201.87 201.87h-1.06c0-112.07 90.85-202.93 202.93-202.93 112.07 0 202.93 90.86 202.93 202.93s-90.86 202.93-202.93 202.93c-112.08 0-202.93-90.86-202.93-202.93" fill="#f79849"/>
     <path d="m1750.9 1512c0 112.07 90.85 202.93 202.93 202.93 112.07 0 202.93-90.86 202.93-202.93s-90.86-202.93-202.93-202.93c-112.08 0-202.93 90.86-202.93 202.93h-1.06c0-112.66 91.33-203.99 203.99-203.99s203.99 91.33 203.99 203.99-91.33 203.99-203.99 203.99-203.99-91.33-203.99-203.99" fill="#f79748"/>
     <path d="m1749.8 1512c0 112.66 91.33 203.99 203.99 203.99s203.99-91.33 203.99-203.99-91.33-203.99-203.99-203.99-203.99 91.33-203.99 203.99h-1.06c0-113.25 91.8-205.06 205.05-205.06 113.24 0 205.05 91.81 205.05 205.06s-91.81 205.05-205.05 205.05c-113.25 0-205.05-91.8-205.05-205.05" fill="#f79648"/>
     <path d="m1748.8 1512c0 113.25 91.8 205.05 205.05 205.05 113.24 0 205.05-91.8 205.05-205.05s-91.81-205.06-205.05-205.06c-113.25 0-205.05 91.81-205.05 205.06h-1.07c0-113.83 92.29-206.12 206.12-206.12s206.12 92.29 206.12 206.12-92.29 206.11-206.12 206.11-206.12-92.28-206.12-206.11" fill="#f79647"/>
     <path d="m1747.7 1512c0 113.83 92.29 206.11 206.12 206.11s206.12-92.28 206.12-206.11-92.29-206.12-206.12-206.12-206.12 92.29-206.12 206.12h-1.06c0-114.42 92.76-207.18 207.18-207.18s207.18 92.76 207.18 207.18-92.76 207.18-207.18 207.18-207.18-92.76-207.18-207.18" fill="#f79546"/>
     <path d="m1746.6 1512c0 114.42 92.76 207.18 207.18 207.18s207.18-92.76 207.18-207.18-92.76-207.18-207.18-207.18-207.18 92.76-207.18 207.18h-1.06c0-115.01 93.23-208.24 208.24-208.24s208.24 93.23 208.24 208.24-93.23 208.24-208.24 208.24-208.24-93.23-208.24-208.24" fill="#f79445"/>
     <path d="m1745.6 1512c0 115.01 93.23 208.24 208.24 208.24s208.24-93.23 208.24-208.24-93.23-208.24-208.24-208.24-208.24 93.23-208.24 208.24h-1.06c0-115.59 93.7-209.31 209.3-209.31 115.59 0 209.3 93.72 209.3 209.31s-93.71 209.3-209.3 209.3c-115.6 0-209.3-93.71-209.3-209.3" fill="#f79445"/>
     <path d="m1744.5 1512c0 115.59 93.7 209.3 209.3 209.3 115.59 0 209.3-93.71 209.3-209.3s-93.71-209.31-209.3-209.31c-115.6 0-209.3 93.72-209.3 209.31h-1.07c0-116.18 94.19-210.37 210.37-210.37s210.37 94.19 210.37 210.37-94.19 210.36-210.37 210.36-210.37-94.18-210.37-210.36" fill="#f79444"/>
     <path d="m1743.5 1512c0 116.18 94.19 210.36 210.37 210.36s210.37-94.18 210.37-210.36-94.19-210.37-210.37-210.37-210.37 94.19-210.37 210.37h-1.06c0-116.77 94.66-211.43 211.43-211.43 116.76 0 211.43 94.66 211.43 211.43s-94.67 211.43-211.43 211.43c-116.77 0-211.43-94.66-211.43-211.43" fill="#f79342"/>
     <path d="m1742.4 1512c0 116.77 94.66 211.43 211.43 211.43 116.76 0 211.43-94.66 211.43-211.43s-94.67-211.43-211.43-211.43c-116.77 0-211.43 94.66-211.43 211.43h-1.06c0-117.35 95.14-212.49 212.49-212.49s212.49 95.14 212.49 212.49-95.14 212.49-212.49 212.49-212.49-95.14-212.49-212.49" fill="#f79342"/>
     <path d="m1741.3 1512c0 117.35 95.14 212.49 212.49 212.49s212.49-95.14 212.49-212.49-95.14-212.49-212.49-212.49-212.49 95.14-212.49 212.49h-1.06c0-117.94 95.61-213.56 213.55-213.56s213.55 95.62 213.55 213.56-95.61 213.55-213.55 213.55-213.55-95.61-213.55-213.55" fill="#f79241"/>
     <path d="m1740.3 1512c0 117.94 95.61 213.55 213.55 213.55s213.55-95.61 213.55-213.55-95.61-213.56-213.55-213.56-213.55 95.62-213.55 213.56h-1.07c0-118.53 96.09-214.62 214.62-214.62s214.62 96.09 214.62 214.62-96.09 214.61-214.62 214.61-214.62-96.08-214.62-214.61" fill="#f79140"/>
     <path d="m1739.2 1512c0 118.53 96.09 214.61 214.62 214.61s214.62-96.08 214.62-214.61-96.09-214.62-214.62-214.62-214.62 96.09-214.62 214.62h-1.06c0-119.11 96.56-215.68 215.68-215.68 119.11 0 215.68 96.57 215.68 215.68s-96.57 215.68-215.68 215.68c-119.12 0-215.68-96.57-215.68-215.68" fill="#f7913f"/>
     <path d="m1738.2 1512c0 119.11 96.56 215.68 215.68 215.68 119.11 0 215.68-96.57 215.68-215.68s-96.57-215.68-215.68-215.68c-119.12 0-215.68 96.57-215.68 215.68h-1.06c0-119.7 97.04-216.74 216.74-216.74s216.74 97.04 216.74 216.74-97.04 216.74-216.74 216.74-216.74-97.04-216.74-216.74" fill="#f7903e"/>
     <path d="m1737.1 1512c0 119.7 97.04 216.74 216.74 216.74s216.74-97.04 216.74-216.74-97.04-216.74-216.74-216.74-216.74 97.04-216.74 216.74h-1.06c0-120.29 97.51-217.81 217.8-217.81s217.8 97.52 217.8 217.81-97.51 217.8-217.8 217.8-217.8-97.51-217.8-217.8" fill="#f78f3d"/>
     <path d="m1736 1512c0 120.29 97.51 217.8 217.8 217.8s217.8-97.51 217.8-217.8-97.51-217.81-217.8-217.81-217.8 97.52-217.8 217.81h-1.07c0-120.88 97.99-218.87 218.87-218.87 120.87 0 218.87 97.99 218.87 218.87 0 120.87-98 218.86-218.87 218.86-120.88 0-218.87-97.99-218.87-218.86" fill="#f78f3d"/>
     <path d="m1735 1512c0 120.87 97.99 218.86 218.87 218.86 120.87 0 218.87-97.99 218.87-218.86 0-120.88-98-218.87-218.87-218.87-120.88 0-218.87 97.99-218.87 218.87h-1.06c0-121.46 98.47-219.93 219.93-219.93s219.93 98.47 219.93 219.93-98.47 219.93-219.93 219.93-219.93-98.47-219.93-219.93" fill="#f78e3b"/>
     <path d="m1733.9 1512c0 121.46 98.47 219.93 219.93 219.93s219.93-98.47 219.93-219.93-98.47-219.93-219.93-219.93-219.93 98.47-219.93 219.93h-1.06c0-122.05 98.94-220.99 220.99-220.99s220.99 98.94 220.99 220.99-98.94 220.99-220.99 220.99-220.99-98.94-220.99-220.99" fill="#f78e3b"/>
     <path d="m1732.8 1512c0 122.05 98.94 220.99 220.99 220.99s220.99-98.94 220.99-220.99-98.94-220.99-220.99-220.99-220.99 98.94-220.99 220.99h-1.06c0-122.63 99.42-222.06 222.05-222.06s222.05 99.43 222.05 222.06-99.42 222.05-222.05 222.05-222.05-99.42-222.05-222.05" fill="#f68d3a"/>
     <path d="m1731.8 1512c0 122.63 99.42 222.05 222.05 222.05s222.05-99.42 222.05-222.05-99.42-222.06-222.05-222.06-222.05 99.43-222.05 222.06h-1.07c0-123.22 99.9-223.12 223.12-223.12s223.12 99.9 223.12 223.12-99.9 223.11-223.12 223.11-223.12-99.89-223.12-223.11" fill="#f78d39"/>
     <path d="m1730.7 1512c0 123.22 99.9 223.11 223.12 223.11s223.12-99.89 223.12-223.11-99.9-223.12-223.12-223.12-223.12 99.9-223.12 223.12h-1.06c0-123.81 100.37-224.18 224.18-224.18s224.18 100.37 224.18 224.18-100.37 224.18-224.18 224.18-224.18-100.37-224.18-224.18" fill="#f68c38"/>
     <path d="m1729.6 1512c0 123.81 100.37 224.18 224.18 224.18s224.18-100.37 224.18-224.18-100.37-224.18-224.18-224.18-224.18 100.37-224.18 224.18h-1.06c0-124.39 100.84-225.24 225.24-225.24 124.39 0 225.24 100.85 225.24 225.24s-100.85 225.24-225.24 225.24c-124.4 0-225.24-100.85-225.24-225.24" fill="#f68b38"/>
     <path d="m1728.6 1512c0 124.39 100.84 225.24 225.24 225.24 124.39 0 225.24-100.85 225.24-225.24s-100.85-225.24-225.24-225.24c-124.4 0-225.24 100.85-225.24 225.24h-1.06c0-124.98 101.32-226.31 226.3-226.31s226.3 101.33 226.3 226.31-101.32 226.3-226.3 226.3-226.3-101.32-226.3-226.3" fill="#f68b37"/>
     <path d="m1727.5 1512c0 124.98 101.32 226.3 226.3 226.3s226.3-101.32 226.3-226.3-101.32-226.31-226.3-226.31-226.3 101.33-226.3 226.31h-1.07c0-125.57 101.8-227.37 227.37-227.37 125.56 0 227.37 101.8 227.37 227.37s-101.81 227.36-227.37 227.36c-125.57 0-227.37-101.79-227.37-227.36" fill="#f68a36"/>
     <path d="m1726.5 1512c0 125.57 101.8 227.36 227.37 227.36 125.56 0 227.37-101.79 227.37-227.36s-101.81-227.37-227.37-227.37c-125.57 0-227.37 101.8-227.37 227.37h-1.06c0-126.16 102.27-228.43 228.43-228.43 126.15 0 228.43 102.27 228.43 228.43s-102.28 228.43-228.43 228.43c-126.16 0-228.43-102.27-228.43-228.43" fill="#f68935"/>
     <path d="m1725.4 1512c0 126.16 102.27 228.43 228.43 228.43 126.15 0 228.43-102.27 228.43-228.43s-102.28-228.43-228.43-228.43c-126.16 0-228.43 102.27-228.43 228.43h-1.06c0-126.74 102.75-229.49 229.49-229.49s229.49 102.75 229.49 229.49-102.75 229.49-229.49 229.49-229.49-102.75-229.49-229.49" fill="#f68934"/>
     <path d="m1724.3 1512c0 126.74 102.75 229.49 229.49 229.49s229.49-102.75 229.49-229.49-102.75-229.49-229.49-229.49-229.49 102.75-229.49 229.49h-1.06c0-127.33 103.22-230.56 230.55-230.56s230.55 103.23 230.55 230.56-103.22 230.55-230.55 230.55-230.55-103.22-230.55-230.55" fill="#f68934"/>
     <path d="m1723.3 1512c0 127.33 103.22 230.55 230.55 230.55s230.55-103.22 230.55-230.55-103.22-230.56-230.55-230.56-230.55 103.23-230.55 230.56h-1.07c0-127.91 103.7-231.62 231.62-231.62 127.91 0 231.62 103.71 231.62 231.62s-103.71 231.61-231.62 231.61c-127.92 0-231.62-103.7-231.62-231.61" fill="#f68833"/>
     <path d="m1722.2 1512c0 127.91 103.7 231.61 231.62 231.61 127.91 0 231.62-103.7 231.62-231.61s-103.71-231.62-231.62-231.62c-127.92 0-231.62 103.71-231.62 231.62h-1.06c0-128.5 104.17-232.68 232.68-232.68 128.5 0 232.68 104.18 232.68 232.68s-104.18 232.68-232.68 232.68c-128.51 0-232.68-104.18-232.68-232.68" fill="#f68832"/>
     <path d="m1721.2 1512c0 128.5 104.17 232.68 232.68 232.68 128.5 0 232.68-104.18 232.68-232.68s-104.18-232.68-232.68-232.68c-128.51 0-232.68 104.18-232.68 232.68h-1.06c0-129.09 104.65-233.74 233.74-233.74s233.74 104.65 233.74 233.74-104.65 233.74-233.74 233.74-233.74-104.65-233.74-233.74" fill="#f68731"/>
     <path d="m1720.1 1512c0 129.09 104.65 233.74 233.74 233.74s233.74-104.65 233.74-233.74-104.65-233.74-233.74-233.74-233.74 104.65-233.74 233.74h-1.06c0-129.68 105.12-234.81 234.8-234.81 129.67 0 234.8 105.13 234.8 234.81s-105.13 234.8-234.8 234.8c-129.68 0-234.8-105.12-234.8-234.8" fill="#f68630"/>
     <path d="m1719 1512c0 129.68 105.12 234.8 234.8 234.8 129.67 0 234.8-105.12 234.8-234.8s-105.13-234.81-234.8-234.81c-129.68 0-234.8 105.13-234.8 234.81h-1.07c0-130.26 105.61-235.87 235.87-235.87s235.87 105.61 235.87 235.87-105.61 235.86-235.87 235.86-235.87-105.6-235.87-235.86" fill="#f6862f"/>
     <path d="m1718 1512c0 130.26 105.61 235.86 235.87 235.86s235.87-105.6 235.87-235.86-105.61-235.87-235.87-235.87-235.87 105.61-235.87 235.87h-1.06c0-130.85 106.08-236.93 236.93-236.93s236.93 106.08 236.93 236.93-106.08 236.93-236.93 236.93-236.93-106.08-236.93-236.93" fill="#f6852f"/>
     <path d="m1716.9 1512c0 130.85 106.08 236.93 236.93 236.93s236.93-106.08 236.93-236.93-106.08-236.93-236.93-236.93-236.93 106.08-236.93 236.93h-1.06c0-131.44 106.55-237.99 237.99-237.99s237.99 106.55 237.99 237.99-106.55 237.99-237.99 237.99-237.99-106.55-237.99-237.99" fill="#f6852e"/>
     <path d="m1715.8 1512c0 131.44 106.55 237.99 237.99 237.99s237.99-106.55 237.99-237.99-106.55-237.99-237.99-237.99-237.99 106.55-237.99 237.99h-1.06c0-132.02 107.02-239.06 239.05-239.06 132.02 0 239.05 107.04 239.05 239.06s-107.03 239.05-239.05 239.05c-132.03 0-239.05-107.03-239.05-239.05" fill="#f6842d"/>
     <path d="m1714.8 1512c0 132.02 107.02 239.05 239.05 239.05 132.02 0 239.05-107.03 239.05-239.05s-107.03-239.06-239.05-239.06c-132.03 0-239.05 107.04-239.05 239.06h-1.07c0-132.61 107.51-240.12 240.12-240.12s240.12 107.51 240.12 240.12-107.51 240.11-240.12 240.11-240.12-107.5-240.12-240.11" fill="#f6842d"/>
     <path d="m1713.7 1512c0 132.61 107.51 240.11 240.12 240.11s240.12-107.5 240.12-240.11-107.51-240.12-240.12-240.12-240.12 107.51-240.12 240.12h-1.06c0-133.2 107.98-241.18 241.18-241.18 133.19 0 241.18 107.98 241.18 241.18 0 133.19-107.99 241.18-241.18 241.18-133.2 0-241.18-107.99-241.18-241.18" fill="#f6832b"/>
     <path d="m1712.6 1512c0 133.19 107.98 241.18 241.18 241.18 133.19 0 241.18-107.99 241.18-241.18 0-133.2-107.99-241.18-241.18-241.18-133.2 0-241.18 107.98-241.18 241.18h-1.06c0-133.78 108.46-242.24 242.24-242.24s242.24 108.46 242.24 242.24-108.46 242.24-242.24 242.24-242.24-108.46-242.24-242.24" fill="#f6822b"/>
     <path d="m1711.6 1512c0 133.78 108.46 242.24 242.24 242.24s242.24-108.46 242.24-242.24-108.46-242.24-242.24-242.24-242.24 108.46-242.24 242.24h-1.06c0-134.37 108.93-243.31 243.3-243.31s243.3 108.94 243.3 243.31-108.93 243.3-243.3 243.3-243.3-108.93-243.3-243.3" fill="#f6822a"/>
     <path d="m1710.5 1512c0 134.37 108.93 243.3 243.3 243.3s243.3-108.93 243.3-243.3-108.93-243.31-243.3-243.31-243.3 108.94-243.3 243.31h-1.07c0-134.96 109.41-244.37 244.37-244.37s244.37 109.41 244.37 244.37-109.41 244.36-244.37 244.36-244.37-109.4-244.37-244.36" fill="#f68129"/>
     <path d="m1709.5 1512c0 134.96 109.41 244.36 244.37 244.36s244.37-109.4 244.37-244.36-109.41-244.37-244.37-244.37-244.37 109.41-244.37 244.37h-1.06c0-135.54 109.89-245.43 245.43-245.43s245.43 109.89 245.43 245.43-109.89 245.43-245.43 245.43-245.43-109.89-245.43-245.43" fill="#f58029"/>
     <path d="m1708.4 1512c0 135.54 109.89 245.43 245.43 245.43s245.43-109.89 245.43-245.43-109.89-245.43-245.43-245.43-245.43 109.89-245.43 245.43h-1.06c0-136.13 110.36-246.49 246.49-246.49s246.49 110.36 246.49 246.49-110.36 246.49-246.49 246.49-246.49-110.36-246.49-246.49" fill="#f58128"/>
     <path d="m1707.3 1512c0 136.13 110.36 246.49 246.49 246.49s246.49-110.36 246.49-246.49-110.36-246.49-246.49-246.49-246.49 110.36-246.49 246.49h-1.06c0-136.72 110.83-247.56 247.55-247.56s247.55 110.84 247.55 247.56-110.83 247.55-247.55 247.55-247.55-110.83-247.55-247.55" fill="#f58027"/>
     <path d="m1706.3 1512c0 136.72 110.83 247.55 247.55 247.55s247.55-110.83 247.55-247.55-110.83-247.56-247.55-247.56-247.55 110.84-247.55 247.56h-1.07c0-137.31 111.31-248.62 248.62-248.62 137.3 0 248.62 111.31 248.62 248.62 0 137.3-111.32 248.61-248.62 248.61-137.31 0-248.62-111.31-248.62-248.61" fill="#f57f26"/>
     <path d="m1705.2 1512c0 137.3 111.31 248.61 248.62 248.61 137.3 0 248.62-111.31 248.62-248.61 0-137.31-111.32-248.62-248.62-248.62-137.31 0-248.62 111.31-248.62 248.62h-1.06c0-137.89 111.79-249.68 249.68-249.68s249.68 111.79 249.68 249.68-111.79 249.68-249.68 249.68-249.68-111.79-249.68-249.68" fill="#f57e26"/>
     <path d="m1704.2 1512c0 137.89 111.79 249.68 249.68 249.68s249.68-111.79 249.68-249.68-111.79-249.68-249.68-249.68-249.68 111.79-249.68 249.68h-1.06c0-138.48 112.26-250.74 250.74-250.74 138.47 0 250.74 112.26 250.74 250.74s-112.27 250.74-250.74 250.74c-138.48 0-250.74-112.26-250.74-250.74" fill="#f57e25"/>
     <path d="m1703.1 1512c0 138.48 112.26 250.74 250.74 250.74 138.47 0 250.74-112.26 250.74-250.74s-112.27-250.74-250.74-250.74c-138.48 0-250.74 112.26-250.74 250.74h-1.06c0-139.06 112.74-251.81 251.8-251.81s251.8 112.75 251.8 251.81-112.74 251.8-251.8 251.8-251.8-112.74-251.8-251.8" fill="#f57d24"/>
     <path d="m1702 1512c0 139.06 112.74 251.8 251.8 251.8s251.8-112.74 251.8-251.8-112.74-251.81-251.8-251.81-251.8 112.75-251.8 251.81h-1.07c0-139.65 113.22-252.86 252.87-252.86s252.87 113.21 252.87 252.86-113.22 252.86-252.87 252.86-252.87-113.21-252.87-252.86" fill="#f57d23"/>
     <path d="m1701 1512c0 139.65 113.22 252.86 252.87 252.86s252.87-113.21 252.87-252.86-113.22-252.86-252.87-252.86-252.87 113.21-252.87 252.86h-1.06c0-140.24 113.69-253.93 253.93-253.93s253.93 113.69 253.93 253.93-113.69 253.93-253.93 253.93-253.93-113.69-253.93-253.93" fill="#f57d22"/>
     <path d="m1699.9 1512c0 140.24 113.69 253.93 253.93 253.93s253.93-113.69 253.93-253.93-113.69-253.93-253.93-253.93-253.93 113.69-253.93 253.93h-1.06c0-140.82 114.16-254.99 254.99-254.99 140.82 0 254.99 114.17 254.99 254.99s-114.17 254.99-254.99 254.99c-140.83 0-254.99-114.17-254.99-254.99" fill="#f57c22"/>
     <path d="m1698.8 1512c0 140.82 114.16 254.99 254.99 254.99 140.82 0 254.99-114.17 254.99-254.99s-114.17-254.99-254.99-254.99c-140.83 0-254.99 114.17-254.99 254.99h-1.06c0-141.41 114.64-256.05 256.05-256.05s256.05 114.64 256.05 256.05-114.64 256.05-256.05 256.05-256.05-114.64-256.05-256.05" fill="#f57b21"/>
     <path d="m1697.8 1512c0 141.41 114.64 256.05 256.05 256.05s256.05-114.64 256.05-256.05-114.64-256.05-256.05-256.05-256.05 114.64-256.05 256.05h-1.07c0-142 115.12-257.11 257.12-257.11 141.99 0 257.12 115.11 257.12 257.11s-115.13 257.11-257.12 257.11c-142 0-257.12-115.11-257.12-257.11" fill="#f57a21"/>
     <path d="m1696.7 1512c0 142 115.12 257.11 257.12 257.11 141.99 0 257.12-115.11 257.12-257.11s-115.13-257.11-257.12-257.11c-142 0-257.12 115.11-257.12 257.11h-1.06c0-142.59 115.59-258.18 258.18-258.18 142.58 0 258.18 115.59 258.18 258.18s-115.6 258.18-258.18 258.18c-142.59 0-258.18-115.59-258.18-258.18" fill="#f57a1f"/>
     <path d="m1695.6 1512c0 142.59 115.59 258.18 258.18 258.18 142.58 0 258.18-115.59 258.18-258.18s-115.6-258.18-258.18-258.18c-142.59 0-258.18 115.59-258.18 258.18h-1.06c0-143.17 116.07-259.24 259.24-259.24s259.24 116.07 259.24 259.24-116.07 259.24-259.24 259.24-259.24-116.07-259.24-259.24" fill="#f5791f"/>
     <path d="m1694.6 1512c0 143.17 116.07 259.24 259.24 259.24s259.24-116.07 259.24-259.24-116.07-259.24-259.24-259.24-259.24 116.07-259.24 259.24h-1.06c0-143.76 116.54-260.3 260.3-260.3s260.3 116.54 260.3 260.3-116.54 260.3-260.3 260.3-260.3-116.54-260.3-260.3" fill="#f5791e"/>
     <path d="m1693.5 1512c0 143.76 116.54 260.3 260.3 260.3s260.3-116.54 260.3-260.3-116.54-260.3-260.3-260.3-260.3 116.54-260.3 260.3h-1.07c0-144.34 117.02-261.36 261.37-261.36 144.34 0 261.37 117.02 261.37 261.36s-117.03 261.36-261.37 261.36c-144.35 0-261.37-117.02-261.37-261.36" fill="#f5791e"/>
     <path d="m1692.5 1512c0 144.34 117.02 261.36 261.37 261.36 144.34 0 261.37-117.02 261.37-261.36s-117.03-261.36-261.37-261.36c-144.35 0-261.37 117.02-261.37 261.36h-1.06c0-144.93 117.49-262.43 262.43-262.43 144.93 0 262.43 117.5 262.43 262.43s-117.5 262.43-262.43 262.43c-144.94 0-262.43-117.5-262.43-262.43" fill="#f5781d"/>
     <path d="m1691.4 1512c0 144.93 117.49 262.43 262.43 262.43 144.93 0 262.43-117.5 262.43-262.43s-117.5-262.43-262.43-262.43c-144.94 0-262.43 117.5-262.43 262.43h-1.06c0-145.52 117.97-263.49 263.49-263.49s263.49 117.97 263.49 263.49-117.97 263.49-263.49 263.49-263.49-117.97-263.49-263.49" fill="#f5771c"/>
     <path d="m1690.3 1512c0 145.52 117.97 263.49 263.49 263.49s263.49-117.97 263.49-263.49-117.97-263.49-263.49-263.49-263.49 117.97-263.49 263.49h-1.06c0-146.11 118.44-264.55 264.55-264.55 146.1 0 264.55 118.44 264.55 264.55s-118.45 264.55-264.55 264.55c-146.11 0-264.55-118.44-264.55-264.55" fill="#f5761b"/>
     <path d="m1689.3 1512c0 146.11 118.44 264.55 264.55 264.55 146.1 0 264.55-118.44 264.55-264.55s-118.45-264.55-264.55-264.55c-146.11 0-264.55 118.44-264.55 264.55h-1.07c0-146.69 118.93-265.61 265.62-265.61s265.61 118.92 265.61 265.61-118.92 265.61-265.61 265.61-265.62-118.92-265.62-265.61" fill="#f5761b"/>
     <path d="m1688.2 1512c0 146.69 118.93 265.61 265.62 265.61s265.61-118.92 265.61-265.61-118.92-265.61-265.61-265.61-265.62 118.92-265.62 265.61h-1.05c0-147.28 119.39-266.68 266.67-266.68s266.67 119.4 266.67 266.68-119.39 266.68-266.67 266.68-266.67-119.4-266.67-266.68" fill="#f5761a"/>
     <path d="m1687.2 1512c0 147.28 119.39 266.68 266.67 266.68s266.67-119.4 266.67-266.68-119.39-266.68-266.67-266.68-266.67 119.4-266.67 266.68h-1.07c0-147.87 119.87-267.74 267.74-267.74s267.74 119.87 267.74 267.74-119.87 267.74-267.74 267.74-267.74-119.87-267.74-267.74" fill="#f4751a"/>
     <path d="m1686.1 1512c0 147.87 119.87 267.74 267.74 267.74s267.74-119.87 267.74-267.74-119.87-267.74-267.74-267.74-267.74 119.87-267.74 267.74h-1.06c0-148.45 120.35-268.8 268.8-268.8s268.8 120.35 268.8 268.8-120.35 268.8-268.8 268.8-268.8-120.35-268.8-268.8" fill="#f47418"/>
     <path d="m1685 1512c0 148.45 120.35 268.8 268.8 268.8s268.8-120.35 268.8-268.8-120.35-268.8-268.8-268.8-268.8 120.35-268.8 268.8h-1.06c0-149.04 120.82-269.86 269.86-269.86s269.86 120.82 269.86 269.86-120.82 269.86-269.86 269.86-269.86-120.82-269.86-269.86" fill="#f47418"/>
     <path d="m1684 1512c0 149.04 120.82 269.86 269.86 269.86s269.86-120.82 269.86-269.86-120.82-269.86-269.86-269.86-269.86 120.82-269.86 269.86h-1.06c0-149.63 121.29-270.93 270.92-270.93 149.62 0 270.92 121.3 270.92 270.93 0 149.62-121.3 270.93-270.92 270.93-149.63 0-270.92-121.31-270.92-270.93" fill="#f47317"/>
     <path d="m1682.9 1512c0 149.62 121.29 270.93 270.92 270.93 149.62 0 270.92-121.31 270.92-270.93 0-149.63-121.3-270.93-270.92-270.93-149.63 0-270.92 121.3-270.92 270.93h-1.07c0-150.21 121.78-271.99 271.99-271.99s271.99 121.78 271.99 271.99-121.78 271.99-271.99 271.99-271.99-121.78-271.99-271.99" fill="#f47217"/>
     <path d="m1681.8 1512c0-150.21 121.78-271.99 271.99-271.99s271.99 121.78 271.99 271.99-121.78 271.99-271.99 271.99-271.99-121.78-271.99-271.99m547.04-271.99h-550.11v543.98h550.11v-543.98" fill="#f47217"/>
    </g>
   </g>
   <g fill="#151922">
    <path d="m508.32 1383.3c-31.836-28.73-72.824-41.14-137.96-41.14h-27.067v341.58h27.067c65.14 0 104.56-11.63 137.96-41.8 34.848-30.98 55.622-78.95 55.622-128.49 0-49.63-20.774-99.29-55.622-130.15zm-117.75 387.89h-148.08v-516.46h147.3c78.156 0 134.68 18.52 184.26 59.59 58.828 48.79 93.723 122.36 93.723 198.39 0 152.48-113.91 258.48-277.2 258.48"/>
    <path d="m714.26 1254.8h100.62v516.46h-100.62z"/>
    <path d="m1061.3 1573.1c-60.48 22.41-78.28 37.19-78.28 64.97 0 32.55 31.69 57.31 75.13 57.31 30.2 0 54.98-12.38 81.39-41.72l52.59 68.81c-43.36 38.03-95.24 57.36-151.83 57.36-91.291 0-161.04-63.53-161.04-147.86 0-71.31 32.5-107.67 127.01-141.83 39.52-13.87 59.61-23.12 69.7-29.44 20.13-13.17 30.24-31.68 30.24-53.36 0-41.88-33.33-72.81-78.31-72.81-48.016 0-86.696 23.98-109.95 68.89l-64.969-62.8c46.368-68.05 102.14-98.35 178.89-98.35 104.54 0 178.07 69.79 178.07 169.66 0 82.1-33.99 119.3-148.64 161.17"/>
    <path d="m1241.6 1512.8c0-151.95 119.3-269.63 272.68-269.63 43.36 0 80.53 8.57 126.27 30.17v118.55c-40.33-40.31-75.96-56.53-121.67-56.53-101.43 0-173.5 73.59-173.5 178.18 0 99.08 74.32 177.31 168.9 177.31 47.94 0 84.4-17.03 126.27-58.07v118.54c-44.14 22.39-80.6 31.61-123.97 31.61-152.6 0-274.98-120.06-274.98-270.13"/>
    <path d="m2456.8 1424.3-137.86 346.92h-109.98l219.25-529.65h54.17l223.08 529.65h-109.17l-139.49-346.92"/>
    <path d="m2751.3 1254.8h285.74v87.43h-185.07v139.5h177.99v87.45h-177.99v114.63h185.07v87.45h-285.74v-516.46"/>
    <path d="m3233.6 1533.5h-29.31v156.5h30.92c62.87 0 96.93-26.41 96.93-76.67 0-51.85-34.06-79.83-98.54-79.83zm202.15 85.29c0 96.75-66.51 152.42-182.75 152.42h-149.49v-516.46h100.78v207.57h13.19l139.33-207.57h123.92l-162.74 217.55c76.01 15.54 117.76 67.45 117.76 146.49"/>
   </g>
   <g fill="#231f20">
    <path d="m3487.8 1726.6h-2.02v11.83h2.12c5.36 0 8.08-1.95 8.08-5.82 0-3.99-2.83-6.01-8.18-6.01zm18.99 6.19c0 9.05-6.05 13.96-17.13 13.96h-14.66v-45.49h10.78v17.69l12.73-17.69h13.5l-15.12 18.8c6.37 1.69 9.9 6.39 9.9 12.73"/>
    <path d="m3491.8 1691.5c-17.63 0-31.83 14.53-31.83 32.52 0 18.17 14.1 32.6 31.83 32.6 17.14 0 31.28-14.71 31.28-32.6 0-17.86-14.14-32.52-31.28-32.52zm0.05 72.37c-22.03 0-39.72-17.71-39.72-39.74 0-22.04 17.79-39.75 39.72-39.75 21.59 0 39.23 17.89 39.23 39.75 0 21.78-17.64 39.74-39.23 39.74"/>
    <path d="m1145.4 1119 134.76-141.15v133.78h19.25v-180.53l-134.74 140.85v-133.12h-19.27v180.17"/>
    <path d="m1147.2 1114.5c5.96-6.17 134.82-141.21 134.82-141.21v136.61h15.56v-174.41c-5.96 6.269-134.66 141-134.66 141v-135.85h-15.72v173.86zm-3.61 4.49v-181.99h22.85v130.5c5.9-6.17 134.71-140.91 134.71-140.91v186.85h-22.82v-131.15c-5.92 6.27-134.74 141.23-134.74 141.23v-4.53"/>
    <path d="m1392.7 1111.6h89.54v-17.84h-70.33v-51.4h68.28v-17.84h-68.28v-67.832h70.33v-17.886h-89.54v172.8"/>
    <path d="m1480.5 1109.9v-14.3h-70.37v-54.99h68.28v-14.25h-68.28v-71.421h70.37v-14.297h-85.99v169.26h85.99zm1.78 3.54h-91.38v-176.44h93.22v21.539h-70.33v64.28h68.23v21.33h-68.23v47.71h70.33v21.58h-1.84"/>
    <path d="m1618.2 938.85h-19.28v154.96h-41.67v17.84h103.1v-17.84h-42.15v-154.96"/>
    <path d="m1658.6 1109.9v-14.3h-42.17v-154.96h-15.66v154.96h-41.68v14.3h99.51zm1.8 3.54h-105.02v-21.58h41.77v-154.86h22.85v154.86h42.19v21.58h-1.79"/>
    <path d="m1789.2 982.16 55.94 138.51 55.9-138.51 45.38 129.49h20.94l-66.32-181.69-55.9 139.18-55.94-139.18-66.15 181.69h20.82l45.33-129.49"/>
    <path d="m1790.8 981.51s51.14 126.55 54.27 134.23c3.14-7.68 56-138.68 56-138.68s45.69 130.49 46.55 132.87h17.02c-1.61-4.6-60.68-166.62-63.77-174.97-3.28 8.238-55.8 138.94-55.8 138.94s-52.6-130.7-55.89-138.94c-2.98 8.348-61.96 170.37-63.68 174.97h16.98c0.82-2.38 46.55-132.87 46.55-132.87zm52.65 139.79s-50.88-125.74-54.22-134.03c-2.93 8.39-44.22 126.2-44.22 126.2h-24.66l68.78-188.67s52.81 131.51 55.94 139.44c3.14-7.93 55.95-139.44 55.95-139.44l68.78 188.67h-24.71s-41.3-117.81-44.22-126.2c-3.39 8.289-55.8 138.15-55.8 138.15l-1.62-4.12"/>
    <path d="m2055.2 1025.3c0-38.921 31.64-71.46 70.87-71.46 39.21 0 70.75 32.539 70.75 71.46 0 39.21-31.13 71.56-70.75 71.56-39.63 0-70.87-32.35-70.87-71.56zm160.93-0.21c0-49.73-40.85-89.191-90.06-89.191-49.34 0-90.06 39.461-90.06 89.191 0 49.48 40.72 89.56 90.06 89.56 49.21 0 90.06-40.08 90.06-89.56"/>
    <path d="m2037.8 1025.1c0 48.42 39.62 87.74 88.35 87.74 48.61 0 88.34-39.32 88.34-87.74 0-48.211-39.73-87.379-88.34-87.379-48.73 0-88.35 39.168-88.35 87.379zm-3.54 0c0-50.129 41.23-90.968 91.89-90.968 50.63 0 91.86 40.839 91.86 90.968 0 50.44-41.23 91.35-91.86 91.35-50.66 0-91.89-40.91-91.89-91.35"/>
    <path d="m2057.1 1025.3c0 38.4 30.93 69.69 69.04 69.69 38.09 0 68.92-31.29 68.92-69.69 0-38.409-30.83-69.749-68.92-69.749-38.11 0-69.04 31.34-69.04 69.749zm-3.65 0c0-40.542 32.66-73.292 72.69-73.292 40.02 0 72.51 32.75 72.51 73.292 0 40.42-32.49 73.28-72.51 73.28-40.03 0-72.69-32.86-72.69-73.28"/>
    <path d="m2318.8 1031.7h5.97c21.73 0 43.77 4.1 43.77 30.93 0 28.35-20.87 31.19-43.98 31.19h-5.76zm0-92.838h-19.21v172.8h24.97c32.75 0 63.18-8.75 63.18-47.66 0-26.59-16.62-45.38-43.25-47.66l54.97-77.478h-23.65l-52.14 75.908h-4.87v-75.908"/>
    <path d="m2324.6 1109.9c41.86 0 61.41-14.61 61.41-45.94 0-25.67-16.33-43.77-41.65-45.89l-3.18-0.31s51.16-71.86 54.89-77.118h-20.22 0.05c0 1.308-50.79 75.098-50.79 75.098l-6.27 0.76h-1.81v-75.858h-15.62v169.26h23.19zm-24.97 3.54h-1.8v-176.44h22.84v75.909h2.97c0-1.31 50.8-75.088 50.8-75.088l25.06-0.821h3.54s-52.75 74.249-55.5 78.239c25.49 3.49 42.05 22.13 42.05 48.72 0 33.36-21.23 49.48-64.99 49.48h-24.97"/>
    <path d="m2324.6 1091.9c22.19 0 42.15-2.12 42.15-29.27 0-25.62-21.17-29.05-41.94-29.05h-4.14v58.32h3.93zm-5.76 3.74h-1.81v-65.7h7.78c21.23 0 45.58 3.73 45.58 32.69 0 30.48-23.65 33.01-45.79 33.01h-5.76"/>
    <path d="m2574 1111.6h25.88l-81.11-80.51 83.83-92.288h-26.58l-70.85 79.298-4.81-4.7v-74.598h-19.26v172.8h19.26v-73.99l73.64 73.99"/>
    <path d="m2595.4 1109.9c-5.76-5.81-79.23-78.69-79.23-78.69s77.21-84.912 82.32-90.568h-22.54c0 0.906-69.54 78.688-69.54 78.688l-1.21 1.47-6.17-6.17s-0.51-70.551-0.51-73.988h-15.62v169.26h15.62v-76.67s75.1 75.61 76.11 76.67h20.77zm4.41 3.54h-26.59s-65.51-65.75-71.06-71.52v71.52h-22.84v-176.44h22.84v76.119c0.2-0.1 1.67 1.31 2.82 2.42 2.44-2.63 69.65-77.929 69.65-77.929l27.9-0.61h4.14s-83.23 91.629-85.61 94.059c2.53 2.48 83.04 82.38 83.04 82.38h-4.29"/>
   </g>
  </g>
 </g>
</svg>
