<svg width="234.33" height="157.74" version="1.1" xmlns="http://www.w3.org/2000/svg">
 <defs>
  <clipPath id="clipPath993-7">
   <rect x="-18.111" y="25.09" width="299.58" height="201.35" rx="0" fill="#5360f7" fill-opacity=".94118" stroke="#2e41ff" stroke-linecap="round" stroke-linejoin="round" stroke-opacity=".94118" stroke-width=".97346" style="paint-order:normal"/>
  </clipPath>
 </defs>
 <style><![CDATA[.B{fill-rule:evenodd}.C{fill:#fff}.D{fill:none}.E{stroke:#fff}.F{stroke-miterlimit:2.61310005}.G{stroke-width:.288}.H{fill:#f9ab1e}]]></style>
 <g transform="translate(0,-99.272)">
  <rect x="-.18808" y="99.351" width="233.35" height="156.76" fill="#fff" style="paint-order:normal"/>
 </g>
 <g transform="matrix(.77966 0 0 .77966 16 -19.271)" clip-path="url(#clipPath993-7)">
  <g class="B" fill-rule="evenodd">
   <path class="C" d="m0 6e-3h257.01v257.01h-257.01v-257.01" fill="#fff"/>
   <path class="H" d="m178.44 203.16 3.853-0.101 3.803-0.277 3.727-0.478 3.701-0.655 3.601-0.831 3.551-1.008 3.475-1.183 3.4-1.334 3.324-1.511 3.223-1.637 3.123-1.813 3.047-1.939 2.921-2.09 2.82-2.216 2.72-2.342 2.595-2.493 2.492-2.594 2.341-2.72 2.216-2.82 2.091-2.921 1.939-3.047 1.813-3.122 1.637-3.223 1.511-3.324 1.335-3.399 1.183-3.475 1.008-3.551 0.831-3.601 0.655-3.702 0.479-3.727 0.277-3.803 0.1-3.852-0.1-3.828-0.277-3.777-0.479-3.727-0.655-3.652-0.831-3.601-1.008-3.525-1.183-3.475-1.335-3.375-1.511-3.299-1.637-3.223-1.813-3.097-1.939-3.047-2.091-2.921-2.216-2.796-2.341-2.719-2.492-2.595-2.595-2.467-2.72-2.343-2.82-2.216-2.921-2.089-3.047-1.94-3.123-1.788-3.223-1.636-3.324-1.511-3.4-1.335-3.475-1.184-3.551-1.007-3.601-0.831-3.701-0.656-3.727-0.479-3.803-0.276-3.853-0.101-3.828 0.101-3.801 0.276-3.728 0.479-3.676 0.656-3.6 0.831-3.551 1.007-3.451 1.184-3.4 1.335-3.299 1.511-3.197 1.636-3.123 1.788-3.021 1.94-2.921 2.089-2.821 2.216-2.694 2.343-2.594 2.467-2.468 2.595-2.342 2.719-2.216 2.796-2.065 2.921-1.939 3.047-1.787 3.097-1.662 3.223-1.486 3.299-1.335 3.375-1.158 3.475-1.008 3.525-0.83 3.601-0.655 3.652-0.479 3.727-0.277 3.777-0.101 3.828 0.101 3.852 0.277 3.803 0.479 3.727 0.655 3.702 0.83 3.601 1.008 3.551 1.158 3.475 1.335 3.399 1.486 3.324 1.662 3.223 1.787 3.122 1.939 3.047 2.065 2.921 2.216 2.82 2.342 2.72 2.468 2.594 2.594 2.493 2.694 2.342 2.821 2.216 2.921 2.09 3.021 1.939 3.123 1.813 3.197 1.637 3.299 1.511 3.4 1.334 3.451 1.183 3.551 1.008 3.6 0.831 3.676 0.655 3.728 0.478 3.801 0.277 3.828 0.101" fill="#f9ab1e"/>
   <path d="m78.568 203.16 3.828-0.101 3.802-0.277 3.727-0.478 3.677-0.655 3.601-0.831 3.551-1.008 3.45-1.183 3.399-1.334 3.299-1.511 3.198-1.637 3.122-1.813 3.022-1.939 2.921-2.09 2.82-2.216 2.695-2.342 2.593-2.493 2.468-2.594 2.343-2.72 2.216-2.82 2.064-2.921 1.939-3.047 1.788-3.122 1.663-3.223 1.485-3.324 1.335-3.399 1.159-3.475 1.007-3.551 0.831-3.601 0.655-3.702 0.479-3.727 0.277-3.803 0.101-3.852-0.101-3.828-0.277-3.777-0.479-3.727-0.655-3.652-0.831-3.601-1.007-3.525-1.159-3.475-1.335-3.375-1.485-3.299-1.663-3.223-1.788-3.097-1.939-3.047-2.064-2.921-2.216-2.796-2.343-2.719-2.468-2.595-2.593-2.467-2.695-2.343-2.82-2.216-2.921-2.089-3.022-1.94-3.122-1.788-3.198-1.636-3.299-1.511-3.399-1.335-3.45-1.184-3.551-1.007-3.601-0.831-3.677-0.656-3.727-0.479-3.802-0.276-3.828-0.101-3.852 0.101-3.803 0.276-3.727 0.479-3.701 0.656-3.601 0.831-3.551 1.007-3.475 1.184-3.4 1.335-3.323 1.511-3.223 1.636-3.122 1.788-3.047 1.94-2.921 2.089-2.822 2.219-2.72 2.343-2.594 2.467-2.493 2.595-2.342 2.719-2.216 2.796-2.09 2.921-1.939 3.047-1.813 3.097-1.637 3.223-1.511 3.299-1.334 3.375-1.183 3.475-1.008 3.525-0.831 3.601-0.655 3.652-0.479 3.727-0.277 3.777-0.1 3.828 0.1 3.852 0.277 3.803 0.479 3.727 0.655 3.702 0.831 3.601 1.008 3.551 1.183 3.475 1.334 3.399 1.511 3.324 1.637 3.223 1.813 3.122 1.939 3.047 2.09 2.921 2.216 2.82 2.342 2.72 2.493 2.594 2.594 2.493 2.72 2.342 2.82 2.216 2.921 2.09 3.047 1.939 3.122 1.813 3.223 1.637 3.323 1.511 3.4 1.334 3.475 1.183 3.551 1.008 3.601 0.831 3.701 0.655 3.727 0.478 3.803 0.277 3.852 0.101" fill="#ed192d"/>
   <path class="H" d="m119.76 82.491h39.661v-4.055h-36.236l-3.425 4.055m-5.942 9.015h45.604v-4.053h-43.211l-2.392 4.053m-4.434 8.989h50.036v-4.055h-48.272l-1.763 4.055m-3.048 9.015h53.083v-4.053h-51.823l-1.259 4.053m1.763 43.565h51.445v-4.054h-52.705l1.259 4.054m3.803 9.015h47.643v-4.054h-49.532l1.889 4.054m5.339 8.99h42.304v-4.055h-44.848l2.544 4.055m7.353 9.014h34.951v-4.079h-38.502l3.551 4.079m-20.045-61.594h54.87v-4.055h-54.09l-0.78 4.055m33.441 25.585h20.925v-4.055h-20.171l-0.755 4.055m1.664-8.99h19.263v-4.079h-18.508l-0.755 4.079m-36.489-4.079h5.44v4.079h-5.187l-0.252-4.079" fill="#f9ab1e"/>
   <path class="C" d="m93.023 126.1-0.353-0.025-0.353-0.051-0.328-0.051-0.327-0.05-0.302-0.051-0.327-0.051-0.328-0.051-0.706-0.1-0.403-0.025-0.453-0.025-0.479-0.025h-0.529l-0.579 0.025-0.655 0.051-0.73 0.05-0.504 0.076-0.479 0.075-0.428 0.151-0.378 0.151-0.353 0.176-0.327 0.202-0.479 0.479-0.151 0.277-0.126 0.277-0.05 0.303v0.302l0.075 0.327 0.101 0.328 0.202 0.327 0.252 0.328 0.503 0.478 0.605 0.378 0.705 0.327 0.755 0.277 0.806 0.251 0.831 0.277 0.831 0.303 0.806 0.327 0.756 0.428 0.705 0.529 0.63 0.63 0.529 0.781 0.403 0.957 0.252 1.133 0.101 1.359-0.101 1.587-0.177 1.183-0.302 1.032-0.403 0.957-0.504 0.831-0.579 0.73-0.655 0.63-0.705 0.554-0.781 0.479-0.806 0.377-0.831 0.328-0.856 0.252-0.881 0.201-0.856 0.152-0.831 0.075-0.831 0.051-0.781 0.025h-1.082l-1.008-0.025h-0.881l-0.831-0.025-0.756-0.025-0.68-0.051-0.605-0.05-0.579-0.075-0.529-0.051-0.478-0.101-0.479-0.076-0.428-0.126-0.428-0.101-0.806-0.302-0.428-0.151 1.133-5.565 0.227 0.051 0.277 0.075 0.352 0.102 0.428 0.101 0.454 0.101 0.504 0.1 0.554 0.126 0.604 0.102 0.629 0.101 0.655 0.101 0.68 0.076 0.705 0.075 1.46 0.05h0.73l0.73-0.025 0.73-0.151 0.579-0.202 0.453-0.277 0.353-0.353 0.252-0.353 0.202-0.403 0.126-0.403 0.101-0.378 0.05-0.73-0.226-0.63-0.429-0.504-0.63-0.428-0.755-0.378-0.882-0.378-0.982-0.353-0.982-0.403-1.007-0.453-0.957-0.529-0.882-0.655-0.806-0.781-0.63-0.957-0.453-1.133-0.227-1.36 0.026-1.611 0.125-0.982 0.177-0.932 0.252-0.857 0.302-0.806 0.403-0.755 0.453-0.655 0.529-0.629 0.63-0.555 0.73-0.479 0.806-0.403 0.906-0.377 1.007-0.277 1.133-0.227 1.234-0.176 1.36-0.101 1.485-0.025h0.932l0.856 0.025 0.781 0.025 0.705 0.025 0.63 0.051 0.58 0.051 0.503 0.049 0.453 0.051 0.429 0.051 0.353 0.075 0.327 0.051 0.302 0.051 0.252 0.051 0.227 0.025 0.227 0.051 0.202 0.024-1.284 5.692" fill="#fff"/>
  </g>
  <path class="D E F G" d="m93.023 126.1-0.353-0.025-0.353-0.051-0.328-0.051-0.327-0.05-0.302-0.051-0.327-0.051-0.328-0.051-0.706-0.1-0.403-0.025-0.453-0.025-0.479-0.025h-0.529l-0.579 0.025-0.655 0.051-0.73 0.05-0.504 0.076-0.479 0.075-0.428 0.151-0.378 0.151-0.353 0.176-0.327 0.202-0.479 0.479-0.151 0.277-0.126 0.277-0.05 0.303v0.302l0.075 0.327 0.101 0.328 0.202 0.327 0.252 0.328 0.503 0.478 0.605 0.378 0.705 0.327 0.755 0.277 0.806 0.251 0.831 0.277 0.831 0.303 0.806 0.327 0.756 0.428 0.705 0.529 0.63 0.63 0.529 0.781 0.403 0.957 0.252 1.133 0.101 1.359-0.101 1.587-0.177 1.183-0.302 1.032-0.403 0.957-0.504 0.831-0.579 0.73-0.655 0.63-0.705 0.554-0.781 0.479-0.806 0.377-0.831 0.328-0.856 0.252-0.881 0.201-0.856 0.152-0.831 0.075-0.831 0.051-0.781 0.025h-1.082l-1.008-0.025h-0.881l-0.831-0.025-0.756-0.025-0.68-0.051-0.605-0.05-0.579-0.075-0.529-0.051-0.478-0.101-0.479-0.076-0.428-0.126-0.428-0.101-0.806-0.302-0.428-0.151 1.133-5.565 0.227 0.051 0.277 0.075 0.352 0.102 0.428 0.101 0.454 0.101 0.504 0.1 0.554 0.126 0.604 0.102 0.629 0.101 0.655 0.101 0.68 0.076 0.705 0.075 1.46 0.05h0.73l0.73-0.025 0.73-0.151 0.579-0.202 0.453-0.277 0.353-0.353 0.252-0.353 0.202-0.403 0.126-0.403 0.101-0.378 0.05-0.73-0.226-0.63-0.429-0.504-0.63-0.428-0.755-0.378-0.882-0.378-0.982-0.353-0.982-0.403-1.007-0.453-0.957-0.529-0.882-0.655-0.806-0.781-0.63-0.957-0.453-1.133-0.227-1.36 0.026-1.611 0.125-0.982 0.177-0.932 0.252-0.857 0.302-0.806 0.403-0.755 0.453-0.655 0.529-0.629 0.63-0.555 0.73-0.479 0.806-0.403 0.906-0.377 1.007-0.277 1.133-0.227 1.234-0.176 1.36-0.101 1.485-0.025h0.932l0.856 0.025 0.781 0.025 0.705 0.025 0.63 0.051 0.58 0.051 0.503 0.049 0.453 0.051 0.429 0.051 0.353 0.075 0.327 0.051 0.302 0.051 0.252 0.051 0.227 0.025 0.227 0.051 0.202 0.024-1.284 5.692" fill="none" stroke="#fff" stroke-miterlimit="2.6131" stroke-width=".288"/>
  <path class="B C" d="m98.99 114.2h6.975l-1.032 6.093h4.205l-0.907 5.691-4.432-0.126-2.417 14.052-0.025 0.504 0.126 0.428 0.253 0.328 0.327 0.277 0.453 0.177 0.504 0.151 0.554 0.101 0.604 0.05 0.554-0.025 0.504-0.051 0.453-0.075 0.403-0.101 0.327-0.101 0.227-0.075 0.151-0.051 0.05-0.025-0.881 4.683-0.176 0.126-0.177 0.101-0.176 0.101-0.177 0.101-0.176 0.076-0.201 0.075-0.227 0.076-0.227 0.075-0.252 0.075-0.252 0.051-0.302 0.05-0.302 0.051-0.328 0.05-0.378 0.051-0.403 0.051-0.428 0.05h-1.914l-1.007-0.075-0.882-0.101-0.806-0.151-0.68-0.176-0.579-0.227-0.478-0.252-0.429-0.302-0.327-0.328-0.252-0.353-0.177-0.428-0.126-0.428-0.076-0.479-0.025-0.529v-0.554l0.075-0.579 0.075-0.63 4.809-27.472" fill="#fff" fill-rule="evenodd"/>
  <path class="D E F G" d="m98.99 114.2h6.975l-1.032 6.093h4.205l-0.907 5.691-4.432-0.126-2.417 14.052-0.025 0.504 0.126 0.428 0.253 0.328 0.327 0.277 0.453 0.177 0.504 0.151 0.554 0.101 0.604 0.05 0.554-0.025 0.504-0.051 0.453-0.075 0.403-0.101 0.327-0.101 0.227-0.075 0.151-0.051 0.05-0.025-0.881 4.683-0.176 0.126-0.177 0.101-0.176 0.101-0.177 0.101-0.176 0.076-0.201 0.075-0.227 0.076-0.227 0.075-0.252 0.075-0.252 0.051-0.302 0.05-0.302 0.051-0.328 0.05-0.378 0.051-0.403 0.051-0.428 0.05h-1.914l-1.007-0.075-0.882-0.101-0.806-0.151-0.68-0.176-0.579-0.227-0.478-0.252-0.429-0.302-0.327-0.328-0.252-0.353-0.177-0.428-0.126-0.428-0.076-0.479-0.025-0.529v-0.554l0.075-0.579 0.075-0.63 4.809-27.472" fill="none" stroke="#fff" stroke-miterlimit="2.6131" stroke-width=".288"/>
  <path class="B C" d="m114.7 135.47-0.075 0.429-0.025 0.453 0.05 0.478 0.101 0.479 0.176 0.479 0.202 0.453 0.277 0.479 0.302 0.428 0.353 0.428 0.378 0.378 0.403 0.378 0.453 0.302 0.453 0.277 0.504 0.227 0.503 0.176 0.504 0.102 0.654 0.101 0.63 0.075 0.655 0.075 0.655 0.051 0.655 0.025h0.679l0.655-0.025 0.68-0.051 0.68-0.101 0.68-0.126 0.705-0.151 0.68-0.227 0.705-0.278 0.73-0.302 0.705-0.403 0.73-0.429-1.007 6.195-0.403 0.202-0.403 0.201-0.403 0.151-0.378 0.151-0.378 0.127-0.403 0.126-0.403 0.101-0.428 0.076-0.454 0.075-0.503 0.05-0.529 0.051-0.579 0.051-0.654 0.026h-0.68l-0.781 0.024h-0.831l-1.234-0.024-1.259-0.127-1.259-0.176-1.259-0.302-1.234-0.378-1.184-0.479-1.133-0.629-1.058-0.731-0.982-0.856-0.856-1.032-0.73-1.158-0.605-1.335-0.428-1.485-0.277-1.687-0.075-1.863 0.127-2.065 0.1-0.806 0.152-0.932 0.201-0.982 0.277-1.057 0.378-1.083 0.453-1.083 0.58-1.108 0.704-1.058 0.806-1.007 0.982-0.957 1.108-0.856 1.259-0.756 1.46-0.628 1.637-0.455 1.813-0.301 2.04-0.101 0.982 0.025 1.032 0.101 1.032 0.176 1.033 0.252 1.007 0.377 0.982 0.453 0.906 0.605 0.831 0.704 0.755 0.856 0.63 1.008 0.504 1.158 0.352 1.335 0.201 1.51 0.025 1.712-0.176 1.914-0.378 2.116-0.126 1.536h-18.357l1.158-4.96h11.03l0.05-0.63-0.025-0.605-0.051-0.554-0.101-0.504-0.177-0.479-0.176-0.428-0.252-0.378-0.252-0.353-0.302-0.302-0.327-0.252-0.378-0.226-0.378-0.202-0.403-0.151-0.403-0.101-0.428-0.076-0.453-0.05-0.479 0.025-0.453 0.075-0.428 0.101-0.428 0.151-0.428 0.202-0.378 0.227-0.378 0.277-0.327 0.302-0.327 0.353-0.303 0.378-0.277 0.403-0.227 0.428-0.227 0.453-0.176 0.504-0.151 0.504-0.101 0.529-1.007 5.212" fill="#fff" fill-rule="evenodd"/>
  <path class="D E F G" d="m114.7 135.47-0.075 0.429-0.025 0.453 0.05 0.478 0.101 0.479 0.176 0.479 0.202 0.453 0.277 0.479 0.302 0.428 0.353 0.428 0.378 0.378 0.403 0.378 0.453 0.302 0.453 0.277 0.504 0.227 0.503 0.176 0.504 0.102 0.654 0.101 0.63 0.075 0.655 0.075 0.655 0.051 0.655 0.025h0.679l0.655-0.025 0.68-0.051 0.68-0.101 0.68-0.126 0.705-0.151 0.68-0.227 0.705-0.278 0.73-0.302 0.705-0.403 0.73-0.429-1.007 6.195-0.403 0.202-0.403 0.201-0.403 0.151-0.378 0.151-0.378 0.127-0.403 0.126-0.403 0.101-0.428 0.076-0.454 0.075-0.503 0.05-0.529 0.051-0.579 0.051-0.654 0.026h-0.68l-0.781 0.024h-0.831l-1.234-0.024-1.259-0.127-1.259-0.176-1.259-0.302-1.234-0.378-1.184-0.479-1.133-0.629-1.058-0.731-0.982-0.856-0.856-1.032-0.73-1.158-0.605-1.335-0.428-1.485-0.277-1.687-0.075-1.863 0.127-2.065 0.1-0.806 0.152-0.932 0.201-0.982 0.277-1.057 0.378-1.083 0.453-1.083 0.58-1.108 0.704-1.058 0.806-1.007 0.982-0.957 1.108-0.856 1.259-0.756 1.46-0.628 1.637-0.455 1.813-0.301 2.04-0.101 0.982 0.025 1.032 0.101 1.032 0.176 1.033 0.252 1.007 0.377 0.982 0.453 0.906 0.605 0.831 0.704 0.755 0.856 0.63 1.008 0.504 1.158 0.352 1.335 0.201 1.51 0.025 1.712-0.176 1.914-0.378 2.116-0.126 1.536h-18.357l1.158-4.96h11.03l0.05-0.63-0.025-0.605-0.051-0.554-0.101-0.504-0.177-0.479-0.176-0.428-0.252-0.378-0.252-0.353-0.302-0.302-0.327-0.252-0.378-0.226-0.378-0.202-0.403-0.151-0.403-0.101-0.428-0.076-0.453-0.05-0.479 0.025-0.453 0.075-0.428 0.101-0.428 0.151-0.428 0.202-0.378 0.227-0.378 0.277-0.327 0.302-0.327 0.353-0.303 0.378-0.277 0.403-0.227 0.428-0.227 0.453-0.176 0.504-0.151 0.504-0.101 0.529-1.007 5.212" fill="none" stroke="#fff" stroke-miterlimit="2.6131" stroke-width=".288"/>
  <path class="B C" d="m174.76 121.8-0.328-0.176-0.327-0.151-0.353-0.176-0.377-0.177-0.377-0.151-0.428-0.151-0.428-0.152-0.453-0.151-0.479-0.125-0.479-0.101-0.528-0.101-0.529-0.075-0.58-0.051-0.579-0.051h-1.864l-0.655 0.051-0.68 0.076-0.704 0.125-0.705 0.201-0.705 0.277-0.705 0.353-0.705 0.452-0.679 0.555-0.656 0.655-0.629 0.805-0.604 0.932-0.553 1.108-0.529 1.259-0.479 1.41-0.403 1.611-0.152 0.906-0.1 0.881-0.051 0.882 0.025 0.856 0.076 0.856 0.176 0.806 0.227 0.756 0.277 0.755 0.377 0.68 0.453 0.655 0.529 0.579 0.604 0.529 0.68 0.453 0.78 0.378 0.856 0.328 0.957 0.227 0.328 0.075 0.377 0.076 0.453 0.051 0.503 0.05 0.555 0.051h1.21l0.629-0.051 0.655-0.076 0.655-0.126 0.629-0.176 0.629-0.201 0.629-0.277 0.58-0.328 0.528-0.402 0.504-0.454-1.133 6.723-0.151 0.126-0.151 0.151-0.201 0.176-0.228 0.152-0.276 0.201-0.353 0.176-0.403 0.176-0.453 0.151-0.579 0.177-0.655 0.126-0.756 0.101-0.881 0.101-0.983 0.051-1.132 0.026-1.285-0.026-1.409-0.075-1.159-0.126-1.159-0.251-1.157-0.378-1.159-0.503-1.108-0.605-1.059-0.755-1.007-0.882-0.932-1.007-0.831-1.133-0.705-1.259-0.604-1.41-0.453-1.536-0.301-1.687-0.101-1.788 0.049-1.965 0.277-2.09 0.201-1.032 0.228-1.007 0.251-0.982 0.252-0.932 0.277-0.881 0.327-0.882 0.328-0.831 0.352-0.781 0.379-0.78 0.377-0.731 0.428-0.705 0.453-0.655 0.453-0.629 0.504-0.604 0.503-0.555 0.529-0.528 0.58-0.504 0.579-0.479 0.604-0.428 0.629-0.403 0.68-0.377 0.68-0.328 0.705-0.303 0.731-0.276 0.78-0.252 0.78-0.201 0.807-0.177 0.856-0.151 0.856-0.125 0.907-0.1 0.907-0.052 0.957-0.024 0.805 0.024 0.781 0.052 0.755 0.073 0.756 0.103 0.704 0.1 0.681 0.151 0.653 0.127 0.605 0.151 0.579 0.151 0.504 0.152 0.479 0.151 0.403 0.151 0.352 0.127 0.303 0.101 0.227 0.1 0.151 0.051-1.259 6.975" fill="#fff" fill-rule="evenodd"/>
  <path class="D E F G" d="m174.76 121.8-0.328-0.176-0.327-0.151-0.353-0.176-0.377-0.177-0.377-0.151-0.428-0.151-0.428-0.152-0.453-0.151-0.479-0.125-0.479-0.101-0.528-0.101-0.529-0.075-0.58-0.051-0.579-0.051h-1.864l-0.655 0.051-0.68 0.076-0.704 0.125-0.705 0.201-0.705 0.277-0.705 0.353-0.705 0.452-0.679 0.555-0.656 0.655-0.629 0.805-0.604 0.932-0.553 1.108-0.529 1.259-0.479 1.41-0.403 1.611-0.152 0.906-0.1 0.881-0.051 0.882 0.025 0.856 0.076 0.856 0.176 0.806 0.227 0.756 0.277 0.755 0.377 0.68 0.453 0.655 0.529 0.579 0.604 0.529 0.68 0.453 0.78 0.378 0.856 0.328 0.957 0.227 0.328 0.075 0.377 0.076 0.453 0.051 0.503 0.05 0.555 0.051h1.21l0.629-0.051 0.655-0.076 0.655-0.126 0.629-0.176 0.629-0.201 0.629-0.277 0.58-0.328 0.528-0.402 0.504-0.454-1.133 6.723-0.151 0.126-0.151 0.151-0.201 0.176-0.228 0.152-0.276 0.201-0.353 0.176-0.403 0.176-0.453 0.151-0.579 0.177-0.655 0.126-0.756 0.101-0.881 0.101-0.983 0.051-1.132 0.026-1.285-0.026-1.409-0.075-1.159-0.126-1.159-0.251-1.157-0.378-1.159-0.503-1.108-0.605-1.059-0.755-1.007-0.882-0.932-1.007-0.831-1.133-0.705-1.259-0.604-1.41-0.453-1.536-0.301-1.687-0.101-1.788 0.049-1.965 0.277-2.09 0.201-1.032 0.228-1.007 0.251-0.982 0.252-0.932 0.277-0.881 0.327-0.882 0.328-0.831 0.352-0.781 0.379-0.78 0.377-0.731 0.428-0.705 0.453-0.655 0.453-0.629 0.504-0.604 0.503-0.555 0.529-0.528 0.58-0.504 0.579-0.479 0.604-0.428 0.629-0.403 0.68-0.377 0.68-0.328 0.705-0.303 0.731-0.276 0.78-0.252 0.78-0.201 0.807-0.177 0.856-0.151 0.856-0.125 0.907-0.1 0.907-0.052 0.957-0.024 0.805 0.024 0.781 0.052 0.755 0.073 0.756 0.103 0.704 0.1 0.681 0.151 0.653 0.127 0.605 0.151 0.579 0.151 0.504 0.152 0.479 0.151 0.403 0.151 0.352 0.127 0.303 0.101 0.227 0.1 0.151 0.051-1.259 6.975" fill="none" stroke="#fff" stroke-miterlimit="2.6131" stroke-width=".288"/>
  <path class="B C" d="m236.76 147.26h-6.976l0.504-2.795v-0.251l-0.403 0.504-0.428 0.454-0.429 0.403-0.452 0.353-0.455 0.328-0.452 0.277-0.453 0.227-0.479 0.227-0.479 0.176-0.958 0.252-0.503 0.075-0.504 0.076-0.479 0.05-0.504 0.025h-0.503l-1.309-0.101-1.209-0.277-1.108-0.428-1.007-0.579-0.907-0.73-0.807-0.856-0.704-0.932-0.605-1.057-0.503-1.133-0.404-1.184-0.277-1.234-0.2-1.284-0.076-1.284 0.025-1.309 0.125-1.284 0.227-1.284 0.377-1.485 0.455-1.41 0.528-1.284 0.629-1.208 0.655-1.134 0.756-1.007 0.78-0.906 0.832-0.831 0.881-0.731 0.931-0.629 0.957-0.555 0.957-0.428 1.007-0.352 1.008-0.227 1.007-0.151 1.032-0.051 0.731 0.025 0.705 0.076 0.655 0.125 0.604 0.176 0.58 0.201 0.503 0.227 0.504 0.277 0.453 0.277 0.403 0.301 0.379 0.328 0.327 0.327 0.301 0.328 0.253 0.328 0.225 0.327 0.203 0.302 0.151 0.302 1.763-9.896h6.849l-5.691 32.937" fill="#fff" fill-rule="evenodd"/>
  <path class="D E F G" d="m236.76 147.26h-6.976l0.504-2.795v-0.251l-0.403 0.504-0.428 0.454-0.429 0.403-0.452 0.353-0.455 0.328-0.452 0.277-0.453 0.227-0.479 0.227-0.479 0.176-0.958 0.252-0.503 0.075-0.504 0.076-0.479 0.05-0.504 0.025h-0.503l-1.309-0.101-1.209-0.277-1.108-0.428-1.007-0.579-0.907-0.73-0.807-0.856-0.704-0.932-0.605-1.057-0.503-1.133-0.404-1.184-0.277-1.234-0.2-1.284-0.076-1.284 0.025-1.309 0.125-1.284 0.227-1.284 0.377-1.485 0.455-1.41 0.528-1.284 0.629-1.208 0.655-1.134 0.756-1.007 0.78-0.906 0.832-0.831 0.881-0.731 0.931-0.629 0.957-0.555 0.957-0.428 1.007-0.352 1.008-0.227 1.007-0.151 1.032-0.051 0.731 0.025 0.705 0.076 0.655 0.125 0.604 0.176 0.58 0.201 0.503 0.227 0.504 0.277 0.453 0.277 0.403 0.301 0.379 0.328 0.327 0.327 0.301 0.328 0.253 0.328 0.225 0.327 0.203 0.302 0.151 0.302 1.763-9.896h6.849l-5.691 32.937" fill="none" stroke="#fff" stroke-miterlimit="2.6131" stroke-width=".288"/>
  <g class="B" fill-rule="evenodd">
   <path class="H" d="m225.35 141.16 0.705-0.051 0.655-0.151 0.604-0.177 0.58-0.277 0.528-0.302 0.504-0.378 0.479-0.428 0.428-0.454 0.377-0.503 0.352-0.554 0.328-0.579 0.277-0.604 0.252-0.63 0.201-0.655 0.176-0.68 0.125-0.68 0.127-0.705 0.076-0.73v-0.68l-0.025-0.705-0.076-0.655-0.101-0.629-0.176-0.604-0.201-0.58-0.252-0.503-0.301-0.479-0.328-0.403-0.377-0.353-0.428-0.302-0.453-0.202-0.479-0.126-0.529-0.051-0.68 0.051-0.628 0.101-0.58 0.202-0.58 0.252-0.503 0.328-0.504 0.403-0.428 0.428-0.428 0.478-0.377 0.554-0.353 0.579-0.327 0.604-0.277 0.655-0.252 0.68-0.201 0.68-0.201 0.73-0.151 0.731-0.127 1.108 0.051 1.208 0.176 1.234 0.328 1.183 0.504 1.032 0.655 0.831 0.831 0.554 1.007 0.202" fill="#f9ab1e"/>
   <path class="C" d="m70.712 141.67-1.007 5.59h-6.346l0.176-1.032 0.127-0.932 0.101-0.705 0.101-0.378-0.353 0.403-0.403 0.403-0.478 0.378-0.529 0.353-0.605 0.352-0.63 0.303-0.655 0.302-0.68 0.252-0.73 0.226-0.73 0.177-0.73 0.151-0.755 0.101-0.731 0.051-0.73 0.025-0.705-0.076-0.68-0.101-0.881-0.227-0.806-0.252-0.705-0.328-0.63-0.378-0.554-0.403-0.504-0.453-0.403-0.479-0.353-0.504-0.302-0.529-0.252-0.555-0.201-0.553-0.152-0.554-0.101-0.579-0.075-0.579-0.051-0.554v-0.554l0.076-0.982 0.151-0.932 0.252-0.881 0.327-0.856 0.403-0.806 0.453-0.731 0.529-0.705 0.605-0.63 0.629-0.579 0.705-0.529 0.73-0.478 0.756-0.403 0.806-0.353 0.832-0.277 0.856-0.227 0.881-0.151h0.05l0.126-0.025 0.177-0.025 0.277-0.025 0.302-0.051 0.353-0.025 0.378-0.05 0.856-0.102 0.428-0.05 0.454-0.026 0.403-0.05 0.403-0.025 0.378-0.025 0.353-0.025h0.856l0.605 0.025 0.554 0.025h0.554l0.453 0.025 0.353 0.025 0.252 0.025h0.076l0.05-0.176 0.151-0.453 0.126-0.529 0.051-0.479-0.101-0.554-0.227-0.504-0.302-0.453-0.403-0.378-0.479-0.327-0.529-0.227-0.604-0.151-0.655-0.051-0.705-0.025-0.755-0.025h-0.781l-0.806 0.025-0.831 0.051-0.806 0.075-0.806 0.076-0.781 0.101-0.756 0.101-0.73 0.126-0.655 0.126-0.604 0.126-0.555 0.151-0.453 0.151-0.353 0.177-0.277 0.151 1.788-6.069 0.554-0.227 0.554-0.201 0.605-0.176 0.604-0.127 0.604-0.125 0.655-0.101 0.655-0.1 0.68-0.051 0.705-0.051 0.73-0.025 0.755-0.024h2.418l0.881 0.024 0.881 0.025 0.705 0.051 0.756 0.125 0.78 0.176 0.806 0.227 0.78 0.303 0.756 0.352 0.755 0.429 0.705 0.479 0.63 0.553 0.554 0.604 0.504 0.681 0.378 0.755 0.252 0.806 0.151 0.856v0.957l-0.151 1.007-2.543 13.295" fill="#fff"/>
  </g>
  <path class="D E F G" d="m70.712 141.67-1.007 5.59h-6.346l0.176-1.032 0.127-0.932 0.101-0.705 0.101-0.378-0.353 0.403-0.403 0.403-0.478 0.378-0.529 0.353-0.605 0.352-0.63 0.303-0.655 0.302-0.68 0.252-0.73 0.226-0.73 0.177-0.73 0.151-0.755 0.101-0.731 0.051-0.73 0.025-0.705-0.076-0.68-0.101-0.881-0.227-0.806-0.252-0.705-0.328-0.63-0.378-0.554-0.403-0.504-0.453-0.403-0.479-0.353-0.504-0.302-0.529-0.252-0.555-0.201-0.553-0.152-0.554-0.101-0.579-0.075-0.579-0.051-0.554v-0.554l0.076-0.982 0.151-0.932 0.252-0.881 0.327-0.856 0.403-0.806 0.453-0.731 0.529-0.705 0.605-0.63 0.629-0.579 0.705-0.529 0.73-0.478 0.756-0.403 0.806-0.353 0.832-0.277 0.856-0.227 0.881-0.151h0.05l0.126-0.025 0.177-0.025 0.277-0.025 0.302-0.051 0.353-0.025 0.378-0.05 0.856-0.102 0.428-0.05 0.454-0.026 0.403-0.05 0.403-0.025 0.378-0.025 0.353-0.025h0.856l0.605 0.025 0.554 0.025h0.554l0.453 0.025 0.353 0.025 0.252 0.025h0.076l0.05-0.176 0.151-0.453 0.126-0.529 0.051-0.479-0.101-0.554-0.227-0.504-0.302-0.453-0.403-0.378-0.479-0.327-0.529-0.227-0.604-0.151-0.655-0.051-0.705-0.025-0.755-0.025h-0.781l-0.806 0.025-0.831 0.051-0.806 0.075-0.806 0.076-0.781 0.101-0.756 0.101-0.73 0.126-0.655 0.126-0.604 0.126-0.555 0.151-0.453 0.151-0.353 0.177-0.277 0.151 1.788-6.069 0.554-0.227 0.554-0.201 0.605-0.176 0.604-0.127 0.604-0.125 0.655-0.101 0.655-0.1 0.68-0.051 0.705-0.051 0.73-0.025 0.755-0.024h2.418l0.881 0.024 0.881 0.025 0.705 0.051 0.756 0.125 0.78 0.176 0.806 0.227 0.78 0.303 0.756 0.352 0.755 0.429 0.705 0.479 0.63 0.553 0.554 0.604 0.504 0.681 0.378 0.755 0.252 0.806 0.151 0.856v0.957l-0.151 1.007-2.543 13.295" fill="none" stroke="#fff" stroke-miterlimit="2.6131" stroke-width=".288"/>
  <g class="B" fill-rule="evenodd">
   <path d="m64.643 135.1-0.025-0.126-0.101-0.126-0.151-0.076-0.252-0.05-0.277-0.051-0.328-0.025h-0.756l-0.403 0.025-0.428 0.051-0.403 0.05-0.403 0.051-0.378 0.05-0.353 0.076-0.302 0.075-0.277 0.075-0.177 0.051-0.201 0.076-0.277 0.101-0.277 0.126-0.328 0.151-0.327 0.177-0.353 0.176-0.328 0.202-0.352 0.252-0.327 0.252-0.303 0.302-0.277 0.302-0.252 0.328-0.177 0.352-0.151 0.403-0.075 0.403-0.025 0.857 0.126 0.68 0.252 0.503 0.328 0.379 0.378 0.252 0.429 0.151 0.402 0.076 0.404 0.025 0.755-0.025 0.679-0.076 0.656-0.101 0.579-0.152 0.504-0.176 0.479-0.227 0.428-0.227 0.378-0.277 0.327-0.252 0.302-0.303 0.252-0.277 0.201-0.302 0.176-0.302 0.151-0.302 0.126-0.277 0.075-0.277 0.202-0.73 0.176-0.831 0.151-0.806 0.126-0.655" fill="#ed192d"/>
   <path class="C" d="m17.73 147.26h-6.849l5.716-33.062h11.91l1.133 19.616 8.234-19.616h12.441l-5.843 33.062h-6.849l4.331-24.702h-0.277l-10.249 24.702h-7.731l-0.05-1.032-0.176-2.745-0.227-3.903-0.252-4.482-0.251-4.508-0.227-3.953-0.176-2.871-0.051-1.208h-0.377l-4.18 24.702" fill="#fff"/>
  </g>
  <path class="D E F G" d="m17.73 147.26h-6.849l5.716-33.062h11.91l1.133 19.616 8.234-19.616h12.441l-5.843 33.062h-6.849l4.331-24.702h-0.277l-10.249 24.702h-7.731l-0.05-1.032-0.176-2.745-0.227-3.903-0.252-4.482-0.251-4.508-0.227-3.953-0.176-2.871-0.051-1.208h-0.377l-4.18 24.702" fill="none" stroke="#fff" stroke-miterlimit="2.6131" stroke-width=".288"/>
  <g fill-rule="evenodd">
   <g class="B C" fill="#fff">
    <path d="m195.69 141.67-1.033 5.59h-6.32l0.049-1.032 0.027-0.906v-0.68l0.049-0.302-0.328 0.378-0.377 0.378-0.453 0.353-0.503 0.353-0.529 0.328-0.604 0.302-0.631 0.302-0.629 0.252-0.68 0.201-0.704 0.201-0.705 0.126-0.705 0.101-0.731 0.051-0.705 0.025-0.68-0.076-0.679-0.101-0.908-0.227-0.805-0.252-0.704-0.328-0.655-0.378-0.555-0.403-0.479-0.453-0.403-0.479-0.352-0.504-0.303-0.529-0.227-0.555-0.201-0.553-0.127-0.554-0.1-0.579-0.076-0.579-0.051-0.554v-0.554l0.051-0.982 0.151-0.932 0.228-0.881 0.327-0.856 0.377-0.806 0.479-0.731 0.529-0.705 0.579-0.63 0.655-0.579 0.68-0.529 0.731-0.478 0.78-0.403 0.781-0.353 0.831-0.277 0.831-0.227 0.857-0.151h0.049l0.127-0.025 0.176-0.025 0.252-0.025 0.327-0.051 0.353-0.025 0.377-0.05 0.403-0.051 0.428-0.051 0.453-0.05 0.428-0.026 0.428-0.05 0.403-0.025 0.353-0.025 0.352-0.025h0.881l0.604 0.025 0.58 0.025h0.553l0.479 0.025 0.403 0.025 0.228 0.025h0.1l0.051-0.176 0.075-0.453 0.076-0.529 0.051-0.479-0.101-0.554-0.2-0.504-0.329-0.453-0.377-0.378-0.453-0.327-0.528-0.227-0.555-0.151-0.604-0.051-0.705-0.025-0.756-0.025h-0.78l-0.805 0.025-0.832 0.051-0.805 0.075-0.805 0.076-0.781 0.101-0.755 0.101-0.731 0.126-0.655 0.126-0.604 0.126-0.555 0.151-0.453 0.151-0.352 0.177-0.277 0.151 1.763-6.069 0.555-0.227 0.579-0.201 0.579-0.176 0.604-0.127 0.631-0.125 0.629-0.101 0.655-0.1 0.68-0.051 0.705-0.051 0.729-0.025 0.731-0.024h2.366l0.857 0.024 0.855 0.025 0.707 0.051 0.755 0.125 0.781 0.176 0.805 0.227 0.78 0.303 0.781 0.352 0.755 0.429 0.705 0.479 0.629 0.553 0.58 0.604 0.504 0.681 0.377 0.755 0.276 0.806 0.177 0.856v0.957l-0.127 1.007-2.643 13.295"/>
    <path d="m194.66 147.43 0.151-0.151 1.032-5.59-0.301-0.051-1.032 5.591 0.151-0.152v0.353l0.125-0.025 0.025-0.126-0.151 0.151"/>
    <path d="m188.18 147.26 0.152 0.177h6.32v-0.353h-6.32l0.151 0.176h-0.303l-0.025 0.177h0.177l-0.152-0.177"/>
    <path d="m188.59 144.44-0.225-0.202-0.101 0.403-0.025 0.68v0.906l-0.051 1.032h0.303l0.051-1.032 0.049-0.906-0.025-0.68v-0.201l-0.225-0.202 0.251 0.202"/>
    <path d="m178.79 147.66 0.705 0.101 0.68 0.076 0.705-0.026 0.731-0.05 0.731-0.101 0.705-0.126 0.704-0.201 0.705-0.201 0.629-0.252 0.655-0.303 0.604-0.302 1.058-0.706 0.453-0.353 0.403-0.403 0.327-0.377-0.251-0.202-0.328 0.378-0.352 0.353-0.453 0.353-0.479 0.353-0.529 0.302-0.604 0.302-0.605 0.302-0.628 0.252-0.656 0.202-0.704 0.202-0.705 0.125-0.68 0.101-0.731 0.051-0.705 0.025-0.68-0.075-0.653-0.101-0.052 0.302"/>
    <path d="m172.7 140.03 0.025 0.554 0.051 0.554 0.075 0.604 0.101 0.579 0.125 0.554 0.201 0.579 0.227 0.579 0.328 0.529 0.353 0.529 0.403 0.479 0.503 0.479 0.58 0.403 0.655 0.403 0.729 0.327 0.832 0.252 0.905 0.227 0.052-0.302-0.907-0.227-0.781-0.252-0.68-0.328-0.655-0.352-0.529-0.403-0.452-0.428-0.404-0.478-0.352-0.479-0.277-0.529-0.227-0.529-0.201-0.529-0.125-0.554-0.101-0.579-0.076-0.554-0.049-0.554 0.025-0.554h-0.353"/>
    <path d="m181.74 130.36-0.883 0.151-0.856 0.227-0.831 0.277-0.805 0.353-0.781 0.403-0.756 0.504-0.679 0.529-0.655 0.604-0.605 0.629-0.528 0.705-0.504 0.756-0.377 0.831-0.328 0.856-0.227 0.907-0.151 0.957-0.076 0.982h0.353l0.024-0.982 0.152-0.907 0.227-0.856 0.327-0.856 0.377-0.781 0.453-0.705 0.529-0.705 0.553-0.629 0.656-0.554 0.679-0.529 0.705-0.454 0.781-0.403 0.755-0.352 0.832-0.277 0.805-0.227 0.832-0.151v-0.302"/>
    <path d="m186.92 129.83h-0.277l-0.352 0.05-0.353 0.025-0.403 0.025-0.428 0.05-0.428 0.025-0.453 0.05-0.428 0.051-0.403 0.051-0.377 0.05-0.353 0.025-0.327 0.051-0.252 0.025-0.203 0.025-0.1 0.025h-0.049v0.302h0.049l0.151-0.025 0.152-0.026 0.252-0.025 0.327-0.05 0.353-0.025 0.377-0.051 0.403-0.051 0.428-0.05 0.453-0.05 0.428-0.025 0.428-0.051 0.403-0.025 0.353-0.025h0.629v-0.352"/>
    <path d="m190.32 130.11 0.152-0.126h-0.1l-0.228-0.025-0.403-0.025-0.479-0.051h-1.133l-0.604-0.05h-0.604v0.352h1.208l0.58 0.051h1.032l0.403 0.025 0.228 0.025h0.1l0.151-0.126-0.151 0.126 0.125 0.025 0.025-0.151-0.303-0.051"/>
    <path d="m190.58 128.5h-0.024l-0.025 0.479-0.076 0.504-0.075 0.453-0.052 0.176 0.303 0.051 0.051-0.177 0.075-0.453 0.076-0.554 0.076-0.479h-0.328"/>
    <path d="m187.58 126v0.025l0.579 0.025 0.529 0.151 0.504 0.227 0.428 0.303 0.352 0.353 0.303 0.428 0.201 0.454 0.1 0.528h0.303l-0.101-0.579-0.201-0.554-0.352-0.479-0.403-0.403-0.479-0.353-0.555-0.227-0.579-0.151-0.629-0.075v0.328"/>
    <path d="m176.78 127.21 0.251 0.152 0.253-0.127 0.327-0.176 0.428-0.151 0.555-0.151 0.604-0.126 0.655-0.126 0.729-0.125 0.731-0.101 0.781-0.101 0.805-0.076 0.805-0.075 0.832-0.051h2.341l0.705 0.026v-0.303l-0.705-0.025-0.756-0.051h-0.78l-0.805 0.051-0.832 0.05-0.805 0.076-0.805 0.075-0.781 0.101-0.78 0.101-0.731 0.125-0.655 0.126-0.604 0.126-0.555 0.151-0.479 0.151-0.377 0.176-0.303 0.177 0.252 0.151-0.301-0.051"/>
    <path d="m178.64 121.02-0.1 0.125-1.763 6.069 0.301 0.051 1.764-6.069-0.101 0.125-0.101-0.301-0.075 0.025-0.025 0.1 0.1-0.125"/>
    <path d="m189.84 119.86-0.855-0.051-0.857-0.025h-2.366l-0.731 0.051-0.729 0.025-0.705 0.051-0.68 0.051-0.68 0.1-0.629 0.1-0.629 0.127-0.604 0.125-0.605 0.176-0.579 0.203-0.555 0.227 0.101 0.301 0.553-0.225 0.579-0.203 0.555-0.176 0.605-0.127 0.629-0.125 0.629-0.101 0.629-0.1 0.68-0.051 0.705-0.051 0.729-0.024h3.097l0.857 0.024h0.855v-0.301"/>
    <path d="m198.48 128.4 0.125-1.032v-0.957l-0.176-0.881-0.277-0.831-0.403-0.78-0.504-0.705-0.604-0.629-0.629-0.555-0.731-0.479-0.755-0.452-0.807-0.353-0.781-0.303-0.831-0.227-0.78-0.176-0.78-0.125-0.707-0.051v0.301l0.707 0.051 0.729 0.127 0.78 0.176 0.781 0.227 0.781 0.303 0.755 0.352 0.756 0.403 0.68 0.479 0.629 0.555 0.553 0.579 0.504 0.654 0.353 0.731 0.276 0.781 0.176 0.831v0.957l-0.125 0.982 0.303 0.05"/>
    <path d="m195.84 141.69 2.645-13.296-0.303-0.05-2.644 13.296 0.301 0.051"/>
   </g>
   <path class="B H" d="m189.59 135.1-0.051-0.151-0.1-0.126-0.177-0.076-0.252-0.076-0.276-0.025-0.327-0.025h-0.379l-0.377 0.025-0.403 0.051-0.404 0.05-0.403 0.051-0.377 0.05-0.379 0.076-0.327 0.05-0.328 0.075-0.252 0.051-0.176 0.025-0.201 0.076-0.251 0.076-0.277 0.1-0.328 0.151-0.303 0.151-0.352 0.176-0.327 0.227-0.328 0.227-0.327 0.277-0.277 0.277-0.277 0.328-0.227 0.353-0.176 0.378-0.152 0.403-0.075 0.428-0.025 0.857 0.125 0.68 0.203 0.503 0.301 0.379 0.377 0.252 0.428 0.151 0.429 0.076 0.428 0.025 0.755-0.025 0.705-0.076 0.655-0.126 0.579-0.176 0.555-0.202 0.479-0.227 0.453-0.252 0.403-0.302 0.352-0.277 0.303-0.327 0.277-0.303 0.227-0.327 0.176-0.303 0.125-0.302 0.101-0.303 0.076-0.277 0.1-0.705 0.127-0.73 0.1-0.705 0.051-0.63" fill="#f9ab1e"/>
   <g class="C B" fill="#fff">
    <path d="m241.47 143.81 0.051-0.579 0.201-0.68 0.353-0.604 0.428-0.529 0.528-0.428 0.604-0.302 0.656-0.202 0.704-0.075 0.705 0.075 0.655 0.202 0.605 0.302 0.528 0.428 0.428 0.529 0.353 0.604 0.201 0.68 0.049 0.579h-0.755l-0.025-0.453-0.151-0.554-0.252-0.504-0.328-0.428-0.403-0.353-0.479-0.252-0.553-0.177-0.58-0.051-0.579 0.051-0.553 0.177-0.479 0.252-0.404 0.353-0.327 0.428-0.252 0.504-0.151 0.554-0.051 0.453h-0.731m2.271 0v-1.511h1.385l0.301 0.025 0.277 0.051 0.201 0.076 0.176 0.101 0.127 0.151 0.101 0.151 0.049 0.176 0.025 0.176-0.025 0.227-0.049 0.176-0.076 0.151-0.051 0.051h-1.057l0.101-0.025 0.176-0.026 0.151-0.05 0.125-0.051 0.101-0.075 0.051-0.076 0.051-0.126v-0.177l-0.025-0.126-0.051-0.1-0.076-0.051-0.076-0.05-0.25-0.05h-1.034v0.982h-0.629"/>
    <path d="m241.47 143.81-0.025 0.151 0.076 0.73 0.201 0.68 0.353 0.605 0.428 0.504 0.528 0.428 0.604 0.328 0.656 0.201 0.704 0.076 0.705-0.076 0.655-0.201 0.605-0.328 0.528-0.428 0.428-0.504 0.353-0.605 0.201-0.68 0.076-0.73-0.027-0.151h-0.755l0.025 0.151-0.051 0.604-0.151 0.554-0.252 0.479-0.328 0.427-0.403 0.353-0.479 0.277-0.553 0.177-0.58 0.051-0.579-0.051-0.553-0.177-0.479-0.277-0.404-0.353-0.327-0.427-0.252-0.479-0.151-0.554-0.051-0.604v-0.151h-0.731m2.272 0v1.536h0.629v-1.259h0.629l0.756 1.259h0.504l-0.756-1.259h0.176l0.177-0.051 0.151-0.051 0.125-0.101 0.051-0.075h-1.057l-0.127 0.025h-0.629v-0.025h-0.629"/>
   </g>
  </g>
  <g class="D E F G" fill="none" stroke="#fff" stroke-miterlimit="2.6131" stroke-width=".288">
   <path d="m241.44 143.96 0.076-0.73 0.201-0.68 0.353-0.604 0.428-0.529 0.528-0.428 0.604-0.302 0.656-0.202 0.704-0.075 0.705 0.075 0.655 0.202 0.605 0.302 0.528 0.428 0.428 0.529 0.353 0.604 0.201 0.68 0.076 0.73-0.076 0.73-0.201 0.68-0.353 0.605-0.428 0.504-0.528 0.428-0.605 0.328-0.655 0.201-0.705 0.076-0.704-0.076-0.656-0.201-0.604-0.328-0.528-0.428-0.428-0.504-0.353-0.605-0.201-0.68-0.076-0.73"/>
   <path d="m244.36 145.34h-0.629v-3.047h1.385l0.301 0.025 0.277 0.051 0.201 0.076 0.176 0.101 0.127 0.151 0.101 0.151 0.049 0.176 0.025 0.176-0.025 0.227-0.049 0.176-0.076 0.151-0.101 0.126-0.125 0.101-0.151 0.051-0.177 0.051h-0.176l0.756 1.259h-0.504l-0.756-1.259h-0.629v1.259"/>
   <path d="m244.99 143.83 0.228-0.05 0.176-0.026 0.151-0.05 0.125-0.051 0.101-0.075 0.051-0.076 0.051-0.126v-0.177l-0.025-0.126-0.051-0.1-0.076-0.051-0.076-0.05-0.25-0.05h-1.034v1.007h0.629"/>
   <path d="m244.99 146.88 0.58-0.051 0.553-0.177 0.479-0.277 0.403-0.353 0.328-0.427 0.252-0.479 0.151-0.554 0.051-0.604-0.051-0.604-0.151-0.554-0.252-0.504-0.328-0.428-0.403-0.353-0.479-0.252-0.553-0.177-0.58-0.051-0.579 0.051-0.553 0.177-0.479 0.252-0.404 0.353-0.327 0.428-0.252 0.504-0.151 0.554-0.051 0.604 0.051 0.604 0.151 0.554 0.252 0.479 0.327 0.427 0.404 0.353 0.479 0.277 0.553 0.177 0.579 0.051"/>
  </g>
  <path class="B C" d="m197.58 147.26h7.101l2.543-14.328 0.101-0.554 0.302-1.108 0.203-0.554 0.251-0.554 0.303-0.529 0.327-0.504 0.404-0.478 0.453-0.428 0.503-0.403 0.58-0.378 0.655-0.302 0.729-0.252 0.807-0.202 0.881-0.151 0.981-0.05h0.63l1.133-6.472-0.704 0.051-0.68 0.076-0.631 0.125-0.604 0.176-0.553 0.201-0.529 0.252-0.504 0.277-0.479 0.303-0.452 0.352-0.429 0.353-0.806 0.806-0.377 0.428-0.377 0.478-0.377 0.453-0.353 0.504 0.756-4.558h-7.077l-4.708 26.969" fill="#fff" fill-rule="evenodd"/>
  <path class="D E F G" d="m197.58 147.26h7.101l2.543-14.328 0.101-0.554 0.302-1.108 0.203-0.554 0.251-0.554 0.303-0.529 0.327-0.504 0.404-0.478 0.453-0.428 0.503-0.403 0.58-0.378 0.655-0.302 0.729-0.252 0.807-0.202 0.881-0.151 0.981-0.05h0.63l1.133-6.472-0.704 0.051-0.68 0.076-0.631 0.125-0.604 0.176-0.553 0.201-0.529 0.252-0.504 0.277-0.479 0.303-0.452 0.352-0.429 0.353-0.806 0.806-0.377 0.428-0.377 0.478-0.377 0.453-0.353 0.504 0.756-4.558h-7.077l-4.708 26.969" fill="none" stroke="#fff" stroke-miterlimit="2.6131" stroke-width=".288"/>
  <path class="B C" d="m130.9 147.26h7.228l2.416-14.328 0.101-0.554 0.125-0.529 0.127-0.529 0.176-0.504 0.201-0.504 0.252-0.478 0.303-0.454 0.352-0.428 0.403-0.378 0.453-0.378 0.555-0.302 0.604-0.277 0.705-0.227 0.78-0.201 0.856-0.126 0.983-0.075h0.075l0.101 0.025 0.127 0.025h0.125l0.125 0.025 0.101 0.026 0.075 0.025h0.027l0.024-0.101 0.076-0.303 0.101-0.453 0.125-0.554 0.176-0.655 0.176-0.705 0.228-0.705 0.225-0.705 0.201-0.479 0.504-0.958 0.252-0.428 0.227-0.377 0.176-0.301 0.127-0.177 0.049-0.075h-0.024l-0.101-0.025-0.127-0.025-0.176-0.025h-0.176l-0.201-0.025-0.176-0.025h-0.176l-0.781 0.051-0.705 0.076-0.655 0.125-0.604 0.151-0.579 0.203-0.529 0.251-0.479 0.252-0.453 0.303-0.428 0.328-0.403 0.377-0.377 0.377-0.379 0.428-0.377 0.428-0.352 0.479-0.379 0.503-0.377 0.504 0.907-4.558h-7.227l-4.709 26.969" fill="#fff" fill-rule="evenodd"/>
  <path class="D E F G" d="m130.9 147.26h7.228l2.416-14.328 0.101-0.554 0.125-0.529 0.127-0.529 0.176-0.504 0.201-0.504 0.252-0.478 0.303-0.454 0.352-0.428 0.403-0.378 0.453-0.378 0.555-0.302 0.604-0.277 0.705-0.227 0.78-0.201 0.856-0.126 0.983-0.075h0.075l0.101 0.025 0.127 0.025h0.125l0.125 0.025 0.101 0.026 0.075 0.025h0.027l0.024-0.101 0.076-0.303 0.101-0.453 0.125-0.554 0.176-0.655 0.176-0.705 0.228-0.705 0.225-0.705 0.201-0.479 0.504-0.958 0.252-0.428 0.227-0.377 0.176-0.301 0.127-0.177 0.049-0.075h-0.024l-0.101-0.025-0.127-0.025-0.176-0.025h-0.176l-0.201-0.025-0.176-0.025h-0.176l-0.781 0.051-0.705 0.076-0.655 0.125-0.604 0.151-0.579 0.203-0.529 0.251-0.479 0.252-0.453 0.303-0.428 0.328-0.403 0.377-0.377 0.377-0.379 0.428-0.377 0.428-0.352 0.479-0.379 0.503-0.377 0.504 0.907-4.558h-7.227l-4.709 26.969" fill="none" stroke="#fff" stroke-miterlimit="2.6131" stroke-width=".288"/>
  <g class="B H" fill="#f9ab1e" fill-rule="evenodd">
   <path d="m241.52 173.75v-0.101l0.201-0.655 0.353-0.579 0.428-0.504 0.528-0.403 0.604-0.302 0.656-0.176 0.704-0.075 0.705 0.075 0.655 0.176 0.605 0.302 0.528 0.403 0.428 0.504 0.353 0.579 0.201 0.655v0.101h-0.731l-0.151-0.529-0.252-0.479-0.328-0.428-0.403-0.352-0.479-0.277-0.553-0.177-0.58-0.05-0.579 0.05-0.553 0.177-0.479 0.277-0.404 0.352-0.327 0.428-0.252 0.479-0.151 0.529h-0.731m2.22 0v-0.881h1.687l0.277 0.051 0.201 0.051 0.176 0.101 0.127 0.126 0.101 0.151 0.049 0.177 0.025 0.226h-0.503v-0.126l-0.025-0.126-0.051-0.101-0.076-0.05-0.076-0.051-0.25-0.05h-1.034v0.503h-0.629"/>
   <path d="m241.44 174.3 0.076-0.554h0.731v0.025l-0.051 0.529h-0.756m2.292 0v-0.554h0.629v0.504h0.629l0.228-0.051 0.176-0.024 0.151-0.051 0.125-0.051 0.101-0.076 0.051-0.075 0.051-0.126v-0.051h0.503l-0.025 0.177-0.049 0.151-0.076 0.125-0.101 0.101h-2.392m4.054 1e-3 -0.051-0.529v-0.025h0.731l0.076 0.554h-0.756"/>
   <path d="m241.44 174.3v0.075l0.076 0.73 0.201 0.68 0.353 0.604 0.428 0.529 0.528 0.429 0.604 0.302 0.656 0.202 0.704 0.075 0.705-0.075 0.655-0.202 0.605-0.302 0.528-0.429 0.428-0.529 0.353-0.604 0.201-0.68 0.076-0.73v-0.075h-0.756v0.075l-0.051 0.605-0.151 0.554-0.252 0.479-0.328 0.428-0.403 0.353-0.479 0.277-0.553 0.176-0.58 0.051-0.579-0.051-0.553-0.176-0.479-0.277-0.404-0.353-0.327-0.428-0.252-0.479-0.151-0.554-0.051-0.605v-0.075h-0.756m2.296 0v1.46h0.629v-1.259h0.629l0.756 1.259h0.504l-0.756-1.259h0.176l0.177-0.051 0.151-0.051 0.125-0.101h-2.392"/>
  </g>
 </g>
</svg>
