<svg width="234.33" height="157.74" version="1.1" xmlns="http://www.w3.org/2000/svg">
 <g transform="translate(.71751 .78414)">
  <path d="m0 0h231.8v152.88h-231.8v-152.88" fill="#fff" fill-rule="evenodd" stroke-width=".73247"/>
  <path d="m229.63 156.96h-230.35v-157.74h234.33v157.74h-3.981" fill="#15569c"/>
  <g transform="matrix(1 0 0 1.001 -12.403 -51.377)" fill-rule="evenodd">
   <path d="m242.03 204.3h-226.37v-149.78h226.37v149.78" fill="#fff"/>
   <path d="m97.481 153.73 14.702-48.474h13.117l-14.702 48.474h-13.117m-5.865-48.461-11.799 20.549c-3.003 5.382-4.76 8.1-5.604 11.501h-0.18c0.209-4.311-0.392-9.605-0.448-12.596l-1.304-19.453h-22.081l-0.226 1.304c5.672 0 9.036 2.849 9.962 8.68l4.303 38.477h13.59l27.478-48.461h-13.691m102.01 48.46-0.363-7.209-16.379-0.013-3.351 7.222h-14.241l25.823-48.382h17.48l4.373 48.382zm-1.505-28.593c-0.147-3.583-0.268-8.445-0.024-11.388h-0.193c-0.799 2.407-4.228 9.632-5.736 13.187l-4.88 10.625h11.5l-0.667-12.424m-53.051 29.97c-9.261 0-15.407-2.937-19.794-5.556l6.248-9.543c3.939 2.204 7.032 4.746 14.148 4.746 2.288 0 4.492-0.595 5.745-2.763 1.824-3.153-0.421-4.849-5.545-7.751l-2.531-1.645c-7.596-5.191-10.881-10.12-7.306-18.726 2.289-5.505 8.323-9.677 18.28-9.677 6.864 0 13.301 2.969 17.053 5.871l-7.184 8.425c-3.661-2.96-6.693-4.457-10.167-4.457-2.768 0-4.872 1.068-5.597 2.508-1.367 2.707 0.441 4.552 4.433 7.029l3.009 1.915c9.223 5.817 11.42 11.916 9.108 17.618-3.976 9.816-11.76 12.007-19.903 12.007m71.804-43.283h-0.567v-3.459h1.312c0.835 0 1.261 0.292 1.261 0.995 0 0.627-0.384 0.885-0.903 0.944l0.968 1.52h-0.643l-0.893-1.479h-0.536zm0.636-1.964c0.427 0 0.801-0.041 0.801-0.543 0-0.417-0.409-0.468-0.751-0.468h-0.687v1.011zm-0.017 3.301c-1.795 0-3.073-1.345-3.073-3.125 0-1.879 1.42-3.124 3.073-3.124 1.637 0 3.057 1.245 3.057 3.124s-1.42 3.125-3.057 3.125zm0-5.707c-1.352 0-2.405 1.061-2.405 2.581 0 1.42 0.92 2.581 2.405 2.581 1.337 0 2.389-1.052 2.389-2.581 0-1.52-1.052-2.581-2.389-2.581" fill="#15569c"/>
   <path d="m236.46 168.78h-214.82v28.743h214.82v-28.743" fill="#f8a11a"/>
   <path d="m236.06 61.684h-214.82v28.744h214.82v-28.744m-4.907 133.8h-0.568v-3.459h1.312c0.835 0 1.261 0.293 1.261 0.995 0 0.627-0.384 0.886-0.903 0.944l0.969 1.521h-0.643l-0.895-1.478h-0.535zm0.636-1.964c0.425 0 0.801-0.042 0.801-0.543 0-0.418-0.409-0.468-0.752-0.468h-0.685v1.011zm-0.017 3.3c-1.796 0-3.075-1.345-3.075-3.124 0-1.88 1.42-3.125 3.075-3.125 1.637 0 3.057 1.245 3.057 3.125s-1.42 3.124-3.057 3.124zm0-5.706c-1.353 0-2.405 1.061-2.405 2.582 0 1.42 0.919 2.581 2.405 2.581 1.336 0 2.388-1.052 2.388-2.581 0-1.52-1.052-2.582-2.388-2.582" fill="#15569c"/>
  </g>
 </g>
</svg>
