<svg width="256" height="256" viewBox="0 0 256 256" fill="none" xmlns="http://www.w3.org/2000/svg">
<g clip-path="url(#clip0_1_162)">
<rect width="256" height="256" fill="#071C37"/>
<rect x="139" y="120.293" width="81.4046" height="43.681" rx="21.8405" transform="rotate(-19.5889 139 120.293)" fill="#1A85E0"/>
<g filter="url(#filter0_f_1_162)">
<ellipse cx="176" cy="155.5" rx="46" ry="10.5" fill="#0A0909"/>
</g>
<path d="M33.584 130.544C33.584 134.196 35.96 136.44 39.26 136.44C41.988 136.44 43.704 135.12 44.672 134.196L45.112 135.384C45.288 135.824 45.464 136 45.86 136H47.092C47.532 136 47.928 135.604 47.928 135.164V125.792C47.928 121.392 47.4 117.96 41.768 117.96C38.512 117.96 36.004 118.84 35.696 118.972C35.3 119.104 34.992 119.412 35.124 119.984L35.476 121.612C35.608 122.096 35.916 122.448 36.444 122.316C37.368 122.052 39.348 121.524 41.372 121.524C43.616 121.524 44.144 122.624 44.1 125.396C44.1 125.396 42.472 124.868 40.624 124.868C36.136 124.868 33.584 127.332 33.584 130.544ZM37.412 130.5C37.412 128.696 38.864 127.596 40.976 127.596C42.56 127.596 43.792 128.124 44.056 128.3V131.116C43.528 131.996 41.856 133.316 40.096 133.316C38.468 133.316 37.412 132.084 37.412 130.5ZM52.1455 127.244C52.1455 132.524 56.4135 136.44 61.3415 136.44C64.3775 136.44 66.7535 134.988 68.1615 132.744C68.4695 132.304 68.2935 131.864 67.8535 131.512L66.6655 130.544C66.2695 130.236 65.8735 130.236 65.4775 130.632C64.5535 131.512 63.6295 132.656 61.3855 132.656C58.5255 132.656 56.3255 130.236 56.3255 127.2C56.3255 124.208 58.5695 121.788 61.4295 121.788C62.8815 121.788 64.1575 122.58 64.9495 123.46C65.3015 123.768 65.6095 124.12 66.1375 123.636L67.5895 122.316C67.9855 122.008 68.0735 121.48 67.7655 121.084C66.1375 119.06 64.0695 117.96 61.3855 117.96C56.5015 117.96 52.1455 122.052 52.1455 127.244ZM71.2236 127.244C71.2236 132.524 75.4916 136.44 80.4196 136.44C83.4556 136.44 85.8316 134.988 87.2396 132.744C87.5476 132.304 87.3716 131.864 86.9316 131.512L85.7436 130.544C85.3476 130.236 84.9516 130.236 84.5556 130.632C83.6316 131.512 82.7076 132.656 80.4636 132.656C77.6036 132.656 75.4036 130.236 75.4036 127.2C75.4036 124.208 77.6476 121.788 80.5076 121.788C81.9596 121.788 83.2356 122.58 84.0276 123.46C84.3796 123.768 84.6876 124.12 85.2156 123.636L86.6676 122.316C87.0636 122.008 87.1516 121.48 86.8436 121.084C85.2156 119.06 83.1476 117.96 80.4636 117.96C75.5796 117.96 71.2236 122.052 71.2236 127.244ZM90.3457 127.2C90.3457 132.26 93.8657 136.44 99.1897 136.44C102.138 136.44 104.426 135.34 105.702 134.24C106.23 133.8 106.098 133.448 105.79 133.096L104.558 131.424C104.206 130.984 103.898 131.16 103.37 131.468C102.49 132.04 101.038 132.744 99.4537 132.744C96.5937 132.744 94.5257 130.412 94.3937 128.036H106.362C106.758 128.036 107.11 127.728 107.154 127.288C107.198 126.98 107.242 126.408 107.242 126.1C107.242 121.392 103.722 117.96 99.1457 117.96C93.8657 117.96 90.3457 122.228 90.3457 127.2ZM94.6137 125.264C94.8777 123.064 96.7257 121.348 99.1017 121.348C101.258 121.348 103.018 123.152 103.15 125.264H94.6137ZM115.697 135.252C116.005 135.428 117.721 136.44 120.009 136.44C124.805 136.44 128.589 132.392 128.589 127.244C128.589 122.184 125.025 117.96 120.185 117.96C116.929 117.96 115.125 119.808 114.817 120.116L114.377 118.972C114.201 118.576 113.981 118.4 113.629 118.4H112.309C111.869 118.4 111.473 118.796 111.473 119.236V148.364C111.473 148.804 111.869 149.2 112.309 149.2H114.773C115.389 149.2 115.697 148.848 115.697 148.364V135.252ZM115.609 131.38V124.34C115.785 123.812 117.105 121.788 119.657 121.788C122.649 121.788 124.497 124.296 124.497 127.244C124.497 130.236 122.385 132.656 119.481 132.656C117.149 132.656 115.609 131.38 115.609 131.38ZM134.188 131.204C134.188 134.328 135.2 136.44 138.676 136.44C140.788 136.44 143.384 135.384 143.824 135.12C144.264 134.9 144.44 134.548 144.22 134.064L143.428 132.128C143.252 131.732 142.988 131.468 142.416 131.732C141.888 131.996 140.656 132.524 139.732 132.524C138.896 132.524 138.324 132.26 138.324 130.764V122.052H142.812C143.296 122.052 143.648 121.656 143.648 121.216V119.236C143.648 118.752 143.296 118.4 142.812 118.4H138.324V113.472C138.324 113.032 137.972 112.636 137.532 112.636L135.024 112.68C134.584 112.68 134.188 113.076 134.188 113.516V118.4H132.34C131.856 118.4 131.504 118.752 131.504 119.236V121.216C131.504 121.656 131.856 122.052 132.34 122.052H134.188V131.204ZM147.375 133.404C147.375 135.076 148.739 136.44 150.411 136.44C152.127 136.44 153.491 135.076 153.491 133.404C153.491 131.688 152.127 130.324 150.411 130.324C148.739 130.324 147.375 131.688 147.375 133.404ZM162.533 135.252C162.841 135.428 164.557 136.44 166.845 136.44C171.641 136.44 175.425 132.392 175.425 127.244C175.425 122.184 171.861 117.96 167.021 117.96C163.765 117.96 161.961 119.808 161.653 120.116L161.213 118.972C161.037 118.576 160.817 118.4 160.465 118.4H159.145C158.705 118.4 158.309 118.796 158.309 119.236V148.364C158.309 148.804 158.705 149.2 159.145 149.2H161.609C162.225 149.2 162.533 148.848 162.533 148.364V135.252ZM162.445 131.38V124.34C162.621 123.812 163.941 121.788 166.493 121.788C169.485 121.788 171.333 124.296 171.333 127.244C171.333 130.236 169.221 132.656 166.317 132.656C163.985 132.656 162.445 131.38 162.445 131.38ZM178.604 130.544C178.604 134.196 180.98 136.44 184.28 136.44C187.008 136.44 188.724 135.12 189.692 134.196L190.132 135.384C190.308 135.824 190.484 136 190.88 136H192.112C192.552 136 192.948 135.604 192.948 135.164V125.792C192.948 121.392 192.42 117.96 186.788 117.96C183.532 117.96 181.024 118.84 180.716 118.972C180.32 119.104 180.012 119.412 180.144 119.984L180.496 121.612C180.628 122.096 180.936 122.448 181.464 122.316C182.388 122.052 184.368 121.524 186.392 121.524C188.636 121.524 189.164 122.624 189.12 125.396C189.12 125.396 187.492 124.868 185.644 124.868C181.156 124.868 178.604 127.332 178.604 130.544ZM182.432 130.5C182.432 128.696 183.884 127.596 185.996 127.596C187.58 127.596 188.812 128.124 189.076 128.3V131.116C188.548 131.996 186.876 133.316 185.116 133.316C183.488 133.316 182.432 132.084 182.432 130.5ZM203.765 135.384L197.869 148.012C197.561 148.628 197.957 149.2 198.617 149.2H201.257C201.609 149.2 201.873 148.936 202.005 148.672L215.469 119.544C215.777 118.972 215.425 118.4 214.721 118.4H212.213C211.817 118.4 211.465 118.488 211.289 118.884L206.009 130.588H205.965L200.509 118.884C200.377 118.62 200.025 118.4 199.761 118.4H196.857C196.197 118.4 195.845 118.972 196.109 119.544L203.765 135.384Z" fill="#FCFCFB"/>
</g>
<defs>
<filter id="filter0_f_1_162" x="80" y="95" width="192" height="121" filterUnits="userSpaceOnUse" color-interpolation-filters="sRGB">
<feFlood flood-opacity="0" result="BackgroundImageFix"/>
<feBlend mode="normal" in="SourceGraphic" in2="BackgroundImageFix" result="shape"/>
<feGaussianBlur stdDeviation="25" result="effect1_foregroundBlur_1_162"/>
</filter>
<clipPath id="clip0_1_162">
<rect width="256" height="256" fill="white"/>
</clipPath>
</defs>
</svg>
